GeoramaExtraExtended-SemiBoldItalic.ufo
<glyph name="exclam" format="2">
  <advance width="360.75"/>
  <unicode hex="0021"/>
  <outline>
    <contour>
      <point x="110.3" y="261.25" type="line"/>
      <point x="244.9" y="261.25" type="line"/>
      <point x="331.45" y="740.0" type="line"/>
      <point x="176.5" y="740.0" type="line"/>
    </contour>
    <contour>
      <point x="56.15" y="47.95" type="curve" smooth="yes"/>
      <point x="55.699999999999996" y="11.450000000000001"/>
      <point x="78.4" y="-5.5"/>
      <point x="135.7" y="-5.5" type="curve" smooth="yes"/>
      <point x="199.35000000000002" y="-5.5"/>
      <point x="237.75" y="14.75"/>
      <point x="239.10000000000002" y="82.3" type="curve" smooth="yes"/>
      <point x="239.55" y="118.80000000000001"/>
      <point x="216.85" y="135.75"/>
      <point x="160.1" y="135.75" type="curve" smooth="yes"/>
      <point x="93.7" y="135.75"/>
      <point x="57.49999999999999" y="112.75"/>
    </contour>
  </outline>
</glyph>
<glyph name="numbersign" format="2">
  <advance width="1042.8"/>
  <unicode hex="0023"/>
  <outline>
    <contour>
      <point x="200.70000000000002" y="444.09999999999997" type="line"/>
      <point x="320.9" y="444.09999999999997" type="line"/>
      <point x="245.99999999999997" y="253.65000000000003" type="line"/>
      <point x="131.95" y="253.65000000000003" type="line"/>
      <point x="116.19999999999999" y="156.9" type="line"/>
      <point x="210.95" y="156.9" type="line"/>
      <point x="150.45" y="0.0" type="line"/>
      <point x="314.0" y="0.0" type="line"/>
      <point x="374.05" y="156.9" type="line"/>
      <point x="544.55" y="156.9" type="line"/>
      <point x="484.5" y="0.0" type="line"/>
      <point x="648.05" y="0.0" type="line"/>
      <point x="708.1" y="156.9" type="line"/>
      <point x="850.1" y="156.9" type="line"/>
      <point x="865.3000000000001" y="253.65000000000003" type="line"/>
      <point x="744.7" y="253.65000000000003" type="line"/>
      <point x="818.05" y="444.09999999999997" type="line"/>
      <point x="934.05" y="444.09999999999997" type="line"/>
      <point x="950.25" y="539.75" type="line"/>
      <point x="853.5500000000001" y="539.75" type="line"/>
      <point x="916.1" y="700.0" type="line"/>
      <point x="752.55" y="700.0" type="line"/>
      <point x="690.0" y="539.75" type="line"/>
      <point x="519.5" y="539.75" type="line"/>
      <point x="582.05" y="700.0" type="line"/>
      <point x="418.5" y="700.0" type="line"/>
      <point x="355.95" y="539.75" type="line"/>
      <point x="216.35" y="539.75" type="line"/>
    </contour>
    <contour>
      <point x="484.45" y="444.09999999999997" type="line"/>
      <point x="654.95" y="444.09999999999997" type="line"/>
      <point x="580.05" y="253.65000000000003" type="line"/>
      <point x="409.55" y="253.65000000000003" type="line"/>
    </contour>
  </outline>
</glyph>
<glyph name="dollar" format="2">
  <advance width="1042.8"/>
  <unicode hex="0024"/>
  <outline>
    <contour>
      <point x="935.8000000000001" y="664.3" type="line"/>
      <point x="879.8499999999999" y="679.3999999999999"/>
      <point x="789.6" y="704.7"/>
      <point x="666.5" y="709.35" type="curve"/>
      <point x="682.5" y="805.0" type="line"/>
      <point x="572.2" y="805.0" type="line"/>
      <point x="556.65" y="708.3499999999999" type="line"/>
      <point x="376.95" y="702.9499999999999"/>
      <point x="173.2" y="656.6"/>
      <point x="173.2" y="467.99999999999994" type="curve" smooth="yes"/>
      <point x="173.2" y="209.99999999999997"/>
      <point x="745.7" y="330.0"/>
      <point x="745.7" y="200.95000000000002" type="curve" smooth="yes"/>
      <point x="745.7" y="116.99999999999999"/>
      <point x="609.6999999999999" y="104.05000000000001"/>
      <point x="511.05" y="104.05000000000001" type="curve" smooth="yes"/>
      <point x="367.95" y="104.05000000000001"/>
      <point x="203.85" y="142.75000000000003"/>
      <point x="122.7" y="172.5" type="curve"/>
      <point x="75.3" y="53.05" type="line"/>
      <point x="158.14999999999998" y="28.0"/>
      <point x="295.0" y="-6.25"/>
      <point x="440.75" y="-9.45" type="curve"/>
      <point x="425.75" y="-105.0" type="line"/>
      <point x="535.5" y="-105.0" type="line"/>
      <point x="550.5" y="-6.699999999999999" type="line"/>
      <point x="718.8" y="5.85"/>
      <point x="925.1" y="40.00000000000001"/>
      <point x="925.1" y="232.10000000000002" type="curve" smooth="yes"/>
      <point x="925.1" y="485.45"/>
      <point x="349.5" y="364.25"/>
      <point x="349.5" y="497.3" type="curve" smooth="yes"/>
      <point x="349.5" y="582.8"/>
      <point x="484.8" y="593.65"/>
      <point x="571.95" y="593.65" type="curve" smooth="yes"/>
      <point x="701.0999999999999" y="593.65"/>
      <point x="807.7499999999999" y="575.0999999999999"/>
      <point x="891.4" y="546.3000000000001" type="curve"/>
    </contour>
  </outline>
</glyph>
<glyph name="ampersand" format="2">
  <advance width="1082.3"/>
  <unicode hex="0026"/>
  <outline>
    <contour>
      <point x="438.6" y="-10.0" type="curve" smooth="yes"/>
      <point x="684.4000000000001" y="-10.0"/>
      <point x="863.5" y="74.30000000000001"/>
      <point x="944.8" y="304.2" type="curve"/>
      <point x="816.7" y="307.9" type="line"/>
      <point x="770.0999999999999" y="152.90000000000003"/>
      <point x="611.4000000000001" y="96.60000000000001"/>
      <point x="454.5" y="96.60000000000001" type="curve" smooth="yes"/>
      <point x="302.1" y="96.60000000000001"/>
      <point x="218.79999999999998" y="142.4"/>
      <point x="218.79999999999998" y="206.1" type="curve" smooth="yes"/>
      <point x="218.79999999999998" y="294.5"/>
      <point x="329.90000000000003" y="313.5"/>
      <point x="443.90000000000003" y="313.5" type="curve" smooth="yes"/>
      <point x="499.40000000000003" y="313.5" type="line"/>
      <point x="516.9999999999999" y="390.9" type="line"/>
      <point x="498.3" y="393.0" type="line" smooth="yes"/>
      <point x="392.8" y="404.59999999999997"/>
      <point x="324.8" y="435.59999999999997"/>
      <point x="324.8" y="502.2" type="curve" smooth="yes"/>
      <point x="324.8" y="556.2"/>
      <point x="380.20000000000005" y="609.1999999999999"/>
      <point x="484.9" y="609.1999999999999" type="curve" smooth="yes"/>
      <point x="551.3999999999999" y="609.1999999999999"/>
      <point x="619.4000000000001" y="582.6999999999999"/>
      <point x="669.3" y="542.0" type="curve"/>
      <point x="757.8000000000001" y="616.8000000000001" type="line"/>
      <point x="686.0" y="677.3"/>
      <point x="581.6" y="710.0"/>
      <point x="466.4" y="710.0" type="curve" smooth="yes"/>
      <point x="270.6" y="710.0"/>
      <point x="156.3" y="625.9000000000001"/>
      <point x="156.3" y="527.4000000000001" type="curve" smooth="yes"/>
      <point x="156.3" y="452.59999999999997"/>
      <point x="219.1" y="387.09999999999997"/>
      <point x="312.8" y="373.5" type="curve"/>
      <point x="153.20000000000002" y="367.2"/>
      <point x="47.0" y="314.90000000000003"/>
      <point x="47.0" y="198.4" type="curve" smooth="yes"/>
      <point x="47.0" y="71.8"/>
      <point x="175.29999999999998" y="-10.0"/>
    </contour>
    <contour>
      <point x="650.1999999999999" y="223.7" type="line"/>
      <point x="658.6999999999999" y="273.0"/>
      <point x="696.4" y="285.6"/>
      <point x="736.3" y="285.6" type="curve" smooth="yes"/>
      <point x="819.5999999999999" y="285.6"/>
      <point x="882.4" y="263.29999999999995"/>
      <point x="956.6999999999999" y="263.29999999999995" type="curve" smooth="yes"/>
      <point x="1045.5" y="263.29999999999995"/>
      <point x="1105.1999999999998" y="335.3"/>
      <point x="1105.2" y="438.0" type="curve"/>
      <point x="1010.3" y="438.0" type="line"/>
      <point x="1010.1999999999999" y="385.0"/>
      <point x="976.1999999999999" y="361.7"/>
      <point x="918.1999999999999" y="361.7" type="curve" smooth="yes"/>
      <point x="845.4" y="361.7"/>
      <point x="801.6999999999999" y="389.6"/>
      <point x="725.3" y="389.6" type="curve" smooth="yes"/>
      <point x="641.0" y="389.6"/>
      <point x="575.5" y="337.8"/>
      <point x="567.0" y="250.5" type="curve"/>
    </contour>
  </outline>
</glyph>
<glyph name="quotesingle" format="2">
  <advance width="240.95000000000002"/>
  <unicode hex="0027"/>
  <outline>
    <contour>
      <point x="82.69999999999999" y="427.0" type="line"/>
      <point x="205.14999999999998" y="427.0" type="line"/>
      <point x="255.45" y="700.0" type="line"/>
      <point x="119.50000000000001" y="700.0" type="line"/>
    </contour>
  </outline>
</glyph>
<glyph name="parenleft" format="2">
  <advance width="482.0"/>
  <unicode hex="0028"/>
  <outline>
    <contour>
      <point x="101.30000000000001" y="145.0" type="curve" smooth="yes"/>
      <point x="101.30000000000001" y="-36.3"/>
      <point x="174.9" y="-192.95000000000002"/>
      <point x="364.65" y="-220.0" type="curve"/>
      <point x="380.29999999999995" y="-123.89999999999999" type="line"/>
      <point x="276.15000000000003" y="-95.14999999999999"/>
      <point x="229.20000000000002" y="0.8500000000000068"/>
      <point x="229.20000000000002" y="134.95" type="curve" smooth="yes"/>
      <point x="229.20000000000002" y="365.8"/>
      <point x="320.0" y="615.05"/>
      <point x="500.90000000000003" y="649.5" type="curve"/>
      <point x="516.55" y="750.0" type="line"/>
      <point x="224.95" y="726.8000000000001"/>
      <point x="101.30000000000001" y="417.25"/>
    </contour>
  </outline>
</glyph>
<glyph name="parenright" format="2">
  <advance width="482.0"/>
  <unicode hex="0029"/>
  <outline>
    <contour>
      <point x="377.15" y="384.1" type="curve" smooth="yes"/>
      <point x="377.15" y="570.85"/>
      <point x="302.65" y="722.9499999999999"/>
      <point x="112.45" y="750.0" type="curve"/>
      <point x="96.8" y="650.25" type="line"/>
      <point x="205.45" y="620.6"/>
      <point x="249.25" y="521.45"/>
      <point x="249.25" y="391.4" type="curve" smooth="yes"/>
      <point x="249.25" y="171.8"/>
      <point x="161.6" y="-81.44999999999999"/>
      <point x="-23.35" y="-118.6" type="curve"/>
      <point x="-39.0" y="-220.0" type="line"/>
      <point x="235.95000000000002" y="-195.54999999999998"/>
      <point x="377.15" y="95.30000000000003"/>
    </contour>
  </outline>
</glyph>
<glyph name="asterisk" format="2">
  <advance width="476.50000000000006"/>
  <unicode hex="002A"/>
  <outline>
    <contour>
      <point x="145.2" y="295.05" type="line"/>
      <point x="261.25" y="424.85" type="line"/>
      <point x="334.70000000000005" y="295.05" type="line"/>
      <point x="396.1" y="334.95" type="line"/>
      <point x="337.40000000000003" y="478.09999999999997" type="line"/>
      <point x="486.29999999999995" y="537.7" type="line"/>
      <point x="476.69999999999993" y="603.8499999999999" type="line"/>
      <point x="326.95" y="564.9499999999999" type="line"/>
      <point x="345.55" y="730.0" type="line"/>
      <point x="276.4" y="730.0" type="line"/>
      <point x="242.40000000000003" y="564.95" type="line"/>
      <point x="103.6" y="603.85" type="line"/>
      <point x="73.94999999999999" y="537.6999999999999" type="line"/>
      <point x="203.5" y="478.09999999999997" type="line"/>
      <point x="98.0" y="335.85" type="line"/>
    </contour>
  </outline>
</glyph>
<glyph name="plus" format="2">
  <advance width="638.5"/>
  <unicode hex="002B"/>
  <outline>
    <contour>
      <point x="220.4" y="80.25" type="line"/>
      <point x="355.55" y="80.25" type="line"/>
      <point x="380.95000000000005" y="244.8" type="line"/>
      <point x="571.55" y="244.8" type="line"/>
      <point x="591.6" y="365.65" type="line"/>
      <point x="401.0" y="365.65" type="line"/>
      <point x="427.4" y="529.65" type="line"/>
      <point x="293.34999999999997" y="529.65" type="line"/>
      <point x="265.85" y="365.65" type="line"/>
      <point x="76.89999999999999" y="365.65" type="line"/>
      <point x="56.85" y="244.8" type="line"/>
      <point x="246.9" y="244.8" type="line"/>
    </contour>
  </outline>
</glyph>
<glyph name="comma" format="2">
  <advance width="300.8"/>
  <unicode hex="002C"/>
  <outline>
    <contour>
      <point x="49.55" y="73.64999999999999" type="line"/>
      <point x="50.8" y="55.25"/>
      <point x="49.5" y="35.85000000000001"/>
      <point x="47.3" y="17.000000000000004" type="curve" smooth="yes"/>
      <point x="39.6" y="-52.15"/>
      <point x="3.5999999999999988" y="-129.4"/>
      <point x="-61.900000000000006" y="-179.70000000000002" type="curve"/>
      <point x="56.300000000000004" y="-200.0" type="line"/>
      <point x="140.3" y="-145.5"/>
      <point x="200.85000000000002" y="-51.599999999999994"/>
      <point x="200.85000000000002" y="39.95" type="curve" smooth="yes"/>
      <point x="200.85000000000002" y="53.650000000000006"/>
      <point x="198.95000000000002" y="66.9"/>
      <point x="195.05" y="78.25000000000001" type="curve"/>
    </contour>
  </outline>
</glyph>
<glyph name="hyphen" format="2">
  <advance width="462.59999999999997"/>
  <unicode hex="002D"/>
  <outline>
    <contour>
      <point x="57.55" y="232.45000000000002" type="line"/>
      <point x="390.8" y="232.45000000000002" type="line"/>
      <point x="410.85" y="355.40000000000003" type="line"/>
      <point x="77.6" y="355.40000000000003" type="line"/>
    </contour>
  </outline>
</glyph>
<glyph name="period" format="2">
  <advance width="307.95"/>
  <unicode hex="002E"/>
  <outline>
    <contour>
      <point x="28.650000000000002" y="47.95" type="curve" smooth="yes"/>
      <point x="28.2" y="11.450000000000001"/>
      <point x="50.9" y="-5.500000000000001"/>
      <point x="108.2" y="-5.500000000000001" type="curve" smooth="yes"/>
      <point x="171.85" y="-5.500000000000001"/>
      <point x="210.25" y="14.75"/>
      <point x="211.60000000000002" y="82.3" type="curve" smooth="yes"/>
      <point x="212.05" y="118.80000000000001"/>
      <point x="189.35000000000002" y="135.75"/>
      <point x="132.60000000000002" y="135.75" type="curve" smooth="yes"/>
      <point x="66.2" y="135.75"/>
      <point x="29.999999999999996" y="112.75"/>
    </contour>
  </outline>
</glyph>
<glyph name="slash" format="2">
  <advance width="529.15"/>
  <unicode hex="002F"/>
  <outline>
    <contour>
      <point x="-67.0" y="-210.0" type="line"/>
      <point x="62.25000000000001" y="-210.0" type="line"/>
      <point x="593.1500000000001" y="740.0" type="line"/>
      <point x="463.35" y="740.0" type="line"/>
    </contour>
  </outline>
</glyph>
<glyph name="zero" format="2">
  <advance width="1042.8"/>
  <unicode hex="0030"/>
  <outline>
    <contour>
      <point x="519.6999999999999" y="-10.0" type="curve" smooth="yes"/>
      <point x="790.1" y="-10.0"/>
      <point x="986.0" y="112.39999999999996"/>
      <point x="986.0" y="376.5" type="curve" smooth="yes"/>
      <point x="986.0" y="595.4"/>
      <point x="817.3000000000001" y="710.0"/>
      <point x="546.1" y="710.0" type="curve" smooth="yes"/>
      <point x="274.7" y="710.0"/>
      <point x="80.7" y="590.6"/>
      <point x="80.7" y="326.4" type="curve" smooth="yes"/>
      <point x="80.7" y="107.60000000000001"/>
      <point x="250.3" y="-10.0"/>
    </contour>
    <contour>
      <point x="522.9" y="100.4" type="curve" smooth="yes"/>
      <point x="364.8" y="100.4"/>
      <point x="258.00000000000006" y="175.8"/>
      <point x="258.0" y="329.1" type="curve" smooth="yes"/>
      <point x="258.0" y="501.6999999999999"/>
      <point x="358.50000000000006" y="599.9"/>
      <point x="543.8" y="599.9" type="curve" smooth="yes"/>
      <point x="701.8000000000001" y="599.9"/>
      <point x="808.6999999999999" y="525.4"/>
      <point x="808.6999999999999" y="372.2" type="curve" smooth="yes"/>
      <point x="808.7" y="200.4"/>
      <point x="707.4000000000001" y="100.4"/>
    </contour>
  </outline>
</glyph>
<glyph name="one" format="2">
  <advance width="1042.8"/>
  <unicode hex="0031"/>
  <outline>
    <contour>
      <point x="135.6" y="0.0" type="line"/>
      <point x="898.05" y="0.0" type="line"/>
      <point x="917.55" y="118.55" type="line"/>
      <point x="643.15" y="118.55" type="line"/>
      <point x="737.75" y="704.5" type="line"/>
      <point x="654.15" y="704.5" type="line"/>
      <point x="190.9" y="522.1" type="line"/>
      <point x="214.7" y="402.34999999999997" type="line"/>
      <point x="538.65" y="533.75" type="line"/>
      <point x="473.90000000000003" y="118.55" type="line"/>
      <point x="155.1" y="118.55" type="line"/>
    </contour>
  </outline>
</glyph>
<glyph name="two" format="2">
  <advance width="1042.8"/>
  <unicode hex="0032"/>
  <outline>
    <contour>
      <point x="100.30000000000001" y="89.5" type="curve"/>
      <point x="89.19999999999999" y="0.0" type="line"/>
      <point x="898.0" y="0.0" type="line"/>
      <point x="917.7" y="119.0" type="line"/>
      <point x="407.40000000000003" y="119.0" type="line"/>
      <point x="759.5" y="288.20000000000005"/>
      <point x="855.1" y="373.20000000000005"/>
      <point x="855.1" y="499.70000000000005" type="curve" smooth="yes"/>
      <point x="855.1" y="624.2000000000002"/>
      <point x="735.9000000000001" y="710.0"/>
      <point x="531.3" y="710.0" type="curve" smooth="yes"/>
      <point x="406.00000000000006" y="710.0"/>
      <point x="270.00000000000006" y="677.4"/>
      <point x="178.29999999999995" y="631.7" type="curve"/>
      <point x="201.9" y="511.49999999999994" type="line"/>
      <point x="294.09999999999997" y="548.6"/>
      <point x="385.8" y="578.4999999999999"/>
      <point x="505.20000000000005" y="578.4999999999999" type="curve" smooth="yes"/>
      <point x="619.8" y="578.4999999999999"/>
      <point x="676.8" y="538.0"/>
      <point x="676.8" y="472.5" type="curve" smooth="yes"/>
      <point x="676.8" y="349.8"/>
      <point x="450.7" y="253.10000000000002"/>
    </contour>
  </outline>
</glyph>
<glyph name="three" format="2">
  <advance width="1042.8"/>
  <unicode hex="0033"/>
  <outline>
    <contour>
      <point x="40.4" y="62.8" type="line"/>
      <point x="155.9" y="11.899999999999997"/>
      <point x="293.7" y="-9.899999999999999"/>
      <point x="452.9" y="-9.899999999999999" type="curve" smooth="yes"/>
      <point x="681.8" y="-9.899999999999999"/>
      <point x="917.3" y="45.9"/>
      <point x="917.3" y="230.5" type="curve" smooth="yes"/>
      <point x="917.3" y="307.1"/>
      <point x="860.6999999999999" y="353.4"/>
      <point x="750.2" y="371.9" type="curve"/>
      <point x="845.4" y="388.20000000000005"/>
      <point x="924.9" y="451.9"/>
      <point x="924.9" y="548.0" type="curve" smooth="yes"/>
      <point x="924.9" y="649.6"/>
      <point x="806.2" y="710.0"/>
      <point x="551.8" y="710.0" type="curve" smooth="yes"/>
      <point x="416.09999999999997" y="710.0"/>
      <point x="264.29999999999995" y="688.3"/>
      <point x="171.2" y="659.0999999999999" type="curve"/>
      <point x="190.1" y="541.4" type="line"/>
      <point x="287.0" y="568.8000000000001"/>
      <point x="411.8" y="586.3000000000001"/>
      <point x="507.0" y="586.3000000000001" type="curve" smooth="yes"/>
      <point x="660.6" y="586.3000000000001"/>
      <point x="748.9999999999999" y="561.1"/>
      <point x="748.9999999999999" y="505.6" type="curve" smooth="yes"/>
      <point x="748.9999999999999" y="445.2"/>
      <point x="681.5" y="414.0"/>
      <point x="549.8000000000001" y="414.0" type="curve" smooth="yes"/>
      <point x="307.2" y="414.0" type="line"/>
      <point x="288.90000000000003" y="302.50000000000006" type="line"/>
      <point x="532.6" y="302.50000000000006" type="line" smooth="yes"/>
      <point x="681.8" y="302.50000000000006"/>
      <point x="742.6000000000001" y="273.59999999999997"/>
      <point x="742.6000000000001" y="218.6" type="curve" smooth="yes"/>
      <point x="742.6000000000001" y="147.20000000000002"/>
      <point x="651.8000000000001" y="112.8"/>
      <point x="468.50000000000006" y="112.8" type="curve" smooth="yes"/>
      <point x="316.3" y="112.8"/>
      <point x="182.2" y="135.6"/>
      <point x="87.60000000000001" y="176.3" type="curve"/>
    </contour>
  </outline>
</glyph>
<glyph name="four" format="2">
  <advance width="1042.8"/>
  <unicode hex="0034"/>
  <outline>
    <contour>
      <point x="46.099999999999994" y="141.1" type="line"/>
      <point x="612.0" y="141.1" type="line"/>
      <point x="589.0000000000001" y="-3.5999999999999996" type="line"/>
      <point x="758.9" y="-3.5999999999999996" type="line"/>
      <point x="781.9" y="141.1" type="line"/>
      <point x="949.1" y="141.1" type="line"/>
      <point x="966.4" y="248.10000000000002" type="line"/>
      <point x="799.2" y="248.10000000000002" type="line"/>
      <point x="872.1" y="697.3" type="line"/>
      <point x="773.0" y="701.8" type="line"/>
      <point x="58.19999999999999" y="226.29999999999998" type="line"/>
    </contour>
    <contour>
      <point x="254.89999999999998" y="248.10000000000002" type="line"/>
      <point x="672.8" y="517.7" type="line"/>
      <point x="629.4" y="248.10000000000002" type="line"/>
    </contour>
  </outline>
</glyph>
<glyph name="five" format="2">
  <advance width="1042.8"/>
  <unicode hex="0035"/>
  <outline>
    <contour>
      <point x="72.7" y="62.7" type="line"/>
      <point x="175.4" y="12.7"/>
      <point x="299.4" y="-10.0"/>
      <point x="456.8" y="-10.0" type="curve" smooth="yes"/>
      <point x="789.2" y="-10.0"/>
      <point x="920.6999999999999" y="88.8"/>
      <point x="920.6999999999999" y="254.2" type="curve" smooth="yes"/>
      <point x="920.6999999999999" y="373.8"/>
      <point x="841.5" y="429.5"/>
      <point x="631.7" y="429.5" type="curve" smooth="yes"/>
      <point x="328.6" y="429.5" type="line"/>
      <point x="375.8" y="576.4000000000001" type="line"/>
      <point x="910.5" y="576.4000000000001" type="line"/>
      <point x="932.1" y="700.0" type="line"/>
      <point x="284.59999999999997" y="700.0" type="line"/>
      <point x="164.8" y="330.7" type="line"/>
      <point x="172.9" y="322.8" type="line"/>
      <point x="557.1" y="322.8" type="line" smooth="yes"/>
      <point x="707.5" y="322.8"/>
      <point x="759.2" y="301.90000000000003"/>
      <point x="759.2" y="238.20000000000002" type="curve" smooth="yes"/>
      <point x="759.2" y="153.6"/>
      <point x="654.7" y="110.20000000000002"/>
      <point x="470.7" y="110.20000000000002" type="curve" smooth="yes"/>
      <point x="325.0" y="110.20000000000002"/>
      <point x="201.60000000000002" y="136.0"/>
      <point x="120.1" y="173.09999999999997" type="curve"/>
    </contour>
  </outline>
</glyph>
<glyph name="six" format="2">
  <advance width="1042.8"/>
  <unicode hex="0036"/>
  <note>
14
</note>
  <outline>
    <contour>
      <point x="499.0" y="-10.0" type="curve" smooth="yes"/>
      <point x="747.8" y="-10.0"/>
      <point x="962.5999999999999" y="41.900000000000006"/>
      <point x="962.5999999999999" y="241.0" type="curve" smooth="yes"/>
      <point x="962.5999999999999" y="368.90000000000003"/>
      <point x="847.8999999999999" y="449.4"/>
      <point x="624.1" y="449.4" type="curve" smooth="yes"/>
      <point x="495.1" y="449.4"/>
      <point x="347.9" y="423.9"/>
      <point x="245.9" y="375.50000000000006" type="curve"/>
      <point x="238.3" y="270.90000000000003" type="line"/>
      <point x="319.0" y="311.1"/>
      <point x="446.70000000000005" y="338.3"/>
      <point x="558.0" y="338.3" type="curve" smooth="yes"/>
      <point x="726.4" y="338.3"/>
      <point x="791.0" y="302.0"/>
      <point x="791.0" y="233.90000000000003" type="curve" smooth="yes"/>
      <point x="791.0" y="151.70000000000002"/>
      <point x="701.5999999999999" y="106.9"/>
      <point x="528.6" y="106.9" type="curve" smooth="yes"/>
      <point x="347.3" y="106.9"/>
      <point x="252.20000000000002" y="160.2"/>
      <point x="252.20000000000002" y="295.49999999999994" type="curve" smooth="yes"/>
      <point x="252.20000000000002" y="402.3"/>
      <point x="301.3" y="482.40000000000003"/>
      <point x="386.29999999999995" y="532.4000000000001" type="curve" smooth="yes"/>
      <point x="452.8" y="570.8999999999999"/>
      <point x="542.6" y="590.0999999999999"/>
      <point x="646.6999999999999" y="590.0999999999999" type="curve" smooth="yes"/>
      <point x="760.9000000000001" y="590.0999999999999"/>
      <point x="848.2" y="578.3"/>
      <point x="945.0000000000001" y="553.0000000000001" type="curve"/>
      <point x="987.0999999999999" y="667.2" type="line"/>
      <point x="902.1999999999999" y="692.7999999999998"/>
      <point x="783.1" y="710.0"/>
      <point x="650.7" y="710.0" type="curve" smooth="yes"/>
      <point x="318.6" y="710.0"/>
      <point x="88.10000000000001" y="561.1"/>
      <point x="88.10000000000001" y="287.5" type="curve" smooth="yes"/>
      <point x="88.10000000000001" y="80.10000000000001"/>
      <point x="238.29999999999998" y="-10.0"/>
    </contour>
  </outline>
</glyph>
<glyph name="seven" format="2">
  <advance width="1042.8"/>
  <unicode hex="0037"/>
  <note>
9
</note>
  <outline>
    <contour>
      <point x="270.09999999999997" y="0.0" type="curve"/>
      <point x="446.0" y="0.0" type="line"/>
      <point x="470.90000000000003" y="129.6"/>
      <point x="547.0" y="219.3"/>
      <point x="722.5999999999999" y="383.1" type="curve" smooth="yes"/>
      <point x="951.5999999999999" y="596.2" type="line"/>
      <point x="968.8000000000001" y="700.0" type="line"/>
      <point x="174.29999999999998" y="700.0" type="line"/>
      <point x="154.7" y="572.8" type="line"/>
      <point x="743.6" y="572.8" type="line"/>
      <point x="537.1" y="385.29999999999995" type="line" smooth="yes"/>
      <point x="369.3" y="232.4"/>
      <point x="293.7" y="144.0"/>
    </contour>
  </outline>
</glyph>
<glyph name="eight" format="2">
  <advance width="1042.8"/>
  <unicode hex="0038"/>
  <outline>
    <contour>
      <point x="486.9" y="-10.0" type="curve" smooth="yes"/>
      <point x="742.8" y="-10.0"/>
      <point x="963.1" y="26.999999999999986"/>
      <point x="963.1" y="223.29999999999998" type="curve" smooth="yes"/>
      <point x="963.1" y="485.29999999999995"/>
      <point x="313.50000000000006" y="356.1"/>
      <point x="313.50000000000006" y="506.20000000000005" type="curve" smooth="yes"/>
      <point x="313.50000000000006" y="575.2000000000002"/>
      <point x="402.2" y="601.9000000000001"/>
      <point x="560.1" y="601.9000000000001" type="curve" smooth="yes"/>
      <point x="722.4000000000001" y="601.9000000000001"/>
      <point x="794.0" y="570.8000000000001"/>
      <point x="794.0" y="512.2" type="curve" smooth="yes"/>
      <point x="794.0" y="454.09999999999997"/>
      <point x="755.6" y="424.2"/>
      <point x="660.2" y="391.2" type="curve"/>
      <point x="785.2" y="359.7" type="line"/>
      <point x="879.0" y="390.1"/>
      <point x="944.9999999999999" y="444.7"/>
      <point x="944.9999999999999" y="535.2" type="curve" smooth="yes"/>
      <point x="944.9999999999999" y="645.5"/>
      <point x="831.0999999999999" y="710.0"/>
      <point x="569.9" y="710.0" type="curve" smooth="yes"/>
      <point x="345.0" y="710.0"/>
      <point x="156.0" y="664.9000000000001"/>
      <point x="156.0" y="489.79999999999995" type="curve" smooth="yes"/>
      <point x="156.0" y="214.49999999999997"/>
      <point x="783.4" y="359.7"/>
      <point x="783.4" y="200.20000000000002" type="curve" smooth="yes"/>
      <point x="783.4" y="110.2"/>
      <point x="659.0" y="90.4"/>
      <point x="499.0" y="90.4" type="curve" smooth="yes"/>
      <point x="305.90000000000003" y="90.4"/>
      <point x="230.10000000000002" y="128.5"/>
      <point x="230.10000000000002" y="198.50000000000003" type="curve" smooth="yes"/>
      <point x="230.10000000000002" y="264.99999999999994"/>
      <point x="281.40000000000003" y="306.0"/>
      <point x="386.09999999999997" y="329.9" type="curve"/>
      <point x="259.9" y="375.5" type="line"/>
      <point x="141.60000000000002" y="352.8"/>
      <point x="60.49999999999999" y="286.3999999999999"/>
      <point x="60.49999999999999" y="185.7" type="curve" smooth="yes"/>
      <point x="60.49999999999999" y="58.4"/>
      <point x="186.4" y="-10.0"/>
    </contour>
  </outline>
</glyph>
<glyph name="nine" format="2">
  <advance width="1042.8"/>
  <unicode hex="0039"/>
  <outline>
    <contour>
      <point x="575.1" y="710.0" type="curve" smooth="yes"/>
      <point x="271.90000000000003" y="710.0"/>
      <point x="112.5" y="621.7"/>
      <point x="112.5" y="452.7" type="curve" smooth="yes"/>
      <point x="112.5" y="324.8"/>
      <point x="227.19999999999996" y="250.60000000000002"/>
      <point x="451.00000000000006" y="250.60000000000002" type="curve" smooth="yes"/>
      <point x="580.0000000000001" y="250.60000000000002"/>
      <point x="727.1999999999999" y="276.1"/>
      <point x="829.2" y="324.49999999999994" type="curve"/>
      <point x="836.8" y="429.09999999999997" type="line"/>
      <point x="756.1" y="388.9"/>
      <point x="628.4000000000001" y="361.7"/>
      <point x="517.1" y="361.7" type="curve" smooth="yes"/>
      <point x="348.70000000000005" y="361.7"/>
      <point x="284.1" y="398.0"/>
      <point x="284.1" y="466.09999999999997" type="curve" smooth="yes"/>
      <point x="284.1" y="548.3"/>
      <point x="373.5" y="593.0999999999999"/>
      <point x="546.5" y="593.0999999999999" type="curve" smooth="yes"/>
      <point x="727.8" y="593.0999999999999"/>
      <point x="822.9" y="539.8"/>
      <point x="822.9" y="404.50000000000006" type="curve" smooth="yes"/>
      <point x="822.9" y="297.70000000000005"/>
      <point x="773.8" y="217.6"/>
      <point x="688.8" y="167.60000000000002" type="curve" smooth="yes"/>
      <point x="622.3000000000001" y="129.1"/>
      <point x="532.4999999999999" y="109.89999999999999"/>
      <point x="428.4" y="109.89999999999999" type="curve" smooth="yes"/>
      <point x="314.2" y="109.89999999999999"/>
      <point x="226.89999999999998" y="121.7"/>
      <point x="130.1" y="147.0" type="curve"/>
      <point x="88.0" y="32.79999999999999" type="line"/>
      <point x="172.89999999999998" y="7.2"/>
      <point x="291.99999999999994" y="-10.0"/>
      <point x="424.40000000000003" y="-10.0" type="curve" smooth="yes"/>
      <point x="756.4999999999999" y="-10.0"/>
      <point x="987.0000000000001" y="138.90000000000003"/>
      <point x="987.0000000000001" y="411.49999999999994" type="curve" smooth="yes"/>
      <point x="987.0000000000001" y="609.9000000000001"/>
      <point x="848.2000000000002" y="710.0"/>
    </contour>
  </outline>
</glyph>
<glyph name="less" format="2">
  <advance width="638.9499999999999"/>
  <unicode hex="003C"/>
  <outline>
    <contour>
      <point x="539.1" y="42.6" type="line"/>
      <point x="559.1500000000001" y="169.2" type="line"/>
      <point x="202.15" y="304.95" type="line"/>
      <point x="603.45" y="440.15000000000003" type="line"/>
      <point x="623.5" y="568.3000000000001" type="line"/>
      <point x="76.9" y="373.25" type="line"/>
      <point x="56.3" y="243.25" type="line"/>
    </contour>
  </outline>
</glyph>
<glyph name="equal" format="2">
  <advance width="639.0500000000001"/>
  <unicode hex="003D"/>
  <outline>
    <contour>
      <point x="573.4" y="250.89999999999998" type="line"/>
      <point x="58.7" y="250.89999999999998" type="line"/>
      <point x="38.650000000000006" y="130.04999999999998" type="line"/>
      <point x="553.35" y="130.04999999999998" type="line"/>
    </contour>
    <contour>
      <point x="610.35" y="481.75" type="line"/>
      <point x="95.10000000000001" y="481.75" type="line"/>
      <point x="75.60000000000001" y="360.9" type="line"/>
      <point x="590.3000000000001" y="360.9" type="line"/>
    </contour>
  </outline>
</glyph>
<glyph name="greater" format="2">
  <advance width="638.9499999999999"/>
  <unicode hex="003E"/>
  <outline>
    <contour>
      <point x="572.1" y="243.25" type="line"/>
      <point x="591.6" y="365.0" type="line"/>
      <point x="109.9" y="562.8" type="line"/>
      <point x="88.75" y="440.6" type="line"/>
      <point x="446.3" y="304.95000000000005" type="line"/>
      <point x="45.550000000000004" y="169.65" type="line"/>
      <point x="24.95" y="42.599999999999994" type="line"/>
    </contour>
  </outline>
</glyph>
<glyph name="question" format="2">
  <advance width="675.6500000000001"/>
  <unicode hex="003F"/>
  <outline>
    <contour>
      <point x="240.95" y="260.34999999999997" type="line"/>
      <point x="375.1" y="260.34999999999997" type="line"/>
      <point x="385.55" y="313.8" type="line"/>
      <point x="564.6" y="360.7"/>
      <point x="688.15" y="416.45000000000005"/>
      <point x="688.15" y="566.7" type="curve" smooth="yes"/>
      <point x="688.15" y="697.4499999999999"/>
      <point x="552.3" y="750.0"/>
      <point x="412.54999999999995" y="750.0" type="curve" smooth="yes"/>
      <point x="304.65" y="750.0"/>
      <point x="169.4" y="720.45"/>
      <point x="75.0" y="668.65" type="curve"/>
      <point x="94.1" y="556.1999999999999" type="line"/>
      <point x="187.04999999999998" y="598.6999999999999"/>
      <point x="283.3" y="624.55"/>
      <point x="379.95000000000005" y="624.55" type="curve" smooth="yes"/>
      <point x="455.84999999999997" y="624.55"/>
      <point x="523.95" y="614.1999999999999"/>
      <point x="523.95" y="539.3" type="curve" smooth="yes"/>
      <point x="523.95" y="477.3"/>
      <point x="485.34999999999997" y="435.6"/>
      <point x="258.0" y="394.04999999999995" type="curve"/>
    </contour>
    <contour>
      <point x="188.85000000000002" y="47.050000000000004" type="curve" smooth="yes"/>
      <point x="189.3" y="11.000000000000002"/>
      <point x="211.54999999999998" y="-5.500000000000001"/>
      <point x="268.40000000000003" y="-5.500000000000001" type="curve" smooth="yes"/>
      <point x="331.6" y="-5.500000000000001"/>
      <point x="373.6" y="14.750000000000004"/>
      <point x="372.25" y="82.75" type="curve" smooth="yes"/>
      <point x="371.8" y="118.80000000000001"/>
      <point x="349.09999999999997" y="135.29999999999998"/>
      <point x="293.25" y="135.29999999999998" type="curve" smooth="yes"/>
      <point x="227.75" y="135.29999999999998"/>
      <point x="187.5" y="113.2"/>
    </contour>
  </outline>
</glyph>
<glyph name="at" format="2">
  <advance width="1056.8"/>
  <unicode hex="0040"/>
  <outline>
    <contour>
      <point x="441.6000000000001" y="-121.1" type="curve" smooth="yes"/>
      <point x="528.2" y="-121.1"/>
      <point x="604.9" y="-105.80000000000001"/>
      <point x="688.3" y="-75.7" type="curve"/>
      <point x="678.1999999999999" y="-2.8999999999999986" type="line"/>
      <point x="597.0" y="-28.89999999999999"/>
      <point x="513.9000000000001" y="-40.39999999999998"/>
      <point x="449.9" y="-40.39999999999998" type="curve" smooth="yes"/>
      <point x="255.0" y="-40.39999999999998"/>
      <point x="138.3" y="63.3"/>
      <point x="138.3" y="226.7" type="curve" smooth="yes"/>
      <point x="138.3" y="460.80000000000007"/>
      <point x="335.09999999999997" y="641.1999999999999"/>
      <point x="594.9" y="641.1999999999999" type="curve" smooth="yes"/>
      <point x="811.3" y="641.1999999999999"/>
      <point x="930.1999999999999" y="542.7"/>
      <point x="930.1999999999999" y="369.20000000000005" type="curve" smooth="yes"/>
      <point x="930.1999999999999" y="245.8"/>
      <point x="873.2999999999998" y="148.5"/>
      <point x="807.6" y="148.5" type="curve" smooth="yes"/>
      <point x="764.9" y="148.5"/>
      <point x="750.9" y="183.2"/>
      <point x="764.4999999999999" y="247.2" type="curve" smooth="yes"/>
      <point x="817.3999999999999" y="490.9" type="line"/>
      <point x="749.6" y="515.0000000000001"/>
      <point x="657.0000000000001" y="531.2"/>
      <point x="594.5999999999999" y="531.2" type="curve" smooth="yes"/>
      <point x="392.6" y="531.2"/>
      <point x="246.8" y="403.8"/>
      <point x="246.8" y="237.99999999999997" type="curve" smooth="yes"/>
      <point x="246.8" y="124.20000000000002"/>
      <point x="311.6" y="65.60000000000001"/>
      <point x="422.80000000000007" y="65.60000000000001" type="curve" smooth="yes"/>
      <point x="510.70000000000005" y="65.60000000000001"/>
      <point x="594.1" y="112.7"/>
      <point x="637.5" y="170.79999999999998" type="curve"/>
      <point x="646.2" y="91.10000000000001"/>
      <point x="706.5" y="57.3"/>
      <point x="778.5999999999999" y="57.3" type="curve" smooth="yes"/>
      <point x="925.3" y="57.3"/>
      <point x="1019.3" y="198.39999999999998"/>
      <point x="1019.3" y="373.49999999999994" type="curve" smooth="yes"/>
      <point x="1019.3" y="587.9000000000001"/>
      <point x="863.4000000000001" y="720.8000000000001"/>
      <point x="612.7" y="720.8000000000001" type="curve" smooth="yes"/>
      <point x="285.3" y="720.8000000000001"/>
      <point x="48.0" y="510.1000000000001"/>
      <point x="48.0" y="219.59999999999997" type="curve" smooth="yes"/>
      <point x="48.0" y="10.900000000000006"/>
      <point x="201.29999999999998" y="-121.1"/>
    </contour>
    <contour>
      <point x="490.7" y="174.2" type="curve" smooth="yes"/>
      <point x="427.7" y="174.2"/>
      <point x="395.8" y="206.3"/>
      <point x="395.8" y="263.7" type="curve" smooth="yes"/>
      <point x="395.8" y="357.79999999999995"/>
      <point x="469.80000000000007" y="426.6"/>
      <point x="567.2" y="426.6" type="curve" smooth="yes"/>
      <point x="608.3999999999999" y="426.6"/>
      <point x="634.4000000000001" y="422.7"/>
      <point x="667.3000000000001" y="411.00000000000006" type="curve"/>
      <point x="633.1" y="262.2" type="line" smooth="yes"/>
      <point x="609.0999999999999" y="212.7"/>
      <point x="549.4" y="174.2"/>
    </contour>
  </outline>
</glyph>
<glyph name="A" format="2">
  <advance width="970.6500000000001"/>
  <unicode hex="0041"/>
  <anchor x="441.994" y="0.0" name="bottom"/>
  <anchor x="919.25" y="0.0" name="ogonek"/>
  <anchor x="556.8499999999999" y="700.0" name="top"/>
  <outline>
    <contour>
      <point x="-36.6" y="0.0" type="line"/>
      <point x="159.0" y="0.0" type="line"/>
      <point x="262.2" y="155.45" type="line"/>
      <point x="670.9" y="155.45" type="line"/>
      <point x="726.3" y="0.0" type="line"/>
      <point x="919.25" y="0.0" type="line"/>
      <point x="642.15" y="710.0" type="line"/>
      <point x="467.7" y="710.0" type="line"/>
    </contour>
    <contour>
      <point x="329.0" y="268.5" type="line"/>
      <point x="535.05" y="568.05" type="line"/>
      <point x="643.0999999999999" y="268.5" type="line"/>
    </contour>
  </outline>
</glyph>
<glyph name="B" format="2">
  <advance width="999.0999999999999"/>
  <unicode hex="0042"/>
  <outline>
    <contour>
      <point x="58.7" y="5.0" type="line"/>
      <point x="268.6" y="-5.799999999999999"/>
      <point x="342.59999999999997" y="-10.0"/>
      <point x="484.90000000000003" y="-10.0" type="curve" smooth="yes"/>
      <point x="679.6" y="-10.0"/>
      <point x="950.6" y="-6.300000000000011"/>
      <point x="950.6" y="228.1" type="curve" smooth="yes"/>
      <point x="950.6" y="311.5"/>
      <point x="884.6999999999999" y="369.9"/>
      <point x="793.8" y="381.20000000000005" type="curve"/>
      <point x="860.8" y="406.8"/>
      <point x="947.5" y="446.5"/>
      <point x="947.5" y="553.8000000000001" type="curve" smooth="yes"/>
      <point x="947.5" y="660.6"/>
      <point x="842.6999999999999" y="710.0"/>
      <point x="581.5" y="710.0" type="curve" smooth="yes"/>
      <point x="486.5" y="710.0"/>
      <point x="369.09999999999997" y="706.0"/>
      <point x="170.89999999999998" y="695.0" type="curve"/>
    </contour>
    <contour>
      <point x="298.3" y="408.8" type="line"/>
      <point x="324.5" y="579.1" type="line"/>
      <point x="413.8" y="583.9000000000001"/>
      <point x="469.4" y="588.5"/>
      <point x="551.3" y="588.5" type="curve" smooth="yes"/>
      <point x="708.0" y="588.5"/>
      <point x="768.0000000000001" y="566.2"/>
      <point x="768.0000000000001" y="504.5" type="curve" smooth="yes"/>
      <point x="768.0000000000001" y="427.9"/>
      <point x="668.8999999999999" y="408.8"/>
      <point x="613.3" y="408.8" type="curve" smooth="yes"/>
    </contour>
    <contour>
      <point x="280.0" y="306.80000000000007" type="line"/>
      <point x="592.6999999999999" y="306.80000000000007" type="line" smooth="yes"/>
      <point x="687.5999999999999" y="306.80000000000007"/>
      <point x="767.7" y="289.7"/>
      <point x="767.7" y="223.89999999999998" type="curve" smooth="yes"/>
      <point x="767.7" y="115.20000000000002"/>
      <point x="640.3" y="107.9"/>
      <point x="486.30000000000007" y="107.9" type="curve" smooth="yes"/>
      <point x="406.7" y="107.9"/>
      <point x="334.3" y="112.60000000000001"/>
      <point x="250.1" y="116.4" type="curve"/>
    </contour>
  </outline>
</glyph>
<glyph name="C" format="2">
  <advance width="996.1999999999999"/>
  <unicode hex="0043"/>
  <anchor x="533.3" y="0.0" name="bottom"/>
  <anchor x="627.0999999999999" y="700.0" name="top"/>
  <outline>
    <contour>
      <point x="569.0999999999999" y="-10.0" type="curve" smooth="yes"/>
      <point x="692.9000000000001" y="-10.0"/>
      <point x="802.3000000000001" y="4.8"/>
      <point x="914.3" y="34.3" type="curve"/>
      <point x="898.4" y="157.0" type="line"/>
      <point x="802.8" y="134.79999999999998"/>
      <point x="706.5000000000001" y="117.9"/>
      <point x="591.9" y="117.9" type="curve" smooth="yes"/>
      <point x="373.99999999999994" y="117.9"/>
      <point x="249.40000000000003" y="179.6"/>
      <point x="249.40000000000003" y="324.2" type="curve" smooth="yes"/>
      <point x="249.40000000000003" y="491.09999999999997"/>
      <point x="381.7" y="582.0999999999999"/>
      <point x="612.7" y="582.0999999999999" type="curve" smooth="yes"/>
      <point x="726.9" y="582.0999999999999"/>
      <point x="841.9" y="561.4"/>
      <point x="936.1" y="536.0" type="curve"/>
      <point x="972.8" y="657.4" type="line"/>
      <point x="845.0000000000001" y="698.0000000000001"/>
      <point x="728.8" y="710.0"/>
      <point x="600.3" y="710.0" type="curve" smooth="yes"/>
      <point x="266.5" y="710.0"/>
      <point x="68.8" y="562.5"/>
      <point x="68.8" y="308.79999999999995" type="curve" smooth="yes"/>
      <point x="68.8" y="89.69999999999999"/>
      <point x="242.3" y="-10.0"/>
    </contour>
  </outline>
</glyph>
<glyph name="D" format="2">
  <advance width="1078.3999999999999"/>
  <unicode hex="0044"/>
  <anchor x="478.3" y="0.0" name="bottom"/>
  <anchor x="538.8879" y="350.0" name="center"/>
  <anchor x="546.1" y="700.0" name="top"/>
  <outline>
    <contour>
      <point x="470.7" y="-10.0" type="curve" smooth="yes"/>
      <point x="809.5" y="-10.0"/>
      <point x="1031.6000000000001" y="110.2"/>
      <point x="1031.6000000000001" y="378.5" type="curve" smooth="yes"/>
      <point x="1031.6000000000001" y="627.3000000000001"/>
      <point x="833.7" y="710.0"/>
      <point x="531.7" y="710.0" type="curve" smooth="yes"/>
      <point x="417.79999999999995" y="710.0"/>
      <point x="302.90000000000003" y="707.0"/>
      <point x="170.89999999999998" y="700.0" type="curve"/>
      <point x="57.7" y="0.0" type="line"/>
      <point x="189.29999999999998" y="-7.8"/>
      <point x="294.5" y="-10.0"/>
    </contour>
    <contour>
      <point x="483.40000000000003" y="105.70000000000002" type="curve" smooth="yes"/>
      <point x="386.8" y="105.70000000000002"/>
      <point x="329.90000000000003" y="107.80000000000001"/>
      <point x="249.20000000000002" y="112.50000000000001" type="curve"/>
      <point x="325.6" y="588.6000000000001" type="line"/>
      <point x="373.40000000000003" y="592.5"/>
      <point x="453.2" y="595.3"/>
      <point x="539.5" y="595.3" type="curve" smooth="yes"/>
      <point x="707.0" y="595.3"/>
      <point x="853.2" y="543.3000000000001"/>
      <point x="853.2" y="369.8" type="curve" smooth="yes"/>
      <point x="853.2" y="188.89999999999998"/>
      <point x="704.2" y="105.70000000000002"/>
    </contour>
  </outline>
</glyph>
<glyph name="E" format="2">
  <advance width="936.8"/>
  <unicode hex="0045"/>
  <anchor x="450.7" y="0.0" name="bottom"/>
  <anchor x="843.6999999999999" y="0.0" name="ogonek"/>
  <anchor x="546.5000000000001" y="700.0" name="top"/>
  <anchor x="100.53129999999999" y="700.0" name="topleft"/>
  <outline>
    <contour>
      <point x="57.7" y="0.0" type="line"/>
      <point x="843.6999999999999" y="0.0" type="line"/>
      <point x="866.0" y="133.0" type="line"/>
      <point x="247.9" y="133.0" type="line"/>
      <point x="274.0" y="298.8" type="line"/>
      <point x="834.2" y="298.8" type="line"/>
      <point x="855.2" y="425.7" type="line"/>
      <point x="294.1" y="425.7" type="line"/>
      <point x="316.59999999999997" y="566.9999999999999" type="line"/>
      <point x="907.6" y="566.9999999999999" type="line"/>
      <point x="929.9" y="700.0" type="line"/>
      <point x="170.89999999999998" y="700.0" type="line"/>
    </contour>
  </outline>
</glyph>
<glyph name="F" format="2">
  <advance width="890.3000000000001"/>
  <unicode hex="0046"/>
  <outline>
    <contour>
      <point x="57.7" y="0.0" type="line"/>
      <point x="230.8" y="0.0" type="line"/>
      <point x="268.7" y="229.09999999999997" type="line"/>
      <point x="782.1000000000001" y="229.09999999999997" type="line"/>
      <point x="802.7" y="362.6" type="line"/>
      <point x="290.2" y="362.6" type="line"/>
      <point x="321.40000000000003" y="565.4999999999999" type="line"/>
      <point x="902.8" y="565.4999999999999" type="line"/>
      <point x="925.4000000000001" y="700.0" type="line"/>
      <point x="170.89999999999998" y="700.0" type="line"/>
    </contour>
  </outline>
</glyph>
<glyph name="G" format="2">
  <advance width="1021.95"/>
  <unicode hex="0047"/>
  <anchor x="509.4" y="0.0" name="bottom"/>
  <anchor x="627.5500000000001" y="700.0" name="top"/>
  <outline>
    <contour>
      <point x="521.5" y="-10.0" type="curve" smooth="yes"/>
      <point x="700.5" y="-10.0"/>
      <point x="827.8" y="22.3"/>
      <point x="913.4000000000001" y="55.300000000000004" type="curve"/>
      <point x="965.9499999999999" y="374.45" type="line"/>
      <point x="566.9" y="374.45" type="line"/>
      <point x="549.05" y="264.7" type="line"/>
      <point x="795.4499999999999" y="264.7" type="line"/>
      <point x="775.9499999999999" y="142.55" type="line"/>
      <point x="725.55" y="121.75000000000001"/>
      <point x="651.25" y="106.9"/>
      <point x="558.5" y="106.9" type="curve" smooth="yes"/>
      <point x="371.7" y="106.9"/>
      <point x="244.75" y="173.75"/>
      <point x="244.75" y="317.7" type="curve" smooth="yes"/>
      <point x="244.75" y="493.90000000000003"/>
      <point x="387.79999999999995" y="583.75"/>
      <point x="628.15" y="583.75" type="curve" smooth="yes"/>
      <point x="742.85" y="583.75"/>
      <point x="829.15" y="570.75"/>
      <point x="929.5" y="546.0" type="curve"/>
      <point x="980.05" y="665.8499999999999" type="line"/>
      <point x="868.25" y="696.85"/>
      <point x="753.95" y="710.0"/>
      <point x="621.7" y="710.0" type="curve" smooth="yes"/>
      <point x="269.2" y="710.0"/>
      <point x="67.9" y="570.0500000000001"/>
      <point x="67.9" y="302.25" type="curve" smooth="yes"/>
      <point x="67.9" y="96.75"/>
      <point x="249.25" y="-10.0"/>
    </contour>
  </outline>
</glyph>
<glyph name="H" format="2">
  <advance width="1092.1499999999999"/>
  <unicode hex="0048"/>
  <anchor x="502.744" y="0.0" name="bottom"/>
  <anchor x="558.179" y="350.0" name="center"/>
  <anchor x="613.6129999999999" y="700.0" name="top"/>
  <anchor x="87.313" y="700.0" name="topleft"/>
  <outline>
    <contour>
      <point x="57.25" y="0.0" type="line"/>
      <point x="230.8" y="0.0" type="line"/>
      <point x="270.2" y="249.20000000000002" type="line"/>
      <point x="816.6" y="249.20000000000002" type="line"/>
      <point x="776.1" y="0.0" type="line"/>
      <point x="944.6999999999999" y="0.0" type="line"/>
      <point x="1057.8999999999999" y="700.0" type="line"/>
      <point x="889.8499999999999" y="700.0" type="line"/>
      <point x="838.3" y="384.79999999999995" type="line"/>
      <point x="291.90000000000003" y="384.79999999999995" type="line"/>
      <point x="344.0" y="700.0" type="line"/>
      <point x="170.45" y="700.0" type="line"/>
    </contour>
  </outline>
</glyph>
<glyph name="I" format="2">
  <advance width="378.25"/>
  <unicode hex="0049"/>
  <anchor x="145.5498" y="0.0" name="bottom"/>
  <anchor x="230.8" y="0.0" name="ogonek"/>
  <anchor x="256.49085" y="700.0" name="top"/>
  <anchor x="100.5" y="700.0" name="topleft"/>
  <outline>
    <contour>
      <point x="57.25" y="0.0" type="line"/>
      <point x="230.8" y="0.0" type="line"/>
      <point x="344.0" y="700.0" type="line"/>
      <point x="170.45" y="700.0" type="line"/>
    </contour>
  </outline>
</glyph>
<glyph name="J" format="2">
  <advance width="804.5"/>
  <unicode hex="004A"/>
  <anchor x="355.2" y="0.0" name="bottom"/>
  <anchor x="471.70000000000005" y="700.0" name="top"/>
  <outline>
    <contour>
      <point x="-12.15" y="39.35" type="line"/>
      <point x="88.4" y="10.200000000000003"/>
      <point x="198.15" y="-10.0"/>
      <point x="328.09999999999997" y="-10.0" type="curve" smooth="yes"/>
      <point x="552.95" y="-10.0"/>
      <point x="681.0" y="80.44999999999999"/>
      <point x="716.65" y="292.05" type="curve" smooth="yes"/>
      <point x="783.65" y="700.0" type="line"/>
      <point x="162.75" y="700.0" type="line"/>
      <point x="139.95" y="563.3000000000001" type="line"/>
      <point x="587.3000000000001" y="563.3000000000001" type="line"/>
      <point x="547.0500000000001" y="310.2" type="line" smooth="yes"/>
      <point x="525.8499999999999" y="174.75"/>
      <point x="438.25" y="121.75000000000001"/>
      <point x="314.05" y="121.75000000000001" type="curve" smooth="yes"/>
      <point x="211.75" y="121.75000000000001"/>
      <point x="128.95" y="144.05"/>
      <point x="33.0" y="169.89999999999998" type="curve"/>
    </contour>
  </outline>
</glyph>
<glyph name="K" format="2">
  <advance width="992.3"/>
  <unicode hex="004B"/>
  <anchor x="466.8" y="0.0" name="bottom"/>
  <anchor x="562.4" y="700.0" name="top"/>
  <outline>
    <contour>
      <point x="57.699999999999996" y="0.0" type="line"/>
      <point x="230.79999999999998" y="0.0" type="line"/>
      <point x="344.00000000000006" y="700.0" type="line"/>
      <point x="172.0" y="700.0" type="line"/>
    </contour>
    <contour>
      <point x="886.6999999999999" y="-10.0" type="curve" smooth="yes"/>
      <point x="894.1" y="-10.0"/>
      <point x="918.8000000000001" y="-8.899999999999999"/>
      <point x="927.1" y="-6.8" type="curve"/>
      <point x="947.9000000000001" y="130.00000000000003" type="line"/>
      <point x="939.5" y="129.9"/>
      <point x="932.0999999999999" y="129.9"/>
      <point x="924.8" y="129.9" type="curve" smooth="yes"/>
      <point x="861.5" y="129.9"/>
      <point x="812.1000000000001" y="152.70000000000002"/>
      <point x="719.3" y="207.0" type="curve" smooth="yes"/>
      <point x="276.70000000000005" y="466.0" type="line"/>
      <point x="255.4" y="318.50000000000006" type="line"/>
      <point x="616.8" y="92.6" type="line" smooth="yes"/>
      <point x="726.4" y="23.599999999999994"/>
      <point x="811.5000000000001" y="-10.0"/>
    </contour>
    <contour>
      <point x="479.69999999999993" y="302.09999999999997" type="line"/>
      <point x="646.8" y="349.5"/>
      <point x="881.6" y="475.70000000000005"/>
      <point x="1003.9" y="617.7000000000002" type="curve"/>
      <point x="896.3000000000001" y="715.4" type="line"/>
      <point x="741.0" y="556.8000000000001"/>
      <point x="524.3000000000001" y="441.1000000000001"/>
      <point x="362.1" y="379.40000000000003" type="curve"/>
    </contour>
  </outline>
</glyph>
<glyph name="L" format="2">
  <advance width="858.0500000000001"/>
  <unicode hex="004C"/>
  <anchor x="422.15" y="0.0" name="bottom"/>
  <anchor x="441.129" y="350.0" name="center"/>
  <anchor x="257.0" y="700.0" name="top"/>
  <anchor x="596.25" y="700.0" name="topright"/>
  <outline>
    <contour>
      <point x="57.25" y="0.0" type="line"/>
      <point x="786.6" y="0.0" type="line"/>
      <point x="809.95" y="132.3" type="line"/>
      <point x="253.05" y="132.3" type="line"/>
      <point x="344.0" y="700.0" type="line"/>
      <point x="170.45" y="700.0" type="line"/>
    </contour>
  </outline>
</glyph>
<glyph name="M" format="2">
  <advance width="1207.45"/>
  <unicode hex="004D"/>
  <outline>
    <contour>
      <point x="57.25" y="0.0" type="line"/>
      <point x="221.25" y="0.0" type="line"/>
      <point x="299.65" y="501.09999999999997" type="line"/>
      <point x="549.7" y="181.34999999999997" type="line"/>
      <point x="624.8" y="181.34999999999997" type="line"/>
      <point x="981.35" y="508.35" type="line"/>
      <point x="899.1" y="0.0" type="line"/>
      <point x="1060.0" y="0.0" type="line"/>
      <point x="1173.2" y="700.0" type="line"/>
      <point x="995.35" y="700.0" type="line"/>
      <point x="606.95" y="328.29999999999995" type="line"/>
      <point x="337.5" y="700.0" type="line"/>
      <point x="170.45" y="700.0" type="line"/>
    </contour>
  </outline>
</glyph>
<glyph name="N" format="2">
  <advance width="1051.8"/>
  <unicode hex="004E"/>
  <anchor x="477.69419999999997" y="0.0" name="bottom"/>
  <anchor x="594.4721499999999" y="700.0" name="top"/>
  <outline>
    <contour>
      <point x="57.25" y="0.0" type="line"/>
      <point x="215.3" y="0.0" type="line"/>
      <point x="294.15" y="492.59999999999997" type="line"/>
      <point x="753.45" y="-4.5" type="line"/>
      <point x="902.9" y="-4.5" type="line"/>
      <point x="1017.55" y="700.0" type="line"/>
      <point x="859.5" y="700.0" type="line"/>
      <point x="778.45" y="195.95000000000002" type="line"/>
      <point x="321.34999999999997" y="704.5" type="line"/>
      <point x="171.9" y="704.5" type="line"/>
    </contour>
  </outline>
</glyph>
<glyph name="O" format="2">
  <advance width="1111.5000000000002"/>
  <unicode hex="004F"/>
  <note>
8
</note>
  <anchor x="511.29999999999995" y="0.0" name="bottom"/>
  <anchor x="567.3000000000001" y="350.0" name="center"/>
  <anchor x="629.5" y="-1.0" name="ogonek"/>
  <anchor x="608.9" y="700.0" name="top"/>
  <anchor x="90.10000000000001" y="700.0" name="topleft"/>
  <anchor x="922.8" y="671.6999999999999" name="topright"/>
  <outline>
    <contour>
      <point x="549.6" y="-10.0" type="curve" smooth="yes"/>
      <point x="877.5" y="-10.0"/>
      <point x="1064.9" y="131.2"/>
      <point x="1064.9" y="386.5" type="curve" smooth="yes"/>
      <point x="1064.9" y="596.0999999999999"/>
      <point x="914.1" y="710.9"/>
      <point x="584.9" y="710.9" type="curve" smooth="yes"/>
      <point x="257.0" y="710.9"/>
      <point x="69.60000000000001" y="569.6999999999999"/>
      <point x="69.60000000000001" y="314.40000000000003" type="curve" smooth="yes"/>
      <point x="69.60000000000001" y="104.8"/>
      <point x="220.39999999999998" y="-10.0"/>
    </contour>
    <contour>
      <point x="557.3000000000001" y="106.80000000000001" type="curve" smooth="yes"/>
      <point x="341.4" y="106.80000000000001"/>
      <point x="244.89999999999998" y="183.1"/>
      <point x="244.89999999999998" y="324.1" type="curve" smooth="yes"/>
      <point x="244.89999999999998" y="499.4"/>
      <point x="366.3" y="594.1"/>
      <point x="577.2" y="594.1" type="curve" smooth="yes"/>
      <point x="793.0999999999999" y="594.1"/>
      <point x="889.6" y="517.8"/>
      <point x="889.6" y="376.8" type="curve" smooth="yes"/>
      <point x="889.6" y="201.50000000000006"/>
      <point x="768.2" y="106.80000000000001"/>
    </contour>
  </outline>
</glyph>
<glyph name="P" format="2">
  <advance width="1021.3499999999999"/>
  <unicode hex="0050"/>
  <outline>
    <contour>
      <point x="57.25" y="0.0" type="line"/>
      <point x="230.25" y="0.0" type="line"/>
      <point x="264.20000000000005" y="204.35" type="line"/>
      <point x="377.1" y="200.35"/>
      <point x="429.6" y="198.89999999999998"/>
      <point x="507.2" y="198.89999999999998" type="curve" smooth="yes"/>
      <point x="879.85" y="198.89999999999998"/>
      <point x="1009.8" y="276.4"/>
      <point x="1010.6999999999999" y="483.35" type="curve" smooth="yes"/>
      <point x="1011.15" y="656.15"/>
      <point x="884.5" y="710.0"/>
      <point x="563.7" y="710.0" type="curve" smooth="yes"/>
      <point x="506.50000000000006" y="710.0"/>
      <point x="403.05" y="707.45"/>
      <point x="171.0" y="700.0" type="curve"/>
    </contour>
    <contour>
      <point x="325.05" y="582.0" type="line"/>
      <point x="457.5" y="587.35"/>
      <point x="502.25" y="588.7"/>
      <point x="573.9" y="588.7" type="curve" smooth="yes"/>
      <point x="765.75" y="588.7"/>
      <point x="830.55" y="560.15"/>
      <point x="830.55" y="472.29999999999995" type="curve" smooth="yes"/>
      <point x="830.55" y="366.5"/>
      <point x="759.05" y="322.4"/>
      <point x="501.75" y="322.4" type="curve" smooth="yes"/>
      <point x="432.15000000000003" y="322.4"/>
      <point x="383.0" y="324.3"/>
      <point x="284.8" y="327.85" type="curve"/>
    </contour>
  </outline>
</glyph>
<glyph name="Q" format="2">
  <advance width="1107.8999999999999"/>
  <unicode hex="0051"/>
  <note>
14
</note>
  <outline>
    <contour>
      <point x="788.5500000000001" y="-215.60000000000002" type="curve" smooth="yes"/>
      <point x="842.1" y="-215.60000000000002"/>
      <point x="889.65" y="-204.55"/>
      <point x="938.25" y="-184.6" type="curve"/>
      <point x="934.65" y="-63.099999999999994" type="line"/>
      <point x="904.9" y="-78.45"/>
      <point x="875.3" y="-84.94999999999999"/>
      <point x="840.9" y="-84.94999999999999" type="curve" smooth="yes"/>
      <point x="768.75" y="-84.94999999999999"/>
      <point x="700.6" y="-39.199999999999996"/>
      <point x="671.1999999999999" y="25.25" type="curve"/>
      <point x="510.4" y="2.6000000000000005" type="line"/>
      <point x="559.7" y="-143.6"/>
      <point x="661.45" y="-215.60000000000002"/>
    </contour>
    <component base="O"/>
  </outline>
</glyph>
<glyph name="R" format="2">
  <advance width="1063.7"/>
  <unicode hex="0052"/>
  <anchor x="512.9000000000001" y="0.0" name="bottom"/>
  <anchor x="551.3000000000001" y="700.0" name="top"/>
  <outline>
    <contour>
      <point x="57.7" y="0.0" type="line"/>
      <point x="231.7" y="0.0" type="line"/>
      <point x="271.9" y="245.49999999999997" type="line"/>
      <point x="382.0" y="242.69999999999996"/>
      <point x="483.9000000000001" y="241.7"/>
      <point x="605.7" y="241.6" type="curve"/>
      <point x="667.4" y="249.6" type="line"/>
      <point x="874.9" y="250.5"/>
      <point x="996.8" y="353.9"/>
      <point x="996.8" y="505.20000000000005" type="curve" smooth="yes"/>
      <point x="996.8" y="639.9999999999999"/>
      <point x="895.5999999999999" y="710.0"/>
      <point x="563.4" y="710.0" type="curve" smooth="yes"/>
      <point x="475.8" y="710.0"/>
      <point x="354.9" y="707.9000000000001"/>
      <point x="170.89999999999998" y="700.9" type="curve"/>
    </contour>
    <contour>
      <point x="966.1999999999999" y="-10.0" type="curve" smooth="yes"/>
      <point x="973.5999999999999" y="-10.0"/>
      <point x="996.1" y="-9.899999999999999"/>
      <point x="1003.3" y="-8.899999999999999" type="curve"/>
      <point x="1023.3" y="127.70000000000002" type="line"/>
      <point x="1017.2" y="126.70000000000002"/>
      <point x="1004.6999999999999" y="126.70000000000002"/>
      <point x="998.4000000000001" y="126.70000000000002" type="curve" smooth="yes"/>
      <point x="919.8" y="126.7"/>
      <point x="790.6999999999999" y="213.8"/>
      <point x="687.5" y="299.8" type="curve"/>
      <point x="497.29999999999995" y="261.40000000000003" type="line"/>
      <point x="662.4" y="131.8"/>
      <point x="814.3000000000001" y="-10.0"/>
    </contour>
    <contour>
      <point x="588.5" y="355.8" type="curve" smooth="yes"/>
      <point x="461.29999999999995" y="355.8"/>
      <point x="374.4" y="357.9"/>
      <point x="290.3" y="362.79999999999995" type="curve"/>
      <point x="325.50000000000006" y="589.5" type="line"/>
      <point x="433.6" y="594.4"/>
      <point x="460.70000000000005" y="595.3000000000001"/>
      <point x="555.8999999999999" y="595.3000000000001" type="curve" smooth="yes"/>
      <point x="761.0" y="595.3000000000001"/>
      <point x="813.9" y="566.9"/>
      <point x="813.9" y="488.50000000000006" type="curve" smooth="yes"/>
      <point x="813.9" y="392.40000000000003"/>
      <point x="724.5" y="355.8"/>
    </contour>
  </outline>
</glyph>
<glyph name="S" format="2">
  <advance width="948.5"/>
  <unicode hex="0053"/>
  <anchor x="459.0" y="0.0" name="bottom"/>
  <anchor x="541.0999999999999" y="700.0" name="top"/>
  <outline>
    <contour>
      <point x="907.7" y="665.0999999999999" type="line"/>
      <point x="782.2" y="696.5"/>
      <point x="682.1" y="710.0"/>
      <point x="559.9" y="710.0" type="curve" smooth="yes"/>
      <point x="242.89999999999998" y="710.0"/>
      <point x="95.1" y="632.1"/>
      <point x="95.1" y="485.79999999999995" type="curve" smooth="yes"/>
      <point x="95.1" y="200.49999999999997"/>
      <point x="711.8000000000001" y="340.09999999999997"/>
      <point x="711.8000000000001" y="198.2" type="curve" smooth="yes"/>
      <point x="711.8000000000001" y="144.5"/>
      <point x="639.4" y="108.2"/>
      <point x="481.7" y="108.2" type="curve" smooth="yes"/>
      <point x="331.4" y="108.2"/>
      <point x="174.20000000000002" y="138.70000000000002"/>
      <point x="44.6" y="180.00000000000003" type="curve"/>
      <point x="-5.400000000000003" y="56.89999999999999" type="line"/>
      <point x="127.2" y="17.299999999999997"/>
      <point x="284.3" y="-10.0"/>
      <point x="442.3" y="-10.0" type="curve" smooth="yes"/>
      <point x="770.3" y="-10.0"/>
      <point x="898.5999999999999" y="76.39999999999999"/>
      <point x="898.5999999999999" y="226.2" type="curve" smooth="yes"/>
      <point x="898.5999999999999" y="489.5"/>
      <point x="280.40000000000003" y="364.2"/>
      <point x="280.40000000000003" y="502.2" type="curve" smooth="yes"/>
      <point x="280.40000000000003" y="566.6999999999999"/>
      <point x="360.90000000000003" y="590.4"/>
      <point x="515.0000000000001" y="590.4" type="curve" smooth="yes"/>
      <point x="647.9000000000001" y="590.4"/>
      <point x="759.7" y="574.6"/>
      <point x="861.1999999999999" y="542.6" type="curve"/>
    </contour>
  </outline>
</glyph>
<glyph name="T" format="2">
  <advance width="900.5"/>
  <unicode hex="0054"/>
  <anchor x="406.25000000000006" y="0.0" name="bottom"/>
  <anchor x="462.19554999999997" y="350.0" name="center"/>
  <anchor x="517.39085" y="700.0" name="top"/>
  <outline>
    <contour>
      <point x="927.9000000000001" y="575.95" type="line"/>
      <point x="950.6999999999999" y="700.0" type="line"/>
      <point x="87.65" y="700.0" type="line"/>
      <point x="64.3" y="575.95" type="line"/>
      <point x="410.1" y="575.95" type="line"/>
      <point x="319.15" y="0.0" type="line"/>
      <point x="492.70000000000005" y="0.0" type="line"/>
      <point x="583.1" y="575.95" type="line"/>
    </contour>
  </outline>
</glyph>
<glyph name="U" format="2">
  <advance width="1065.7"/>
  <unicode hex="0055"/>
  <anchor x="489.5942" y="0.0" name="bottom"/>
  <anchor x="598.8000000000001" y="0.0" name="ogonek"/>
  <anchor x="598.72215" y="700.0" name="top"/>
  <anchor x="1043.75" y="700.0" name="topright"/>
  <outline>
    <contour>
      <point x="485.7" y="-10.0" type="curve" smooth="yes"/>
      <point x="785.05" y="-10.0"/>
      <point x="945.65" y="87.45"/>
      <point x="978.3" y="287.5" type="curve" smooth="yes"/>
      <point x="1044.8500000000001" y="700.0" type="line"/>
      <point x="875.15" y="700.0" type="line"/>
      <point x="810.9" y="305.1" type="line" smooth="yes"/>
      <point x="791.25" y="180.85"/>
      <point x="688.9" y="117.9"/>
      <point x="507.95" y="117.9" type="curve" smooth="yes"/>
      <point x="332.20000000000005" y="117.9"/>
      <point x="242.45" y="184.1"/>
      <point x="262.20000000000005" y="306.45" type="curve" smooth="yes"/>
      <point x="326.65" y="700.0" type="line"/>
      <point x="156.95" y="700.0" type="line"/>
      <point x="90.85" y="292.0" type="line" smooth="yes"/>
      <point x="86.85" y="263.0"/>
      <point x="85.85" y="247.9"/>
      <point x="85.85" y="233.79999999999998" type="curve" smooth="yes"/>
      <point x="85.85" y="72.05000000000001"/>
      <point x="220.95000000000002" y="-10.0"/>
    </contour>
  </outline>
</glyph>
<glyph name="V" format="2">
  <advance width="915.1"/>
  <unicode hex="0056"/>
  <outline>
    <contour>
      <point x="493.5" y="0.0" type="line"/>
      <point x="880.5" y="493.79999999999995"/>
      <point x="951.1999999999999" y="604.5"/>
      <point x="964.4000000000001" y="677.9" type="curve" smooth="yes"/>
      <point x="965.5" y="685.9"/>
      <point x="965.5999999999999" y="693.8000000000001"/>
      <point x="965.7" y="700.0" type="curve"/>
      <point x="775.3" y="700.0" type="line"/>
      <point x="776.2" y="694.3000000000001"/>
      <point x="777.2" y="688.5000000000001"/>
      <point x="777.2" y="679.1" type="curve" smooth="yes"/>
      <point x="777.2" y="587.5999999999999"/>
      <point x="679.9" y="454.6"/>
      <point x="431.9" y="148.4" type="curve"/>
      <point x="252.50000000000003" y="705.4000000000001" type="line"/>
      <point x="68.3" y="700.9" type="line"/>
      <point x="320.59999999999997" y="0.0" type="line"/>
    </contour>
  </outline>
</glyph>
<glyph name="W" format="2">
  <advance width="1247.1000000000001"/>
  <unicode hex="0057"/>
  <anchor x="570.3" y="0.0" name="bottom"/>
  <anchor x="691.3000000000001" y="700.0" name="top"/>
  <outline>
    <contour>
      <point x="953.6999999999999" y="0.0" type="line"/>
      <point x="1203.1000000000001" y="384.90000000000003"/>
      <point x="1291.6000000000001" y="603.7999999999998"/>
      <point x="1291.6" y="683.5999999999999" type="curve" smooth="yes"/>
      <point x="1291.6" y="688.9000000000001"/>
      <point x="1290.6" y="697.1"/>
      <point x="1289.7000000000003" y="700.0" type="curve"/>
      <point x="1128.8" y="700.0" type="line"/>
      <point x="1128.7" y="693.7"/>
      <point x="1128.6" y="687.3000000000001"/>
      <point x="1127.6" y="678.3000000000001" type="curve" smooth="yes"/>
      <point x="1118.7" y="573.6999999999999"/>
      <point x="1064.7" y="446.3000000000001"/>
      <point x="873.2" y="134.0" type="curve"/>
      <point x="790.7000000000002" y="658.3999999999999" type="line"/>
      <point x="591.3000000000001" y="658.3999999999999" type="line"/>
      <point x="511.90000000000003" y="484.7"/>
      <point x="427.1" y="320.90000000000003"/>
      <point x="329.2" y="134.1" type="curve"/>
      <point x="244.4" y="700.0" type="line"/>
      <point x="70.60000000000001" y="700.0" type="line"/>
      <point x="204.89999999999995" y="0.0" type="line"/>
      <point x="385.8" y="0.0" type="line"/>
      <point x="481.2999999999999" y="160.39999999999998"/>
      <point x="580.6999999999999" y="325.6"/>
      <point x="667.8" y="491.59999999999997" type="curve"/>
      <point x="757.8999999999999" y="0.0" type="line"/>
    </contour>
  </outline>
</glyph>
<glyph name="X" format="2">
  <advance width="916.9"/>
  <unicode hex="0058"/>
  <outline>
    <contour>
      <point x="661.0" y="-3.599999999999999" type="line"/>
      <point x="868.5" y="2.6999999999999993" type="line"/>
      <point x="578.4000000000001" y="345.8" type="line"/>
      <point x="768.1000000000001" y="482.70000000000005"/>
      <point x="898.0" y="580.0000000000001"/>
      <point x="942.6000000000001" y="700.9" type="curve"/>
      <point x="738.4" y="704.5" type="line"/>
      <point x="706.4" y="600.9"/>
      <point x="623.9" y="539.1999999999999"/>
      <point x="498.0" y="443.9000000000001" type="curve"/>
      <point x="300.4" y="703.6" type="line"/>
      <point x="97.4" y="697.3" type="line"/>
      <point x="365.9" y="380.2" type="line"/>
      <point x="168.5" y="245.90000000000003"/>
      <point x="29.099999999999994" y="123.69999999999996"/>
      <point x="-1.200000000000001" y="0.0" type="curve"/>
      <point x="200.20000000000002" y="0.0" type="line"/>
      <point x="226.20000000000002" y="106.89999999999998"/>
      <point x="316.7" y="190.8"/>
      <point x="444.4" y="280.2" type="curve"/>
    </contour>
  </outline>
</glyph>
<glyph name="Y" format="2">
  <advance width="879.5"/>
  <unicode hex="0059"/>
  <anchor x="390.9" y="0.0" name="bottom"/>
  <anchor x="513.5999999999999" y="700.0" name="top"/>
  <anchor x="76.0" y="700.0" name="topleft"/>
  <outline>
    <contour>
      <point x="323.7" y="0.0" type="line"/>
      <point x="494.6" y="0.0" type="line"/>
      <point x="538.9" y="259.29999999999995" type="line"/>
      <point x="821.7" y="511.70000000000005"/>
      <point x="890.6999999999999" y="584.3000000000001"/>
      <point x="923.5" y="666.5" type="curve" smooth="yes"/>
      <point x="928.3" y="677.3000000000001"/>
      <point x="932.1" y="688.2"/>
      <point x="935.9" y="700.0" type="curve"/>
      <point x="750.6" y="704.5" type="line"/>
      <point x="746.9000000000001" y="691.8000000000001"/>
      <point x="743.1" y="681.1000000000001"/>
      <point x="738.4" y="669.5" type="curve" smooth="yes"/>
      <point x="703.3" y="578.3000000000001"/>
      <point x="651.5999999999999" y="529.8"/>
      <point x="463.2" y="369.90000000000003" type="curve"/>
      <point x="250.10000000000002" y="704.5" type="line"/>
      <point x="62.5" y="699.1000000000001" type="line"/>
      <point x="366.0" y="259.29999999999995" type="line"/>
    </contour>
  </outline>
</glyph>
<glyph name="Z" format="2">
  <advance width="917.1999999999999"/>
  <unicode hex="005A"/>
  <anchor x="418.7" y="0.0" name="bottom"/>
  <anchor x="468.40000000000003" y="350.0" name="center"/>
  <anchor x="517.9" y="700.0" name="top"/>
  <outline>
    <contour>
      <point x="-6.300000000000002" y="0.0" type="line"/>
      <point x="842.4" y="0.0" type="line"/>
      <point x="861.9" y="120.1" type="line"/>
      <point x="259.8" y="120.1" type="line"/>
      <point x="902.1000000000001" y="592.6" type="line"/>
      <point x="919.5" y="700.0" type="line"/>
      <point x="139.70000000000002" y="700.0" type="line"/>
      <point x="120.2" y="579.8999999999999" type="line"/>
      <point x="662.0" y="579.8999999999999" type="line"/>
      <point x="11.100000000000001" y="107.30000000000001" type="line"/>
    </contour>
  </outline>
</glyph>
<glyph name="bracketleft" format="2">
  <advance width="482.0"/>
  <unicode hex="005B"/>
  <outline>
    <contour>
      <point x="182.0" y="-115.0" type="line"/>
      <point x="302.8" y="645.45" type="line"/>
      <point x="509.75000000000006" y="645.45" type="line"/>
      <point x="524.8499999999999" y="740.0" type="line"/>
      <point x="195.5" y="740.0" type="line"/>
      <point x="45.05" y="-210.0" type="line"/>
      <point x="373.84999999999997" y="-210.0" type="line"/>
      <point x="388.95000000000005" y="-115.0" type="line"/>
    </contour>
  </outline>
</glyph>
<glyph name="backslash" format="2">
  <advance width="488.2"/>
  <unicode hex="005C"/>
  <outline>
    <contour>
      <point x="201.55" y="740.0" type="line"/>
      <point x="85.3" y="740.0" type="line"/>
      <point x="310.9" y="-210.0" type="line"/>
      <point x="427.15000000000003" y="-210.0" type="line"/>
    </contour>
  </outline>
</glyph>
<glyph name="bracketright" format="2">
  <advance width="482.0"/>
  <unicode hex="005D"/>
  <outline>
    <contour>
      <point x="-30.299999999999997" y="-115.0" type="line"/>
      <point x="-44.85" y="-210.0" type="line"/>
      <point x="283.5" y="-210.0" type="line"/>
      <point x="434.5" y="740.0" type="line"/>
      <point x="105.14999999999999" y="740.0" type="line"/>
      <point x="90.05" y="645.0" type="line"/>
      <point x="297.0" y="645.0" type="line"/>
      <point x="176.2" y="-115.0" type="line"/>
    </contour>
  </outline>
</glyph>
<glyph name="asciicircum" format="2">
  <advance width="635.85"/>
  <unicode hex="005E"/>
  <outline>
    <contour>
      <point x="43.05" y="235.29999999999998" type="line"/>
      <point x="172.95" y="235.29999999999998" type="line"/>
      <point x="360.59999999999997" y="560.6999999999999" type="line"/>
      <point x="450.59999999999997" y="235.29999999999998" type="line"/>
      <point x="579.6" y="235.29999999999998" type="line"/>
      <point x="452.35" y="704.5" type="line"/>
      <point x="321.05" y="704.5" type="line"/>
    </contour>
  </outline>
</glyph>
<glyph name="underscore" format="2">
  <advance width="988.6"/>
  <unicode hex="005F"/>
  <outline>
    <contour>
      <point x="-50.24999999999999" y="-176.70000000000002" type="line"/>
      <point x="895.65" y="-176.70000000000002" type="line"/>
      <point x="911.8499999999999" y="-76.2" type="line"/>
      <point x="-34.05" y="-76.2" type="line"/>
    </contour>
  </outline>
</glyph>
<glyph name="a" format="2">
  <advance width="848.85"/>
  <unicode hex="0061"/>
  <note>
15
</note>
  <anchor x="373.29420000000005" y="0.0" name="bottom"/>
  <anchor x="801.0" y="2.200000000000001" name="ogonek"/>
  <anchor x="463.85" y="541.0" name="top"/>
  <outline>
    <contour>
      <point x="711.6" y="-10.0" type="curve" smooth="yes"/>
      <point x="742.55" y="-10.0"/>
      <point x="779.1" y="-5.249999999999999"/>
      <point x="801.45" y="0.8500000000000005" type="curve"/>
      <point x="800.55" y="111.35000000000001" type="line"/>
      <point x="792.75" y="109.0"/>
      <point x="781.85" y="107.55000000000001"/>
      <point x="772.8" y="107.55000000000001" type="curve" smooth="yes"/>
      <point x="746.1" y="107.55000000000001"/>
      <point x="734.9" y="123.20000000000002"/>
      <point x="734.9" y="152.65" type="curve" smooth="yes"/>
      <point x="734.9" y="162.4"/>
      <point x="756.5" y="297.6"/>
      <point x="790.5500000000001" y="507.55" type="curve"/>
      <point x="722.3000000000001" y="532.25"/>
      <point x="584.8499999999999" y="551.0"/>
      <point x="464.7" y="551.0" type="curve" smooth="yes"/>
      <point x="204.54999999999998" y="551.0"/>
      <point x="39.15" y="439.9"/>
      <point x="39.15" y="220.15" type="curve" smooth="yes"/>
      <point x="39.15" y="63.75"/>
      <point x="148.15" y="-10.0"/>
      <point x="304.15000000000003" y="-10.0" type="curve" smooth="yes"/>
      <point x="400.3" y="-10.0"/>
      <point x="500.94999999999993" y="22.599999999999998"/>
      <point x="574.3499999999999" y="70.35000000000001" type="curve"/>
      <point x="595.25" y="21.8"/>
      <point x="653.6" y="-10.0"/>
    </contour>
    <contour>
      <point x="569.6" y="164.05" type="line"/>
      <point x="512.8" y="131.15"/>
      <point x="434.09999999999997" y="106.35000000000001"/>
      <point x="366.90000000000003" y="106.35000000000001" type="curve" smooth="yes"/>
      <point x="268.40000000000003" y="106.35000000000001"/>
      <point x="204.35000000000002" y="155.4"/>
      <point x="204.35000000000002" y="244.6" type="curve" smooth="yes"/>
      <point x="204.35000000000002" y="364.3"/>
      <point x="309.59999999999997" y="442.25"/>
      <point x="462.5" y="442.25" type="curve" smooth="yes"/>
      <point x="518.9" y="442.25"/>
      <point x="570.9" y="434.75"/>
      <point x="610.25" y="418.55" type="curve"/>
    </contour>
  </outline>
</glyph>
<glyph name="b" format="2">
  <advance width="838.6999999999999"/>
  <unicode hex="0062"/>
  <note>
12
</note>
  <outline>
    <contour>
      <point x="327.0" y="740.0" type="line"/>
      <point x="161.7" y="740.0" type="line"/>
      <point x="47.7" y="22.1" type="line"/>
      <point x="131.0" y="7.200000000000001"/>
      <point x="243.2" y="-10.0"/>
      <point x="364.0" y="-10.0" type="curve" smooth="yes"/>
      <point x="602.95" y="-10.0"/>
      <point x="799.75" y="85.74999999999999"/>
      <point x="799.75" y="331.5" type="curve" smooth="yes"/>
      <point x="799.75" y="460.04999999999995"/>
      <point x="724.7" y="551.0"/>
      <point x="570.35" y="551.0" type="curve" smooth="yes"/>
      <point x="466.7" y="551.0"/>
      <point x="377.35" y="514.15"/>
      <point x="280.5" y="454.35" type="curve"/>
    </contour>
    <contour>
      <point x="488.90000000000003" y="429.7" type="curve" smooth="yes"/>
      <point x="581.8000000000001" y="429.7"/>
      <point x="633.9" y="382.7"/>
      <point x="633.9" y="299.35" type="curve" smooth="yes"/>
      <point x="633.9" y="165.3"/>
      <point x="512.0" y="94.25"/>
      <point x="383.05" y="94.25" type="curve" smooth="yes"/>
      <point x="322.09999999999997" y="94.25"/>
      <point x="267.1" y="104.75000000000001"/>
      <point x="227.55" y="114.65" type="curve"/>
      <point x="265.40000000000003" y="354.45" type="line"/>
      <point x="346.0" y="403.45"/>
      <point x="417.8" y="429.7"/>
    </contour>
  </outline>
</glyph>
<glyph name="c" format="2">
  <advance width="772.4"/>
  <unicode hex="0063"/>
  <note>
10
</note>
  <anchor x="412.09999999999997" y="0.0" name="bottom"/>
  <anchor x="480.20000000000005" y="541.0" name="top"/>
  <outline>
    <contour>
      <point x="385.2" y="-10.0" type="curve" smooth="yes"/>
      <point x="496.2" y="-10.0"/>
      <point x="604.5999999999999" y="1.2999999999999985"/>
      <point x="697.3000000000001" y="28.7" type="curve"/>
      <point x="693.5" y="134.70000000000002" type="line"/>
      <point x="599.6" y="114.9"/>
      <point x="525.5000000000001" y="101.0"/>
      <point x="428.70000000000005" y="101.0" type="curve" smooth="yes"/>
      <point x="292.3" y="101.0"/>
      <point x="212.80000000000004" y="154.5"/>
      <point x="212.80000000000004" y="256.4" type="curve" smooth="yes"/>
      <point x="212.80000000000004" y="369.8"/>
      <point x="307.0" y="440.7"/>
      <point x="472.0" y="440.7" type="curve" smooth="yes"/>
      <point x="544.9" y="440.7"/>
      <point x="629.5999999999999" y="432.00000000000006"/>
      <point x="725.7" y="410.29999999999995" type="curve"/>
      <point x="762.5" y="518.3000000000001" type="line"/>
      <point x="679.7" y="540.0000000000001"/>
      <point x="574.8000000000001" y="551.0"/>
      <point x="478.2" y="551.0" type="curve" smooth="yes"/>
      <point x="196.99999999999997" y="551.0"/>
      <point x="44.2" y="439.9"/>
      <point x="44.2" y="241.79999999999998" type="curve" smooth="yes"/>
      <point x="44.2" y="80.69999999999999"/>
      <point x="155.8" y="-10.0"/>
    </contour>
  </outline>
</glyph>
<glyph name="d" format="2">
  <advance width="854.8000000000001"/>
  <unicode hex="0064"/>
  <note>
17
</note>
  <anchor x="382.7" y="0.0" name="bottom"/>
  <anchor x="424.7" y="275.0" name="center"/>
  <anchor x="493.2" y="740.0" name="top"/>
  <anchor x="895.4" y="740.0" name="topright"/>
  <outline>
    <contour>
      <point x="713.4" y="-10.0" type="curve" smooth="yes"/>
      <point x="742.1000000000001" y="-10.0"/>
      <point x="778.2" y="-5.699999999999999"/>
      <point x="801.0" y="1.3000000000000005" type="curve"/>
      <point x="799.2" y="111.80000000000001" type="line"/>
      <point x="791.4" y="109.00000000000001"/>
      <point x="780.6" y="108.00000000000001"/>
      <point x="771.0" y="108.00000000000001" type="curve" smooth="yes"/>
      <point x="746.3000000000001" y="108.00000000000001"/>
      <point x="733.1" y="122.10000000000001"/>
      <point x="733.1" y="148.5" type="curve" smooth="yes"/>
      <point x="733.1" y="160.10000000000002"/>
      <point x="824.9" y="740.0"/>
      <point x="824.9" y="740.0" type="curve"/>
      <point x="661.7" y="740.0" type="line"/>
      <point x="628.0" y="532.6" type="line"/>
      <point x="583.8000000000001" y="541.4"/>
      <point x="524.3" y="551.0"/>
      <point x="451.0" y="551.0" type="curve" smooth="yes"/>
      <point x="222.6" y="551.0"/>
      <point x="39.6" y="449.1"/>
      <point x="39.6" y="218.5" type="curve" smooth="yes"/>
      <point x="39.6" y="62.7"/>
      <point x="154.29999999999998" y="-10.0"/>
      <point x="301.0" y="-10.0" type="curve" smooth="yes"/>
      <point x="397.59999999999997" y="-10.0"/>
      <point x="503.2" y="22.599999999999998"/>
      <point x="572.1" y="65.4" type="curve"/>
      <point x="593.9000000000001" y="20.0"/>
      <point x="652.7" y="-10.0"/>
    </contour>
    <contour>
      <point x="363.3" y="106.80000000000001" type="curve" smooth="yes"/>
      <point x="272.9" y="106.80000000000001"/>
      <point x="204.8" y="153.6"/>
      <point x="204.8" y="245.5" type="curve" smooth="yes"/>
      <point x="204.8" y="366.1"/>
      <point x="314.1" y="442.7"/>
      <point x="459.8" y="442.7" type="curve" smooth="yes"/>
      <point x="522.5" y="442.7"/>
      <point x="571.8" y="433.4"/>
      <point x="610.7" y="423.5" type="curve"/>
      <point x="568.7" y="159.1" type="line"/>
      <point x="511.00000000000006" y="129.79999999999998"/>
      <point x="431.4" y="106.80000000000001"/>
    </contour>
  </outline>
</glyph>
<glyph name="e" format="2">
  <advance width="793.1999999999999"/>
  <unicode hex="0065"/>
  <note>
14 points
</note>
  <anchor x="370.6" y="0.0" name="bottom"/>
  <anchor x="625.3" y="14.000000000000002" name="ogonek"/>
  <anchor x="462.49999999999994" y="541.0" name="top"/>
  <outline>
    <contour>
      <point x="183.9" y="320.20000000000005" type="curve"/>
      <point x="192.0" y="227.29999999999998" type="line"/>
      <point x="248.4" y="221.10000000000002"/>
      <point x="320.2" y="216.89999999999998"/>
      <point x="403.70000000000005" y="217.89999999999998" type="curve" smooth="yes"/>
      <point x="638.1999999999999" y="220.09999999999997"/>
      <point x="761.5" y="277.2"/>
      <point x="761.5" y="386.2" type="curve" smooth="yes"/>
      <point x="761.5" y="491.3"/>
      <point x="645.2" y="551.0"/>
      <point x="464.2" y="551.0" type="curve" smooth="yes"/>
      <point x="190.0" y="551.0"/>
      <point x="42.5" y="420.9"/>
      <point x="42.5" y="238.29999999999998" type="curve" smooth="yes"/>
      <point x="42.5" y="82.80000000000001"/>
      <point x="174.7" y="-10.0"/>
      <point x="390.6000000000001" y="-10.0" type="curve" smooth="yes"/>
      <point x="501.09999999999997" y="-10.0"/>
      <point x="608.1999999999999" y="6.399999999999999"/>
      <point x="707.6" y="35.4" type="curve"/>
      <point x="693.9" y="142.4" type="line"/>
      <point x="590.8000000000001" y="111.30000000000001"/>
      <point x="491.80000000000007" y="97.00000000000001"/>
      <point x="425.8" y="97.00000000000001" type="curve" smooth="yes"/>
      <point x="264.7" y="97.00000000000001"/>
      <point x="207.9" y="147.70000000000002"/>
      <point x="207.90000000000003" y="243.79999999999995" type="curve" smooth="yes"/>
      <point x="207.9" y="369.20000000000005"/>
      <point x="307.40000000000003" y="448.3"/>
      <point x="450.09999999999997" y="448.3" type="curve" smooth="yes"/>
      <point x="538.4" y="448.3"/>
      <point x="588.6" y="422.1"/>
      <point x="588.6" y="374.4" type="curve" smooth="yes"/>
      <point x="588.6" y="329.6"/>
      <point x="502.40000000000003" y="311.4"/>
      <point x="349.1" y="310.3" type="curve" smooth="yes"/>
      <point x="287.8" y="309.29999999999995"/>
      <point x="230.3" y="311.9"/>
    </contour>
  </outline>
</glyph>
<glyph name="f" format="2">
  <advance width="553.85"/>
  <unicode hex="0066"/>
  <outline>
    <contour>
      <point x="52.95000000000001" y="-220.0" type="curve" smooth="yes"/>
      <point x="162.05" y="-220.0"/>
      <point x="230.75" y="-144.89999999999998"/>
      <point x="255.90000000000003" y="12.150000000000006" type="curve" smooth="yes"/>
      <point x="312.90000000000003" y="377.0" type="line"/>
      <point x="552.0500000000001" y="377.0" type="line"/>
      <point x="569.35" y="484.0" type="line"/>
      <point x="329.65" y="484.0" type="line"/>
      <point x="344.75" y="580.6"/>
      <point x="397.59999999999997" y="627.6"/>
      <point x="492.25" y="627.6" type="curve" smooth="yes"/>
      <point x="553.15" y="627.6"/>
      <point x="608.75" y="616.35"/>
      <point x="657.0" y="601.5" type="curve"/>
      <point x="693.8000000000001" y="714.65" type="line"/>
      <point x="626.7" y="737.9000000000001"/>
      <point x="552.5" y="750.0"/>
      <point x="480.2" y="750.0" type="curve" smooth="yes"/>
      <point x="298.85" y="750.0"/>
      <point x="190.95000000000002" y="660.5500000000001"/>
      <point x="165.0" y="484.0" type="curve"/>
      <point x="53.95" y="470.75" type="line"/>
      <point x="38.75" y="377.0" type="line"/>
      <point x="147.7" y="377.0" type="line"/>
      <point x="93.1" y="28.750000000000004" type="line" smooth="yes"/>
      <point x="78.65" y="-63.3"/>
      <point x="55.35" y="-99.6"/>
      <point x="6.849999999999998" y="-99.6" type="curve" smooth="yes"/>
      <point x="-6.499999999999995" y="-99.6"/>
      <point x="-20.949999999999996" y="-97.14999999999999"/>
      <point x="-35.0" y="-92.35" type="curve"/>
      <point x="-61.89999999999999" y="-200.64999999999998" type="line"/>
      <point x="-26.6" y="-214.25"/>
      <point x="7.900000000000006" y="-220.0"/>
    </contour>
  </outline>
</glyph>
<glyph name="g" format="2">
  <advance width="839.6"/>
  <unicode hex="0067"/>
  <note>
16
</note>
  <anchor x="325.4" y="-214.5" name="bottom"/>
  <anchor x="468.69999999999993" y="541.0" name="top"/>
  <outline>
    <contour>
      <point x="7.299999999999999" y="-165.6" type="line"/>
      <point x="93.5" y="-196.60000000000002"/>
      <point x="207.5" y="-220.0"/>
      <point x="340.8" y="-220.0" type="curve" smooth="yes"/>
      <point x="568.1" y="-220.0"/>
      <point x="690.1" y="-111.99999999999999"/>
      <point x="721.3" y="86.10000000000001" type="curve" smooth="yes"/>
      <point x="788.1" y="509.09999999999997" type="line"/>
      <point x="726.8000000000001" y="530.5999999999999"/>
      <point x="580.4999999999999" y="551.0"/>
      <point x="484.4" y="551.0" type="curve" smooth="yes"/>
      <point x="168.6" y="551.0"/>
      <point x="39.7" y="413.3"/>
      <point x="39.7" y="223.5" type="curve" smooth="yes"/>
      <point x="39.7" y="83.89999999999999"/>
      <point x="141.4" y="13.000000000000004"/>
      <point x="299.9" y="13.000000000000004" type="curve" smooth="yes"/>
      <point x="368.0" y="13.000000000000004"/>
      <point x="481.70000000000005" y="41.2"/>
      <point x="556.8" y="87.6" type="curve"/>
      <point x="553.6999999999999" y="70.3" type="line" smooth="yes"/>
      <point x="534.1999999999999" y="-58.4"/>
      <point x="457.09999999999997" y="-108.4"/>
      <point x="317.0" y="-108.4" type="curve" smooth="yes"/>
      <point x="224.20000000000002" y="-108.4"/>
      <point x="127.60000000000001" y="-87.39999999999999"/>
      <point x="44.800000000000004" y="-58.699999999999996" type="curve"/>
    </contour>
    <contour>
      <point x="609.8" y="424.49999999999994" type="curve"/>
      <point x="571.4" y="180.8" type="line"/>
      <point x="509.8999999999999" y="148.8"/>
      <point x="428.4" y="124.5"/>
      <point x="371.8" y="124.5" type="curve" smooth="yes"/>
      <point x="267.5" y="124.5"/>
      <point x="205.90000000000003" y="166.29999999999998"/>
      <point x="205.90000000000003" y="248.7" type="curve" smooth="yes"/>
      <point x="205.90000000000003" y="365.09999999999997"/>
      <point x="298.5" y="447.2"/>
      <point x="463.0" y="447.2" type="curve" smooth="yes"/>
      <point x="534.1" y="447.2"/>
      <point x="578.1" y="433.9"/>
    </contour>
  </outline>
</glyph>
<glyph name="h" format="2">
  <advance width="842.3000000000001"/>
  <unicode hex="0068"/>
  <note>
16
</note>
  <anchor x="395.40000000000003" y="0.0" name="bottom"/>
  <anchor x="442.9006" y="384.2" name="center"/>
  <anchor x="488.8" y="740.0" name="top"/>
  <outline>
    <contour>
      <point x="734.3000000000001" y="146.00000000000003" type="curve" smooth="yes"/>
      <point x="734.3000000000001" y="189.29999999999998"/>
      <point x="766.6" y="331.5"/>
      <point x="766.6" y="389.7" type="curve" smooth="yes"/>
      <point x="766.6" y="482.0"/>
      <point x="706.6" y="551.0"/>
      <point x="567.5000000000001" y="551.0" type="curve" smooth="yes"/>
      <point x="465.40000000000003" y="551.0"/>
      <point x="388.1" y="519.7"/>
      <point x="283.6" y="470.29999999999995" type="curve"/>
      <point x="326.1" y="740.0" type="line"/>
      <point x="161.8" y="740.0" type="line"/>
      <point x="43.69999999999999" y="0.0" type="line"/>
      <point x="209.0" y="0.0" type="line"/>
      <point x="267.40000000000003" y="368.1" type="line"/>
      <point x="345.8" y="404.7"/>
      <point x="412.90000000000003" y="431.9"/>
      <point x="488.6" y="431.9" type="curve" smooth="yes"/>
      <point x="564.4" y="431.9"/>
      <point x="595.8" y="397.7"/>
      <point x="595.8" y="343.40000000000003" type="curve" smooth="yes"/>
      <point x="595.8" y="284.90000000000003"/>
      <point x="564.4999999999999" y="139.79999999999998"/>
      <point x="564.4999999999999" y="101.2" type="curve" smooth="yes"/>
      <point x="564.4999999999999" y="26.0"/>
      <point x="624.3000000000001" y="-10.0"/>
      <point x="704.4" y="-10.0" type="curve" smooth="yes"/>
      <point x="736.2" y="-10.0"/>
      <point x="777.9999999999999" y="-6.9"/>
      <point x="804.0" y="-0.8999999999999992" type="curve"/>
      <point x="802.1999999999999" y="112.70000000000002" type="line"/>
      <point x="793.5" y="109.9"/>
      <point x="779.9" y="108.00000000000001"/>
      <point x="769.4" y="108.00000000000001" type="curve" smooth="yes"/>
      <point x="747.4000000000001" y="108.00000000000001"/>
      <point x="734.3000000000001" y="122.4"/>
    </contour>
  </outline>
</glyph>
<glyph name="i" format="2">
  <advance width="341.25"/>
  <unicode hex="0069"/>
  <note>
Ajuster pts sur points
8
</note>
  <anchor x="126.6442" y="0.0" name="bottom"/>
  <anchor x="209.55" y="0.0" name="ogonek"/>
  <anchor x="212.8058" y="541.0" name="top"/>
  <outline>
    <contour>
      <point x="44.25" y="0.0" type="line"/>
      <point x="209.55" y="0.0" type="line"/>
      <point x="294.65000000000003" y="541.0" type="line"/>
      <point x="130.45" y="541.0" type="line"/>
    </contour>
    <contour>
      <point x="244.9" y="754.0" type="curve" smooth="yes"/>
      <point x="169.20000000000002" y="754.0"/>
      <point x="132.85" y="731.45"/>
      <point x="132.4" y="672.45" type="curve" smooth="yes"/>
      <point x="132.39999999999998" y="637.4000000000001"/>
      <point x="159.85" y="617.6999999999999"/>
      <point x="220.95000000000002" y="617.6999999999999" type="curve" smooth="yes"/>
      <point x="283.5" y="617.6999999999999"/>
      <point x="332.9" y="632.55"/>
      <point x="333.8" y="700.25" type="curve" smooth="yes"/>
      <point x="333.8" y="734.3"/>
      <point x="307.7" y="754.0"/>
    </contour>
  </outline>
</glyph>
<glyph name="j" format="2">
  <advance width="359.54999999999995"/>
  <unicode hex="006A"/>
  <note>
idem /i
12
</note>
  <outline>
    <contour>
      <point x="263.75" y="754.0" type="curve" smooth="yes"/>
      <point x="187.5" y="754.0"/>
      <point x="152.6" y="731.45"/>
      <point x="152.15" y="672.45" type="curve" smooth="yes"/>
      <point x="152.15" y="637.4000000000001"/>
      <point x="179.25" y="617.6999999999999"/>
      <point x="240.35000000000002" y="617.6999999999999" type="curve" smooth="yes"/>
      <point x="301.55" y="617.6999999999999"/>
      <point x="350.85" y="632.55"/>
      <point x="351.75" y="700.25" type="curve" smooth="yes"/>
      <point x="351.75" y="734.3"/>
      <point x="326.55" y="754.0"/>
    </contour>
    <contour>
      <point x="314.05" y="541.0" type="line"/>
      <point x="149.29999999999998" y="541.0" type="line"/>
      <point x="63.550000000000004" y="-4.399999999999995" type="line" smooth="yes"/>
      <point x="53.95" y="-66.55"/>
      <point x="34.85" y="-99.6"/>
      <point x="-12.400000000000006" y="-99.6" type="curve" smooth="yes"/>
      <point x="-23.549999999999997" y="-99.6"/>
      <point x="-41.15" y="-98.14999999999999"/>
      <point x="-57.24999999999999" y="-92.1" type="curve"/>
      <point x="-87.55" y="-208.10000000000002" type="line"/>
      <point x="-52.60000000000001" y="-216.45000000000002"/>
      <point x="-6.999999999999993" y="-220.0"/>
      <point x="13.349999999999994" y="-220.0" type="curve" smooth="yes"/>
      <point x="148.70000000000002" y="-220.0"/>
      <point x="206.8" y="-136.85"/>
      <point x="230.05" y="10.95000000000001" type="curve" smooth="yes"/>
    </contour>
  </outline>
</glyph>
<glyph name="k" format="2">
  <advance width="779.6"/>
  <unicode hex="006B"/>
  <anchor x="355.8" y="0.0" name="bottom"/>
  <anchor x="244.30000000000004" y="740.0" name="top"/>
  <outline>
    <contour>
      <point x="44.599999999999994" y="0.0" type="line"/>
      <point x="208.79999999999998" y="0.0" type="line"/>
      <point x="326.9" y="740.0" type="line"/>
      <point x="161.70000000000002" y="740.0" type="line"/>
    </contour>
    <contour>
      <point x="686.6999999999999" y="-10.0" type="curve" smooth="yes"/>
      <point x="698.9" y="-10.0"/>
      <point x="712.1" y="-8.100000000000001"/>
      <point x="722.4999999999999" y="-5.199999999999999" type="curve"/>
      <point x="744.4000000000001" y="139.40000000000003" type="line"/>
      <point x="736.2" y="137.50000000000003"/>
      <point x="727.2" y="137.5"/>
      <point x="718.0" y="137.5" type="curve" smooth="yes"/>
      <point x="666.4999999999999" y="137.5"/>
      <point x="603.9000000000001" y="164.0"/>
      <point x="472.0" y="257.8" type="curve" smooth="yes"/>
      <point x="253.60000000000002" y="412.90000000000003" type="line"/>
      <point x="230.29999999999998" y="261.5" type="line"/>
      <point x="426.59999999999997" y="116.49999999999999" type="line" smooth="yes"/>
      <point x="544.0" y="29.699999999999992"/>
      <point x="616.7" y="-10.0"/>
    </contour>
    <contour>
      <point x="427.40000000000003" y="269.2" type="line"/>
      <point x="587.7" y="343.59999999999997"/>
      <point x="720.3000000000001" y="448.9"/>
      <point x="780.6" y="540.0999999999999" type="curve"/>
      <point x="583.5" y="551.0" type="line"/>
      <point x="514.1" y="457.79999999999995"/>
      <point x="434.90000000000003" y="395.70000000000005"/>
      <point x="278.6" y="315.70000000000005" type="curve"/>
    </contour>
  </outline>
</glyph>
<glyph name="l" format="2">
  <advance width="428.85"/>
  <unicode hex="006C"/>
  <anchor x="219.29999999999998" y="0.0" name="bottom"/>
  <anchor x="217.75329999999997" y="383.75" name="center"/>
  <anchor x="244.29999999999998" y="740.0" name="top"/>
  <anchor x="397.4" y="740.0" name="topright"/>
  <outline>
    <contour>
      <point x="161.7" y="740.0" type="line"/>
      <point x="76.85000000000001" y="206.65" type="line" smooth="yes"/>
      <point x="73.19999999999999" y="182.1"/>
      <point x="69.19999999999999" y="153.45000000000002"/>
      <point x="69.19999999999999" y="127.8" type="curve" smooth="yes"/>
      <point x="69.19999999999999" y="36.699999999999996"/>
      <point x="115.70000000000002" y="-10.0"/>
      <point x="219.45000000000002" y="-10.0" type="curve" smooth="yes"/>
      <point x="282.3" y="-10.0"/>
      <point x="340.8" y="0.4000000000000006"/>
      <point x="394.20000000000005" y="15.100000000000001" type="curve"/>
      <point x="391.95000000000005" y="134.75" type="line"/>
      <point x="356.15" y="126.65"/>
      <point x="330.8" y="121.20000000000002"/>
      <point x="302.20000000000005" y="121.20000000000002" type="curve" smooth="yes"/>
      <point x="255.25" y="121.20000000000002"/>
      <point x="239.9" y="147.1"/>
      <point x="239.9" y="177.1" type="curve" smooth="yes"/>
      <point x="239.9" y="192.45000000000002"/>
      <point x="241.70000000000002" y="206.55"/>
      <point x="243.70000000000002" y="216.55" type="curve" smooth="yes"/>
      <point x="326.9" y="740.0" type="line"/>
    </contour>
  </outline>
</glyph>
<glyph name="m" format="2">
  <advance width="1246.0"/>
  <unicode hex="006D"/>
  <note>
24&gt;23 points
un point de trop dans la jointure avec 2e jambage
</note>
  <outline>
    <contour>
      <point x="1107.65" y="-10.0" type="curve" smooth="yes"/>
      <point x="1139.8999999999999" y="-10.0"/>
      <point x="1181.25" y="-6.9"/>
      <point x="1207.7" y="-0.4499999999999993" type="curve"/>
      <point x="1205.8999999999999" y="112.70000000000002" type="line"/>
      <point x="1196.75" y="109.9"/>
      <point x="1183.15" y="108.00000000000001"/>
      <point x="1172.6499999999999" y="108.00000000000001" type="curve" smooth="yes"/>
      <point x="1151.1000000000001" y="108.00000000000001"/>
      <point x="1138.45" y="121.50000000000001"/>
      <point x="1138.45" y="145.55" type="curve" smooth="yes"/>
      <point x="1138.45" y="188.85"/>
      <point x="1170.75" y="331.5"/>
      <point x="1170.75" y="389.25" type="curve" smooth="yes"/>
      <point x="1170.75" y="481.99999999999994"/>
      <point x="1107.1" y="551.0"/>
      <point x="968.45" y="551.0" type="curve" smooth="yes"/>
      <point x="862.0999999999999" y="551.0"/>
      <point x="792.15" y="511.65000000000003"/>
      <point x="698.6500000000001" y="455.65" type="curve"/>
      <point x="679.0" y="511.3"/>
      <point x="631.5" y="551.0"/>
      <point x="532.4" y="551.0" type="curve" smooth="yes"/>
      <point x="446.4" y="551.0"/>
      <point x="365.15000000000003" y="517.1"/>
      <point x="267.35" y="463.5" type="curve"/>
      <point x="278.7" y="541.0" type="line"/>
      <point x="129.9" y="541.0" type="line"/>
      <point x="44.7" y="0.0" type="line"/>
      <point x="209.45000000000002" y="0.0" type="line"/>
      <point x="268.3" y="373.5" type="line"/>
      <point x="334.9" y="409.7"/>
      <point x="387.95" y="431.9"/>
      <point x="442.04999999999995" y="431.9" type="curve" smooth="yes"/>
      <point x="519.9000000000001" y="431.9"/>
      <point x="546.85" y="389.5"/>
      <point x="546.85" y="332.59999999999997" type="curve" smooth="yes"/>
      <point x="546.85" y="314.85"/>
      <point x="531.6500000000001" y="216.55"/>
      <point x="499.15000000000003" y="0.0" type="curve"/>
      <point x="661.6999999999999" y="0.0" type="line"/>
      <point x="692.55" y="204.75"/>
      <point x="702.25" y="270.1"/>
      <point x="711.0500000000001" y="331.75" type="curve" smooth="yes"/>
      <point x="711.6" y="340.35"/>
      <point x="713.35" y="361.6"/>
      <point x="713.0" y="369.09999999999997" type="curve"/>
      <point x="776.3" y="406.34999999999997"/>
      <point x="829.7" y="430.25"/>
      <point x="891.65" y="430.25" type="curve" smooth="yes"/>
      <point x="969.0" y="430.25"/>
      <point x="998.5" y="394.59999999999997"/>
      <point x="998.5" y="337.5" type="curve" smooth="yes"/>
      <point x="998.5" y="282.25"/>
      <point x="968.1999999999999" y="140.9"/>
      <point x="968.1999999999999" y="101.20000000000002" type="curve" smooth="yes"/>
      <point x="968.1999999999999" y="26.000000000000004"/>
      <point x="1028.0" y="-10.0"/>
    </contour>
  </outline>
</glyph>
<glyph name="n" format="2">
  <advance width="843.1999999999999"/>
  <unicode hex="006E"/>
  <note>
16
</note>
  <anchor x="394.65" y="0.0" name="bottom"/>
  <anchor x="454.09999999999997" y="541.0" name="top"/>
  <outline>
    <contour>
      <point x="129.9" y="541.0" type="line"/>
      <point x="44.7" y="0.0" type="line"/>
      <point x="208.9" y="0.0" type="line"/>
      <point x="267.85" y="368.1" type="line"/>
      <point x="343.90000000000003" y="403.95000000000005"/>
      <point x="412.25" y="431.90000000000003"/>
      <point x="488.95" y="431.90000000000003" type="curve" smooth="yes"/>
      <point x="563.3" y="431.90000000000003"/>
      <point x="595.8" y="398.45"/>
      <point x="595.8" y="340.25" type="curve" smooth="yes"/>
      <point x="595.8" y="282.25"/>
      <point x="564.9499999999999" y="146.4"/>
      <point x="564.9499999999999" y="101.2" type="curve" smooth="yes"/>
      <point x="564.9499999999999" y="25.999999999999996"/>
      <point x="625.1999999999999" y="-10.0"/>
      <point x="704.8499999999999" y="-10.0" type="curve" smooth="yes"/>
      <point x="737.0999999999999" y="-10.0"/>
      <point x="778.4499999999999" y="-6.9"/>
      <point x="804.9" y="-0.4499999999999993" type="curve"/>
      <point x="803.1" y="112.70000000000002" type="line"/>
      <point x="793.95" y="109.9"/>
      <point x="780.35" y="108.00000000000001"/>
      <point x="769.85" y="108.00000000000001" type="curve" smooth="yes"/>
      <point x="748.3" y="108.00000000000001"/>
      <point x="735.1999999999999" y="121.95"/>
      <point x="735.1999999999999" y="146.00000000000003" type="curve" smooth="yes"/>
      <point x="735.1999999999999" y="189.29999999999998"/>
      <point x="767.5" y="331.5"/>
      <point x="767.5" y="389.25" type="curve" smooth="yes"/>
      <point x="767.5" y="489.7"/>
      <point x="694.4" y="551.0"/>
      <point x="565.65" y="551.0" type="curve" smooth="yes"/>
      <point x="458.15" y="551.0"/>
      <point x="365.1" y="515.9"/>
      <point x="269.75" y="462.15000000000003" type="curve"/>
      <point x="282.0" y="541.0" type="line"/>
    </contour>
  </outline>
</glyph>
<glyph name="o" format="2">
  <advance width="839.0999999999999"/>
  <unicode hex="006F"/>
  <note>
8
</note>
  <anchor x="388.59999999999997" y="0.0" name="bottom"/>
  <anchor x="420.0" y="275.0" name="center"/>
  <anchor x="506.59999999999997" y="0.0" name="ogonek"/>
  <anchor x="446.59999999999997" y="541.0" name="top"/>
  <anchor x="642.9000000000001" y="535.5" name="topright"/>
  <outline>
    <contour>
      <point x="413.0" y="-9.9" type="curve" smooth="yes"/>
      <point x="655.4" y="-9.9"/>
      <point x="792.3" y="96.0"/>
      <point x="791.1999999999999" y="291.8" type="curve" smooth="yes"/>
      <point x="789.9" y="458.40000000000003"/>
      <point x="659.3000000000001" y="552.9"/>
      <point x="424.29999999999995" y="552.9" type="curve" smooth="yes"/>
      <point x="181.9" y="552.9"/>
      <point x="45.0" y="447.0000000000001"/>
      <point x="46.1" y="251.2" type="curve" smooth="yes"/>
      <point x="47.4" y="84.6"/>
      <point x="178.0" y="-9.9"/>
    </contour>
    <contour>
      <point x="414.0" y="92.5" type="curve" smooth="yes"/>
      <point x="282.29999999999995" y="92.5"/>
      <point x="211.4" y="145.29999999999998"/>
      <point x="211.4" y="262.6" type="curve" smooth="yes"/>
      <point x="211.4" y="381.79999999999995"/>
      <point x="281.9" y="450.49999999999994"/>
      <point x="423.3" y="450.49999999999994" type="curve" smooth="yes"/>
      <point x="554.9" y="450.49999999999994"/>
      <point x="625.9" y="398.49999999999994"/>
      <point x="625.9" y="281.2" type="curve" smooth="yes"/>
      <point x="625.9" y="162.0"/>
      <point x="555.4" y="92.5"/>
    </contour>
  </outline>
</glyph>
<glyph name="p" format="2">
  <advance width="839.7"/>
  <unicode hex="0070"/>
  <note>
14 point
</note>
  <outline>
    <contour>
      <point x="11.699999999999992" y="-210.0" type="line"/>
      <point x="175.35" y="-210.0" type="line"/>
      <point x="210.8" y="7.75" type="line"/>
      <point x="252.15000000000003" y="-0.9500000000000002"/>
      <point x="309.59999999999997" y="-10.0"/>
      <point x="374.05" y="-10.0" type="curve" smooth="yes"/>
      <point x="648.3000000000001" y="-10.0"/>
      <point x="799.75" y="112.10000000000001"/>
      <point x="799.75" y="331.25" type="curve" smooth="yes"/>
      <point x="799.75" y="464.2"/>
      <point x="721.5500000000001" y="551.0"/>
      <point x="570.6999999999999" y="551.0" type="curve" smooth="yes"/>
      <point x="456.25" y="551.0"/>
      <point x="368.25" y="514.0500000000001"/>
      <point x="265.65000000000003" y="452.6" type="curve"/>
      <point x="280.35" y="541.0" type="line"/>
      <point x="129.89999999999998" y="541.0" type="line"/>
    </contour>
    <contour>
      <point x="379.45000000000005" y="94.25" type="curve" smooth="yes"/>
      <point x="318.5" y="94.25"/>
      <point x="267.1" y="105.2"/>
      <point x="227.55" y="115.10000000000001" type="curve"/>
      <point x="264.95" y="354.0" type="line"/>
      <point x="341.95" y="401.2"/>
      <point x="416.45" y="429.7"/>
      <point x="488.90000000000003" y="429.7" type="curve" smooth="yes"/>
      <point x="578.65" y="429.7"/>
      <point x="633.9" y="386.75"/>
      <point x="633.9" y="297.55" type="curve" smooth="yes"/>
      <point x="633.9" y="171.60000000000002"/>
      <point x="521.45" y="94.25"/>
    </contour>
  </outline>
</glyph>
<glyph name="q" format="2">
  <advance width="840.25"/>
  <unicode hex="0071"/>
  <note>
12
</note>
  <outline>
    <contour>
      <point x="790.1" y="513.95" type="line"/>
      <point x="705.15" y="534.35"/>
      <point x="581.5" y="551.0"/>
      <point x="460.7" y="551.0" type="curve" smooth="yes"/>
      <point x="184.95" y="551.0"/>
      <point x="39.15" y="431.25"/>
      <point x="39.15" y="217.20000000000002" type="curve" smooth="yes"/>
      <point x="39.15" y="85.10000000000001"/>
      <point x="129.75" y="-10.0"/>
      <point x="295.05" y="-10.0" type="curve" smooth="yes"/>
      <point x="386.05" y="-10.0"/>
      <point x="463.95000000000005" y="19.65"/>
      <point x="556.85" y="81.7" type="curve"/>
      <point x="510.25" y="-210.0" type="line"/>
      <point x="674.4499999999999" y="-210.0" type="line"/>
    </contour>
    <contour>
      <point x="610.7" y="422.59999999999997" type="curve"/>
      <point x="571.4" y="175.75" type="line"/>
      <point x="495.70000000000005" y="128.0"/>
      <point x="426.45" y="106.35000000000001"/>
      <point x="357.0" y="106.35000000000001" type="curve" smooth="yes"/>
      <point x="269.75" y="106.35000000000001"/>
      <point x="204.35" y="155.4"/>
      <point x="204.35" y="241.45000000000002" type="curve" smooth="yes"/>
      <point x="204.35" y="367.0"/>
      <point x="304.65" y="441.8"/>
      <point x="459.34999999999997" y="441.8" type="curve" smooth="yes"/>
      <point x="517.55" y="441.8"/>
      <point x="571.8" y="432.5"/>
    </contour>
  </outline>
</glyph>
<glyph name="r" format="2">
  <advance width="601.65"/>
  <unicode hex="0072"/>
  <anchor x="123.0" y="0.0" name="bottom"/>
  <anchor x="369.75" y="541.0" name="top"/>
  <outline>
    <contour>
      <point x="277.15" y="541.0" type="line"/>
      <point x="131.0" y="541.0" type="line"/>
      <point x="44.150000000000006" y="0.0" type="line"/>
      <point x="209.0" y="0.0" type="line"/>
      <point x="263.5" y="339.40000000000003" type="line"/>
      <point x="347.85" y="397.84999999999997"/>
      <point x="416.2" y="418.7"/>
      <point x="476.6" y="418.7" type="curve" smooth="yes"/>
      <point x="513.4" y="418.7"/>
      <point x="551.05" y="412.25"/>
      <point x="587.9000000000001" y="402.8" type="curve"/>
      <point x="631.3" y="535.75" type="line"/>
      <point x="602.0" y="544.1999999999999"/>
      <point x="562.25" y="551.0"/>
      <point x="522.35" y="551.0" type="curve" smooth="yes"/>
      <point x="439.59999999999997" y="551.0"/>
      <point x="371.25" y="521.5"/>
      <point x="261.45000000000005" y="439.34999999999997" type="curve"/>
    </contour>
  </outline>
</glyph>
<glyph name="s" format="2">
  <advance width="684.1"/>
  <unicode hex="0073"/>
  <anchor x="328.09999999999997" y="0.0" name="bottom"/>
  <anchor x="386.59999999999997" y="541.0" name="top"/>
  <outline>
    <contour>
      <point x="-2.700000000000002" y="35.300000000000004" type="line"/>
      <point x="83.5" y="10.399999999999997"/>
      <point x="184.7" y="-10.0"/>
      <point x="302.8" y="-10.0" type="curve" smooth="yes"/>
      <point x="473.9" y="-10.0"/>
      <point x="632.6" y="25.799999999999997"/>
      <point x="632.6" y="174.99999999999997" type="curve" smooth="yes"/>
      <point x="632.6" y="369.5"/>
      <point x="222.80000000000004" y="288.40000000000003"/>
      <point x="222.80000000000004" y="386.0" type="curve" smooth="yes"/>
      <point x="222.80000000000004" y="423.2"/>
      <point x="274.69999999999993" y="450.0"/>
      <point x="375.1000000000001" y="450.0" type="curve" smooth="yes"/>
      <point x="451.29999999999995" y="450.0"/>
      <point x="544.5" y="437.29999999999995"/>
      <point x="609.0999999999999" y="416.4" type="curve"/>
      <point x="641.4999999999999" y="516.0999999999999" type="line"/>
      <point x="571.1" y="537.0000000000001"/>
      <point x="489.50000000000006" y="551.0"/>
      <point x="395.4" y="551.0" type="curve" smooth="yes"/>
      <point x="202.20000000000002" y="551.0"/>
      <point x="67.2" y="500.6"/>
      <point x="67.2" y="367.7" type="curve" smooth="yes"/>
      <point x="67.2" y="164.7"/>
      <point x="476.3" y="257.7"/>
      <point x="476.3" y="151.29999999999998" type="curve" smooth="yes"/>
      <point x="476.3" y="109.00000000000001"/>
      <point x="413.00000000000006" y="91.3"/>
      <point x="317.40000000000003" y="91.3" type="curve" smooth="yes"/>
      <point x="219.4" y="91.3"/>
      <point x="101.4" y="113.5"/>
      <point x="31.1" y="138.20000000000002" type="curve"/>
    </contour>
  </outline>
</glyph>
<glyph name="t" format="2">
  <advance width="581.3"/>
  <unicode hex="0074"/>
  <anchor x="291.3" y="0.0" name="bottom"/>
  <anchor x="287.3" y="275.0" name="center"/>
  <anchor x="282.05" y="665.0" name="top"/>
  <anchor x="508.35" y="792.25" name="topright"/>
  <outline>
    <contour>
      <point x="520.15" y="144.15" type="line"/>
      <point x="460.9" y="128.3"/>
      <point x="412.8" y="116.8"/>
      <point x="367.7" y="116.8" type="curve" smooth="yes"/>
      <point x="303.29999999999995" y="116.8"/>
      <point x="279.65" y="144.35"/>
      <point x="279.65" y="189.60000000000002" type="curve" smooth="yes"/>
      <point x="279.65" y="199.10000000000002"/>
      <point x="280.1" y="209.05"/>
      <point x="282.0" y="219.54999999999998" type="curve" smooth="yes"/>
      <point x="316.85" y="434.9" type="line"/>
      <point x="559.65" y="434.9" type="line"/>
      <point x="578.05" y="541.0" type="line"/>
      <point x="333.59999999999997" y="541.0" type="line"/>
      <point x="353.95" y="665.0" type="line"/>
      <point x="210.95" y="665.0" type="line"/>
      <point x="171.60000000000002" y="541.0" type="line"/>
      <point x="39.75" y="527.3" type="line"/>
      <point x="23.0" y="434.9" type="line"/>
      <point x="151.55" y="434.9" type="line"/>
      <point x="117.25" y="214.6" type="line" smooth="yes"/>
      <point x="113.15" y="190.0"/>
      <point x="111.15" y="165.8"/>
      <point x="111.15" y="147.65" type="curve" smooth="yes"/>
      <point x="111.15" y="30.200000000000003"/>
      <point x="181.8" y="-10.0"/>
      <point x="292.5" y="-10.0" type="curve" smooth="yes"/>
      <point x="364.1" y="-10.0"/>
      <point x="435.6" y="2.1000000000000005"/>
      <point x="519.0" y="26.049999999999997" type="curve"/>
    </contour>
  </outline>
</glyph>
<glyph name="u" format="2">
  <advance width="833.7"/>
  <unicode hex="0075"/>
  <note>
15
</note>
  <anchor x="368.34999999999997" y="0.0" name="bottom"/>
  <anchor x="784.8" y="14.3" name="ogonek"/>
  <anchor x="445.8" y="541.0" name="top"/>
  <anchor x="775.1" y="541.0" name="topright"/>
  <outline>
    <contour>
      <point x="267.25" y="-10.0" type="curve" smooth="yes"/>
      <point x="364.65" y="-10.0"/>
      <point x="459.2" y="21.6"/>
      <point x="556.9" y="77.44999999999999" type="curve"/>
      <point x="570.65" y="21.95"/>
      <point x="614.15" y="-10.0"/>
      <point x="677.3499999999999" y="-10.0" type="curve" smooth="yes"/>
      <point x="711.75" y="-10.0"/>
      <point x="753.75" y="0.1500000000000008"/>
      <point x="784.8" y="20.35" type="curve"/>
      <point x="782.35" y="112.7" type="line"/>
      <point x="768.9" y="108.25"/>
      <point x="757.95" y="106.9"/>
      <point x="753.15" y="106.9" type="curve" smooth="yes"/>
      <point x="730.55" y="106.9"/>
      <point x="715.5999999999999" y="118.75000000000001"/>
      <point x="715.5999999999999" y="154.20000000000002" type="curve" smooth="yes"/>
      <point x="715.5999999999999" y="162.7"/>
      <point x="716.6" y="180.60000000000002"/>
      <point x="775.1" y="541.0" type="curve"/>
      <point x="609.3499999999999" y="541.0" type="line"/>
      <point x="552.4" y="166.3" type="line"/>
      <point x="481.85" y="131.35"/>
      <point x="415.5" y="108.00000000000001"/>
      <point x="342.20000000000005" y="108.00000000000001" type="curve" smooth="yes"/>
      <point x="273.8" y="108.00000000000001"/>
      <point x="238.85" y="137.55"/>
      <point x="238.85000000000002" y="194.45" type="curve" smooth="yes"/>
      <point x="238.85" y="216.15"/>
      <point x="242.60000000000002" y="240.30000000000004"/>
      <point x="292.65" y="541.0" type="curve"/>
      <point x="127.35" y="541.0" type="line"/>
      <point x="69.6" y="178.8"/>
      <point x="68.6" y="164.20000000000002"/>
      <point x="68.6" y="146.7" type="curve" smooth="yes"/>
      <point x="68.6" y="50.0"/>
      <point x="136.15" y="-10.0"/>
    </contour>
  </outline>
</glyph>
<glyph name="v" format="2">
  <advance width="725.0500000000001"/>
  <unicode hex="0076"/>
  <outline>
    <contour>
      <point x="384.7" y="0.0" type="line"/>
      <point x="631.95" y="285.65"/>
      <point x="726.6" y="392.65"/>
      <point x="748.75" y="541.0" type="curve"/>
      <point x="574.55" y="541.0" type="line"/>
      <point x="564.8000000000001" y="444.75"/>
      <point x="505.95" y="357.0"/>
      <point x="326.0" y="122.4" type="curve"/>
      <point x="204.75000000000003" y="545.5" type="line"/>
      <point x="31.550000000000004" y="542.35" type="line"/>
      <point x="205.0" y="0.0" type="line"/>
    </contour>
  </outline>
</glyph>
<glyph name="w" format="2">
  <advance width="1010.5"/>
  <unicode hex="0077"/>
  <note>
15
</note>
  <anchor x="462.4" y="0.0" name="bottom"/>
  <anchor x="528.0" y="541.0" name="top"/>
  <outline>
    <contour>
      <point x="776.8000000000001" y="0.0" type="line"/>
      <point x="942.3" y="274.59999999999997"/>
      <point x="1023.2" y="430.1"/>
      <point x="1023.2" y="541.0" type="curve"/>
      <point x="878.6" y="541.0" type="line"/>
      <point x="876.4" y="459.09999999999997"/>
      <point x="843.6" y="363.9"/>
      <point x="702.8" y="107.0" type="curve"/>
      <point x="629.3" y="541.0" type="line"/>
      <point x="449.7" y="541.0" type="line"/>
      <point x="388.7" y="374.49999999999994"/>
      <point x="327.70000000000005" y="252.20000000000002"/>
      <point x="260.20000000000005" y="108.9" type="curve"/>
      <point x="188.39999999999998" y="545.5" type="line"/>
      <point x="40.7" y="542.8000000000001" type="line"/>
      <point x="141.2" y="0.0" type="line"/>
      <point x="331.9" y="0.0" type="line"/>
      <point x="394.7" y="119.0"/>
      <point x="467.2" y="269.9"/>
      <point x="516.5999999999999" y="378.0" type="curve"/>
      <point x="601.6" y="0.0" type="line"/>
    </contour>
  </outline>
</glyph>
<glyph name="x" format="2">
  <advance width="739.7"/>
  <unicode hex="0078"/>
  <outline>
    <contour>
      <point x="587.2" y="541.0" type="line"/>
      <point x="549.5999999999999" y="464.6"/>
      <point x="533.0" y="432.79999999999995"/>
      <point x="407.7" y="344.9" type="curve"/>
      <point x="250.60000000000002" y="551.8" type="line"/>
      <point x="72.2" y="540.1" type="line"/>
      <point x="266.4" y="292.4" type="line"/>
      <point x="100.80000000000001" y="172.1"/>
      <point x="41.599999999999994" y="96.4"/>
      <point x="-2.6999999999999993" y="0.0" type="curve"/>
      <point x="174.6" y="0.0" type="line"/>
      <point x="205.5" y="67.0"/>
      <point x="231.29999999999998" y="125.30000000000001"/>
      <point x="346.5" y="209.10000000000002" type="curve"/>
      <point x="509.80000000000007" y="-3.6" type="line"/>
      <point x="686.2" y="3.6" type="line"/>
      <point x="484.3" y="261.6" type="line"/>
      <point x="636.3" y="366.09999999999997"/>
      <point x="712.0" y="443.40000000000003"/>
      <point x="760.3" y="541.0" type="curve"/>
    </contour>
  </outline>
</glyph>
<glyph name="y" format="2">
  <advance width="727.2"/>
  <unicode hex="0079"/>
  <anchor x="337.8" y="-188.99999999999997" name="bottom"/>
  <anchor x="395.9" y="541.0" name="top"/>
  <outline>
    <contour>
      <point x="581.5" y="541.0" type="line"/>
      <point x="565.5" y="440.09999999999997"/>
      <point x="460.6" y="238.80000000000004"/>
      <point x="343.99999999999994" y="78.20000000000002" type="curve"/>
      <point x="201.50000000000003" y="545.5" type="line"/>
      <point x="33.199999999999996" y="542.8000000000001" type="line"/>
      <point x="209.79999999999998" y="-4.499999999999999" type="line"/>
      <point x="275.8" y="-4.499999999999999" type="line"/>
      <point x="212.79999999999998" y="-81.69999999999999"/>
      <point x="143.79999999999998" y="-152.60000000000002"/>
      <point x="79.7" y="-208.20000000000002" type="curve"/>
      <point x="259.1" y="-215.4" type="line"/>
      <point x="456.2" y="-31.59999999999999"/>
      <point x="737.1" y="389.2"/>
      <point x="746.9" y="541.0" type="curve"/>
    </contour>
  </outline>
</glyph>
<glyph name="z" format="2">
  <advance width="761.0"/>
  <unicode hex="007A"/>
  <anchor x="349.45" y="0.0" name="bottom"/>
  <anchor x="382.65000000000003" y="275.0" name="center"/>
  <anchor x="420.79999999999995" y="541.0" name="top"/>
  <outline>
    <contour>
      <point x="17.0" y="0.0" type="line"/>
      <point x="679.8" y="0.0" type="line"/>
      <point x="697.6500000000001" y="108.10000000000001" type="line"/>
      <point x="266.95" y="108.10000000000001" type="line"/>
      <point x="722.5" y="444.35" type="line"/>
      <point x="738.15" y="541.0" type="line"/>
      <point x="117.65" y="541.0" type="line"/>
      <point x="99.25" y="432.90000000000003" type="line"/>
      <point x="493.15000000000003" y="432.90000000000003" type="line"/>
      <point x="31.1" y="93.35000000000001" type="line"/>
    </contour>
  </outline>
</glyph>
<glyph name="braceleft" format="2">
  <advance width="482.0"/>
  <unicode hex="007B"/>
  <outline>
    <contour>
      <point x="90.7" y="-81.85" type="curve" smooth="yes"/>
      <point x="90.7" y="-165.6"/>
      <point x="152.4" y="-210.0"/>
      <point x="261.55" y="-210.0" type="curve" smooth="yes"/>
      <point x="367.09999999999997" y="-210.0" type="line"/>
      <point x="382.2" y="-114.1" type="line"/>
      <point x="317.90000000000003" y="-114.1" type="line" smooth="yes"/>
      <point x="255.75" y="-114.1"/>
      <point x="234.45" y="-87.14999999999999"/>
      <point x="234.45" y="-50.9" type="curve" smooth="yes"/>
      <point x="234.45" y="24.700000000000003"/>
      <point x="302.05" y="87.25"/>
      <point x="302.05" y="177.9" type="curve" smooth="yes"/>
      <point x="302.05" y="213.0"/>
      <point x="286.5" y="243.2"/>
      <point x="239.0" y="264.55" type="curve"/>
      <point x="307.95" y="287.20000000000005"/>
      <point x="340.15" y="342.05"/>
      <point x="340.15" y="421.05" type="curve" smooth="yes"/>
      <point x="340.15" y="460.95"/>
      <point x="327.90000000000003" y="488.85"/>
      <point x="327.90000000000003" y="532.5" type="curve" smooth="yes"/>
      <point x="327.90000000000003" y="585.0"/>
      <point x="350.3" y="644.1"/>
      <point x="438.7" y="644.1" type="curve" smooth="yes"/>
      <point x="503.0" y="644.1" type="line"/>
      <point x="518.0999999999999" y="740.0" type="line"/>
      <point x="412.55" y="740.0" type="line" smooth="yes"/>
      <point x="259.1" y="740.0"/>
      <point x="189.75" y="647.7"/>
      <point x="189.75" y="534.1500000000001" type="curve" smooth="yes"/>
      <point x="189.75" y="491.4"/>
      <point x="201.45" y="451.45"/>
      <point x="201.45" y="413.7" type="curve" smooth="yes"/>
      <point x="201.45" y="352.1"/>
      <point x="180.25" y="311.95"/>
      <point x="128.70000000000002" y="311.95" type="curve" smooth="yes"/>
      <point x="111.8" y="311.95" type="line"/>
      <point x="96.7" y="217.6" type="line"/>
      <point x="114.05000000000001" y="217.6" type="line" smooth="yes"/>
      <point x="150.1" y="217.6"/>
      <point x="164.25" y="198.5"/>
      <point x="164.25" y="171.1" type="curve" smooth="yes"/>
      <point x="164.25" y="89.3"/>
      <point x="90.7" y="15.6"/>
    </contour>
  </outline>
</glyph>
<glyph name="bar" format="2">
  <advance width="325.1"/>
  <unicode hex="007C"/>
  <outline>
    <contour>
      <point x="307.45" y="790.0" type="line"/>
      <point x="183.3" y="790.0" type="line"/>
      <point x="22.649999999999995" y="-210.0" type="line"/>
      <point x="146.25" y="-210.0" type="line"/>
    </contour>
  </outline>
</glyph>
<glyph name="braceright" format="2">
  <advance width="482.0"/>
  <unicode hex="007D"/>
  <outline>
    <contour>
      <point x="387.85" y="611.85" type="curve" smooth="yes"/>
      <point x="387.85" y="695.6"/>
      <point x="326.15" y="740.0"/>
      <point x="217.0" y="740.0" type="curve" smooth="yes"/>
      <point x="111.45" y="740.0" type="line"/>
      <point x="96.35" y="644.1" type="line"/>
      <point x="160.65" y="644.1" type="line" smooth="yes"/>
      <point x="222.79999999999998" y="644.1"/>
      <point x="244.09999999999997" y="617.15"/>
      <point x="244.09999999999997" y="580.9" type="curve" smooth="yes"/>
      <point x="244.09999999999997" y="505.3"/>
      <point x="176.5" y="442.75"/>
      <point x="176.5" y="352.1" type="curve" smooth="yes"/>
      <point x="176.5" y="317.0"/>
      <point x="192.04999999999998" y="286.8"/>
      <point x="239.54999999999998" y="265.45" type="curve"/>
      <point x="170.6" y="242.79999999999998"/>
      <point x="138.39999999999998" y="187.95000000000002"/>
      <point x="138.39999999999998" y="108.95" type="curve" smooth="yes"/>
      <point x="138.39999999999998" y="69.05000000000001"/>
      <point x="150.65" y="41.150000000000006"/>
      <point x="150.65" y="-2.4999999999999982" type="curve" smooth="yes"/>
      <point x="150.65" y="-55.0"/>
      <point x="128.25" y="-114.1"/>
      <point x="39.85" y="-114.1" type="curve" smooth="yes"/>
      <point x="-24.449999999999996" y="-114.1" type="line"/>
      <point x="-39.55" y="-210.0" type="line"/>
      <point x="66.0" y="-210.0" type="line" smooth="yes"/>
      <point x="219.45000000000002" y="-210.0"/>
      <point x="288.79999999999995" y="-117.69999999999999"/>
      <point x="288.79999999999995" y="-4.149999999999999" type="curve" smooth="yes"/>
      <point x="288.79999999999995" y="38.60000000000001"/>
      <point x="277.09999999999997" y="78.55"/>
      <point x="277.09999999999997" y="116.3" type="curve" smooth="yes"/>
      <point x="277.09999999999997" y="177.9"/>
      <point x="298.3" y="218.04999999999998"/>
      <point x="349.85" y="218.04999999999998" type="curve" smooth="yes"/>
      <point x="366.75" y="218.04999999999998" type="line"/>
      <point x="381.85" y="312.40000000000003" type="line"/>
      <point x="364.5" y="312.40000000000003" type="line" smooth="yes"/>
      <point x="328.45" y="312.40000000000003"/>
      <point x="314.3" y="331.5"/>
      <point x="314.3" y="358.9" type="curve" smooth="yes"/>
      <point x="314.3" y="440.70000000000005"/>
      <point x="387.85" y="514.4000000000001"/>
    </contour>
  </outline>
</glyph>
<glyph name="asciitilde" format="2">
  <advance width="642.0500000000001"/>
  <unicode hex="007E"/>
  <outline>
    <contour>
      <point x="569.9" y="240.75" type="curve"/>
      <point x="588.2" y="364.85" type="line"/>
      <point x="556.7" y="339.9"/>
      <point x="518.35" y="321.7"/>
      <point x="470.45" y="321.7" type="curve" smooth="yes"/>
      <point x="350.7" y="321.7"/>
      <point x="283.55" y="412.7"/>
      <point x="194.3" y="412.7" type="curve" smooth="yes"/>
      <point x="139.55" y="412.7"/>
      <point x="102.8" y="386.84999999999997"/>
      <point x="84.39999999999999" y="374.45" type="curve"/>
      <point x="63.349999999999994" y="249.89999999999998" type="line"/>
      <point x="96.8" y="270.2"/>
      <point x="124.49999999999999" y="288.2"/>
      <point x="174.6" y="288.2" type="curve" smooth="yes"/>
      <point x="283.8" y="288.2"/>
      <point x="347.2" y="197.2"/>
      <point x="460.65" y="197.2" type="curve" smooth="yes"/>
      <point x="499.09999999999997" y="197.2"/>
      <point x="543.15" y="218.0"/>
    </contour>
  </outline>
</glyph>
<glyph name="cent" format="2">
  <advance width="1042.8"/>
  <unicode hex="00A2"/>
  <outline>
    <contour>
      <point x="425.85" y="-104.45" type="line"/>
      <point x="536.8000000000001" y="-104.45" type="line"/>
      <point x="552.35" y="-9.0" type="line"/>
      <point x="658.95" y="-5.65"/>
      <point x="750.85" y="8.549999999999997"/>
      <point x="817.3" y="25.499999999999996" type="curve"/>
      <point x="815.05" y="133.05" type="line"/>
      <point x="729.4" y="117.29999999999998"/>
      <point x="645.5" y="104.15000000000002"/>
      <point x="572.35" y="104.15000000000002" type="curve" smooth="yes"/>
      <point x="431.4" y="104.15000000000002"/>
      <point x="357.0" y="151.0"/>
      <point x="357.0" y="243.35000000000002" type="curve" smooth="yes"/>
      <point x="357.0" y="369.09999999999997"/>
      <point x="466.8" y="434.1"/>
      <point x="618.35" y="434.1" type="curve" smooth="yes"/>
      <point x="703.05" y="434.1"/>
      <point x="762.3" y="421.8"/>
      <point x="847.8000000000001" y="401.6" type="curve"/>
      <point x="884.6" y="516.1999999999999" type="line"/>
      <point x="808.4" y="536.0"/>
      <point x="740.15" y="549.9000000000001"/>
      <point x="642.1" y="551.0" type="curve"/>
      <point x="658.1999999999999" y="646.0" type="line"/>
      <point x="547.25" y="646.0" type="line"/>
      <point x="529.5" y="540.1" type="line"/>
      <point x="316.85" y="514.5"/>
      <point x="188.39999999999998" y="397.75"/>
      <point x="188.39999999999998" y="216.75" type="curve" smooth="yes"/>
      <point x="188.39999999999998" y="77.30000000000001"/>
      <point x="283.15" y="8.600000000000001"/>
      <point x="442.04999999999995" y="-4.05" type="curve"/>
    </contour>
  </outline>
</glyph>
<glyph name="sterling" format="2">
  <advance width="1042.8"/>
  <unicode hex="00A3"/>
  <outline>
    <contour>
      <point x="115.89999999999999" y="0.0" type="line"/>
      <point x="866.1" y="0.0" type="line"/>
      <point x="884.4" y="113.50000000000001" type="line"/>
      <point x="326.90000000000003" y="113.50000000000001" type="line"/>
      <point x="406.6" y="164.79999999999998"/>
      <point x="445.5" y="208.5"/>
      <point x="445.5" y="273.59999999999997" type="curve" smooth="yes"/>
      <point x="445.5" y="324.6"/>
      <point x="398.6" y="389.99999999999994"/>
      <point x="398.6" y="450.1" type="curve" smooth="yes"/>
      <point x="398.6" y="543.7"/>
      <point x="498.4" y="592.9"/>
      <point x="641.2" y="592.9" type="curve" smooth="yes"/>
      <point x="736.3" y="592.9"/>
      <point x="818.4" y="582.9"/>
      <point x="912.8000000000001" y="554.1" type="curve"/>
      <point x="951.7" y="665.6999999999999" type="line"/>
      <point x="847.3" y="697.6000000000001"/>
      <point x="757.5000000000001" y="710.0"/>
      <point x="644.5" y="710.0" type="curve" smooth="yes"/>
      <point x="461.29999999999995" y="710.0"/>
      <point x="242.10000000000002" y="652.5"/>
      <point x="242.10000000000002" y="473.6" type="curve" smooth="yes"/>
      <point x="242.10000000000002" y="396.4"/>
      <point x="292.3" y="335.8"/>
      <point x="292.3" y="273.7" type="curve" smooth="yes"/>
      <point x="292.3" y="202.60000000000002"/>
      <point x="233.6" y="156.99999999999997"/>
      <point x="131.0" y="95.9" type="curve"/>
    </contour>
    <contour>
      <point x="140.20000000000002" y="307.9" type="line"/>
      <point x="780.7" y="308.79999999999995" type="line"/>
      <point x="796.9" y="406.3" type="line"/>
      <point x="155.4" y="406.3" type="line"/>
    </contour>
  </outline>
</glyph>
<glyph name="currency" format="2">
  <advance width="506.75"/>
  <unicode hex="00A4"/>
  <outline>
    <contour>
      <point x="97.30000000000001" y="94.3" type="line"/>
      <point x="179.7" y="171.5" type="line"/>
      <point x="193.85000000000002" y="161.4"/>
      <point x="211.8" y="155.9"/>
      <point x="232.45" y="155.9" type="curve" smooth="yes"/>
      <point x="253.75" y="155.9"/>
      <point x="274.5" y="161.85"/>
      <point x="293.0" y="172.05" type="curve"/>
      <point x="352.3" y="94.3" type="line"/>
      <point x="427.35" y="164.39999999999998" type="line"/>
      <point x="375.65" y="233.35" type="line"/>
      <point x="395.05" y="261.8"/>
      <point x="407.54999999999995" y="296.4"/>
      <point x="407.55" y="335.45" type="curve" smooth="yes"/>
      <point x="407.55" y="350.75"/>
      <point x="404.29999999999995" y="365.6"/>
      <point x="398.79999999999995" y="377.65" type="curve"/>
      <point x="471.75" y="446.6" type="line"/>
      <point x="419.95" y="516.7" type="line"/>
      <point x="336.0" y="438.95" type="line"/>
      <point x="321.20000000000005" y="449.6"/>
      <point x="301.8" y="455.55"/>
      <point x="279.95" y="455.55" type="curve" smooth="yes"/>
      <point x="259.3" y="455.55"/>
      <point x="239.55" y="449.6"/>
      <point x="222.15" y="439.5" type="curve"/>
      <point x="164.4" y="516.7" type="line"/>
      <point x="89.35" y="446.6" type="line"/>
      <point x="137.85" y="380.4" type="line"/>
      <point x="116.89999999999999" y="352.40000000000003"/>
      <point x="104.85" y="316.7"/>
      <point x="104.85000000000001" y="278.1" type="curve" smooth="yes"/>
      <point x="104.85" y="260.25"/>
      <point x="108.1" y="243.75"/>
      <point x="114.15" y="230.15" type="curve"/>
      <point x="44.400000000000006" y="164.39999999999998" type="line"/>
    </contour>
    <contour>
      <point x="245.25" y="236.4" type="curve" smooth="yes"/>
      <point x="213.95000000000002" y="236.4"/>
      <point x="192.60000000000002" y="260.45"/>
      <point x="192.6" y="293.54999999999995" type="curve" smooth="yes"/>
      <point x="192.6" y="338.15"/>
      <point x="229.05" y="375.05"/>
      <point x="267.05" y="375.05" type="curve" smooth="yes"/>
      <point x="298.9" y="375.05"/>
      <point x="320.25" y="350.35"/>
      <point x="320.25" y="318.25" type="curve" smooth="yes"/>
      <point x="320.25" y="272.0"/>
      <point x="283.05" y="236.4"/>
    </contour>
  </outline>
</glyph>
<glyph name="yen" format="2">
  <advance width="1042.8"/>
  <unicode hex="00A5"/>
  <outline>
    <contour>
      <point x="180.2" y="315.2" type="line"/>
      <point x="438.4" y="315.2" type="line"/>
      <point x="428.6000000000001" y="255.3" type="line"/>
      <point x="170.39999999999998" y="255.3" type="line"/>
      <point x="158.20000000000002" y="176.9" type="line"/>
      <point x="416.4" y="176.9" type="line"/>
      <point x="388.5" y="0.0" type="line"/>
      <point x="568.1" y="0.0" type="line"/>
      <point x="596.0000000000001" y="176.9" type="line"/>
      <point x="860.8" y="176.9" type="line"/>
      <point x="873.0000000000001" y="255.3" type="line"/>
      <point x="608.2000000000002" y="255.3" type="line"/>
      <point x="618.0" y="315.2" type="line"/>
      <point x="882.8000000000001" y="315.2" type="line"/>
      <point x="895.0" y="393.59999999999997" type="line"/>
      <point x="630.1999999999999" y="393.59999999999997" type="line"/>
      <point x="981.3" y="696.4" type="line"/>
      <point x="806.5999999999999" y="703.6" type="line"/>
      <point x="556.6" y="486.00000000000006" type="line"/>
      <point x="371.1" y="703.5999999999999" type="line"/>
      <point x="193.6" y="696.4" type="line"/>
      <point x="450.59999999999997" y="393.59999999999997" type="line"/>
      <point x="193.39999999999998" y="393.59999999999997" type="line"/>
    </contour>
  </outline>
</glyph>
<glyph name="brokenbar" format="2">
  <advance width="325.1"/>
  <unicode hex="00A6"/>
  <outline>
    <contour>
      <point x="242.9" y="391.0" type="line"/>
      <point x="307.45" y="790.0" type="line"/>
      <point x="183.29999999999998" y="790.0" type="line"/>
      <point x="118.75" y="391.0" type="line"/>
    </contour>
    <contour>
      <point x="87.19999999999999" y="190.0" type="line"/>
      <point x="22.65" y="-210.0" type="line"/>
      <point x="146.25" y="-210.0" type="line"/>
      <point x="210.8" y="190.0" type="line"/>
    </contour>
  </outline>
</glyph>
<glyph name="section" format="2">
  <advance width="685.75"/>
  <unicode hex="00A7"/>
  <outline>
    <contour>
      <point x="27.5" y="-40.8" type="curve"/>
      <point x="-24.45" y="-162.95" type="line"/>
      <point x="47.35" y="-198.55"/>
      <point x="119.50000000000001" y="-220.0"/>
      <point x="204.3" y="-220.0" type="curve" smooth="yes"/>
      <point x="420.65" y="-220.0"/>
      <point x="617.25" y="-107.2"/>
      <point x="617.25" y="130.9" type="curve" smooth="yes"/>
      <point x="617.25" y="310.4"/>
      <point x="471.84999999999997" y="418.85"/>
      <point x="471.84999999999997" y="525.4499999999999" type="curve" smooth="yes"/>
      <point x="471.84999999999997" y="583.6"/>
      <point x="507.54999999999995" y="613.4499999999999"/>
      <point x="565.8" y="613.4499999999999" type="curve" smooth="yes"/>
      <point x="594.0" y="613.4499999999999"/>
      <point x="617.0" y="605.5"/>
      <point x="639.65" y="597.8" type="curve"/>
      <point x="677.9" y="729.45" type="line"/>
      <point x="621.5999999999999" y="742.3"/>
      <point x="558.25" y="750.0"/>
      <point x="494.55" y="750.0" type="curve" smooth="yes"/>
      <point x="269.0" y="750.0"/>
      <point x="79.6" y="623.85"/>
      <point x="79.6" y="400.5" type="curve" smooth="yes"/>
      <point x="79.6" y="208.9"/>
      <point x="226.25" y="100.05000000000001"/>
      <point x="226.25" y="-1.7999999999999985" type="curve" smooth="yes"/>
      <point x="226.25" y="-53.0"/>
      <point x="190.5" y="-83.25"/>
      <point x="144.6" y="-83.25" type="curve" smooth="yes"/>
      <point x="105.64999999999999" y="-83.25"/>
      <point x="65.9" y="-62.94999999999999"/>
    </contour>
    <contour>
      <point x="446.75" y="661.75" type="curve"/>
      <point x="373.55" y="634.4000000000001"/>
      <point x="347.15000000000003" y="575.95"/>
      <point x="347.15000000000003" y="509.25" type="curve" smooth="yes"/>
      <point x="347.15000000000003" y="379.34999999999997"/>
      <point x="484.85" y="226.45"/>
      <point x="484.85" y="92.15" type="curve" smooth="yes"/>
      <point x="484.85" y="-59.4"/>
      <point x="354.29999999999995" y="-149.55"/>
      <point x="212.79999999999998" y="-141.14999999999998" type="curve"/>
      <point x="295.8" y="-123.0"/>
      <point x="351.95000000000005" y="-56.949999999999996"/>
      <point x="351.95000000000005" y="19.850000000000012" type="curve" smooth="yes"/>
      <point x="351.95000000000005" y="139.20000000000002"/>
      <point x="218.3" y="272.75"/>
      <point x="218.3" y="418.55" type="curve" smooth="yes"/>
      <point x="218.3" y="557.5"/>
      <point x="300.5" y="649.6"/>
    </contour>
  </outline>
</glyph>
<glyph name="copyright" format="2">
  <advance width="945.1999999999998"/>
  <unicode hex="00A9"/>
  <outline>
    <contour>
      <point x="457.09999999999997" y="-10.0" type="curve" smooth="yes"/>
      <point x="720.6" y="-12.1"/>
      <point x="896.3" y="133.49999999999997"/>
      <point x="896.3" y="388.5" type="curve" smooth="yes"/>
      <point x="896.3" y="594.9"/>
      <point x="736.8" y="707.9"/>
      <point x="509.40000000000003" y="710.0000000000001" type="curve" smooth="yes"/>
      <point x="254.0" y="712.1"/>
      <point x="72.89999999999999" y="572.8"/>
      <point x="72.89999999999999" y="311.5" type="curve" smooth="yes"/>
      <point x="72.89999999999999" y="106.89999999999999"/>
      <point x="228.8" y="-7.9"/>
    </contour>
    <contour>
      <point x="473.3" y="171.5" type="curve" smooth="yes"/>
      <point x="551.3" y="171.5"/>
      <point x="618.5" y="186.6"/>
      <point x="671.4" y="205.6" type="curve"/>
      <point x="660.3000000000001" y="282.7" type="line"/>
      <point x="606.1999999999999" y="268.70000000000005"/>
      <point x="551.9999999999999" y="258.8"/>
      <point x="498.19999999999993" y="258.8" type="curve" smooth="yes"/>
      <point x="416.70000000000005" y="258.8"/>
      <point x="370.6" y="287.9"/>
      <point x="370.6" y="341.90000000000003" type="curve" smooth="yes"/>
      <point x="370.6" y="410.8"/>
      <point x="424.3" y="444.20000000000005"/>
      <point x="522.1999999999999" y="444.20000000000005" type="curve" smooth="yes"/>
      <point x="576.5999999999999" y="444.20000000000005"/>
      <point x="621.4" y="438.40000000000003"/>
      <point x="674.1999999999999" y="427.6" type="curve"/>
      <point x="695.6" y="509.9" type="line"/>
      <point x="646.8" y="522.8"/>
      <point x="589.0" y="531.5999999999999"/>
      <point x="526.1999999999999" y="531.5999999999999" type="curve" smooth="yes"/>
      <point x="364.69999999999993" y="531.5999999999999"/>
      <point x="259.1" y="468.4"/>
      <point x="259.1" y="334.5" type="curve" smooth="yes"/>
      <point x="259.1" y="231.39999999999998"/>
      <point x="341.8" y="171.5"/>
    </contour>
    <contour>
      <point x="466.49999999999994" y="58.300000000000004" type="curve" smooth="yes"/>
      <point x="272.4" y="58.300000000000004"/>
      <point x="150.8" y="143.8"/>
      <point x="150.8" y="320.69999999999993" type="curve" smooth="yes"/>
      <point x="150.8" y="528.3"/>
      <point x="283.09999999999997" y="642.5999999999999"/>
      <point x="500.9" y="642.5999999999999" type="curve" smooth="yes"/>
      <point x="689.5" y="642.5999999999999"/>
      <point x="818.4" y="556.1999999999999"/>
      <point x="818.4" y="378.4" type="curve" smooth="yes"/>
      <point x="818.4" y="170.8"/>
      <point x="684.3000000000001" y="58.300000000000004"/>
    </contour>
  </outline>
</glyph>
<glyph name="ordfeminine" format="2">
  <advance width="570.2"/>
  <unicode hex="00AA"/>
  <outline>
    <contour>
      <point x="40.75" y="217.25" type="line"/>
      <point x="496.75" y="217.25" type="line"/>
      <point x="509.65" y="299.59999999999997" type="line"/>
      <point x="53.65" y="299.59999999999997" type="line"/>
    </contour>
    <component base="a.superior" xOffset="12.499999999999998"/>
  </outline>
</glyph>
<glyph name="logicalnot" format="2">
  <advance width="638.4"/>
  <unicode hex="00AC"/>
  <outline>
    <contour>
      <point x="69.55" y="327.35" type="line"/>
      <point x="470.0" y="327.35" type="line"/>
      <point x="444.6" y="163.25" type="line"/>
      <point x="558.85" y="163.25" type="line"/>
      <point x="604.3" y="448.2" type="line"/>
      <point x="89.6" y="448.2" type="line"/>
    </contour>
  </outline>
</glyph>
<glyph name="registered" format="2">
  <advance width="888.0999999999999"/>
  <unicode hex="00AE"/>
  <outline>
    <contour>
      <point x="460.3" y="209.9" type="curve" smooth="yes"/>
      <point x="717.6" y="209.9"/>
      <point x="870.3" y="354.5"/>
      <point x="870.3" y="581.1" type="curve" smooth="yes"/>
      <point x="870.3" y="772.4000000000001"/>
      <point x="742.0" y="892.1"/>
      <point x="514.9" y="892.1" type="curve" smooth="yes"/>
      <point x="257.6" y="892.1"/>
      <point x="105.8" y="747.5"/>
      <point x="105.8" y="520.8999999999999" type="curve" smooth="yes"/>
      <point x="105.8" y="330.49999999999994"/>
      <point x="232.3" y="209.9"/>
    </contour>
    <contour>
      <point x="468.6" y="277.20000000000005" type="curve" smooth="yes"/>
      <point x="276.8" y="277.20000000000005"/>
      <point x="176.3" y="373.09999999999997"/>
      <point x="176.3" y="521.9" type="curve" smooth="yes"/>
      <point x="176.3" y="720.8"/>
      <point x="300.3" y="825.6999999999999"/>
      <point x="507.50000000000006" y="825.6999999999999" type="curve" smooth="yes"/>
      <point x="699.3" y="825.6999999999999"/>
      <point x="799.8" y="728.9"/>
      <point x="799.8" y="580.1" type="curve" smooth="yes"/>
      <point x="799.8" y="381.20000000000005"/>
      <point x="674.9" y="277.20000000000005"/>
    </contour>
    <contour>
      <point x="283.3" y="401.80000000000007" type="line"/>
      <point x="375.29999999999995" y="401.80000000000007" type="line"/>
      <point x="392.9" y="507.5" type="line"/>
      <point x="415.8999999999999" y="507.49999999999994"/>
      <point x="441.59999999999997" y="506.6"/>
      <point x="473.59999999999997" y="507.50000000000006" type="curve"/>
      <point x="564.0" y="532.6" type="line"/>
      <point x="634.3" y="532.4"/>
      <point x="689.5" y="552.1"/>
      <point x="689.5" y="632.3000000000001" type="curve" smooth="yes"/>
      <point x="689.5" y="688.9000000000001"/>
      <point x="640.9000000000001" y="712.9"/>
      <point x="505.09999999999997" y="712.9" type="curve" smooth="yes"/>
      <point x="472.0" y="712.9"/>
      <point x="416.1" y="712.8000000000001"/>
      <point x="331.99999999999994" y="708.7" type="curve"/>
    </contour>
    <contour>
      <point x="472.90000000000003" y="565.1" type="curve" smooth="yes"/>
      <point x="453.0999999999999" y="565.1"/>
      <point x="437.20000000000005" y="566.1"/>
      <point x="402.2" y="566.0999999999999" type="curve"/>
      <point x="413.8" y="644.2" type="line"/>
      <point x="458.09999999999997" y="646.0"/>
      <point x="464.9000000000001" y="646.0"/>
      <point x="500.9" y="646.0" type="curve" smooth="yes"/>
      <point x="570.4" y="646.0"/>
      <point x="592.4" y="638.4"/>
      <point x="592.4" y="612.7" type="curve" smooth="yes"/>
      <point x="592.4" y="574.7"/>
      <point x="575.3" y="565.1"/>
    </contour>
    <contour>
      <point x="667.3000000000001" y="398.6" type="curve" smooth="yes"/>
      <point x="669.4000000000001" y="398.6"/>
      <point x="672.4" y="398.6"/>
      <point x="675.3" y="398.6" type="curve"/>
      <point x="687.7" y="480.2" type="line"/>
      <point x="684.8" y="480.2"/>
      <point x="682.7" y="480.2"/>
      <point x="680.6" y="480.2" type="curve" smooth="yes"/>
      <point x="658.8000000000001" y="480.2"/>
      <point x="603.8" y="506.59999999999997"/>
      <point x="563.8" y="539.6999999999999" type="curve"/>
      <point x="449.2" y="513.7" type="line"/>
      <point x="519.1999999999999" y="460.20000000000005"/>
      <point x="592.5" y="398.6"/>
    </contour>
  </outline>
</glyph>
<glyph name="degree" format="2">
  <advance width="374.7"/>
  <unicode hex="00B0"/>
  <outline>
    <contour>
      <point x="212.6" y="404.5" type="curve" smooth="yes"/>
      <point x="308.0" y="404.5"/>
      <point x="384.09999999999997" y="478.90000000000003"/>
      <point x="384.09999999999997" y="588.3000000000001" type="curve" smooth="yes"/>
      <point x="384.09999999999997" y="655.9000000000001"/>
      <point x="344.5" y="717.0"/>
      <point x="252.3" y="717.0" type="curve" smooth="yes"/>
      <point x="157.8" y="717.0"/>
      <point x="81.7" y="640.8000000000001"/>
      <point x="81.7" y="532.3000000000001" type="curve" smooth="yes"/>
      <point x="81.7" y="465.6"/>
      <point x="120.4" y="404.5"/>
    </contour>
    <contour>
      <point x="224.1" y="500.5" type="curve" smooth="yes"/>
      <point x="195.6" y="500.5"/>
      <point x="179.0" y="520.9"/>
      <point x="179.0" y="548.3" type="curve" smooth="yes"/>
      <point x="179.0" y="590.5999999999999"/>
      <point x="207.20000000000002" y="621.0"/>
      <point x="241.7" y="621.0" type="curve" smooth="yes"/>
      <point x="271.1" y="621.0"/>
      <point x="286.8" y="600.5999999999999"/>
      <point x="286.8" y="572.3000000000001" type="curve" smooth="yes"/>
      <point x="286.8" y="531.8"/>
      <point x="257.7" y="500.5"/>
    </contour>
  </outline>
</glyph>
<glyph name="plusminus" format="2">
  <advance width="639.5"/>
  <unicode hex="00B1"/>
  <outline>
    <contour>
      <point x="537.9" y="32.75" type="line"/>
      <point x="557.95" y="153.6" type="line"/>
      <point x="367.35" y="153.6" type="line"/>
      <point x="391.1" y="304.5" type="line"/>
      <point x="581.7" y="304.5" type="line"/>
      <point x="601.75" y="425.34999999999997" type="line"/>
      <point x="411.15" y="425.34999999999997" type="line"/>
      <point x="437.0" y="589.35" type="line"/>
      <point x="302.95" y="589.35" type="line"/>
      <point x="276.0" y="425.34999999999997" type="line"/>
      <point x="87.05" y="425.34999999999997" type="line"/>
      <point x="67.0" y="304.5" type="line"/>
      <point x="257.05" y="304.5" type="line"/>
      <point x="232.20000000000002" y="153.6" type="line"/>
      <point x="43.25" y="153.6" type="line"/>
      <point x="23.2" y="32.75" type="line"/>
    </contour>
  </outline>
</glyph>
<glyph name="uni00B2" format="2">
  <advance width="620.65"/>
  <unicode hex="00B2"/>
  <outline>
    <contour>
      <point x="82.1" y="370.0" type="line"/>
      <point x="572.85" y="370.0" type="line"/>
      <point x="584.4" y="440.45000000000005" type="line"/>
      <point x="296.8" y="440.45000000000005" type="line"/>
      <point x="426.25" y="498.5"/>
      <point x="544.35" y="552.5"/>
      <point x="544.35" y="654.9" type="curve" smooth="yes"/>
      <point x="544.35" y="738.3000000000001"/>
      <point x="458.05" y="771.65"/>
      <point x="362.0" y="771.65" type="curve" smooth="yes"/>
      <point x="294.75" y="771.65"/>
      <point x="201.35000000000002" y="751.9"/>
      <point x="145.2" y="726.4" type="curve"/>
      <point x="167.25" y="655.5" type="line"/>
      <point x="218.64999999999998" y="679.7"/>
      <point x="274.84999999999997" y="693.5"/>
      <point x="321.95" y="693.5" type="curve" smooth="yes"/>
      <point x="376.65" y="693.5"/>
      <point x="412.40000000000003" y="672.95"/>
      <point x="412.40000000000003" y="633.65" type="curve" smooth="yes"/>
      <point x="412.4" y="551.4"/>
      <point x="302.09999999999997" y="504.5"/>
      <point x="89.25" y="425.79999999999995" type="curve"/>
    </contour>
  </outline>
</glyph>
<glyph name="uni00B3" format="2">
  <advance width="588.5"/>
  <unicode hex="00B3"/>
  <outline>
    <contour>
      <point x="48.650000000000006" y="404.6" type="line"/>
      <point x="114.85000000000001" y="373.84999999999997"/>
      <point x="202.6" y="362.90000000000003"/>
      <point x="301.35" y="362.90000000000003" type="curve" smooth="yes"/>
      <point x="458.2" y="362.90000000000003"/>
      <point x="581.95" y="396.05"/>
      <point x="581.95" y="497.00000000000006" type="curve" smooth="yes"/>
      <point x="581.95" y="537.0"/>
      <point x="548.95" y="569.8000000000001"/>
      <point x="485.59999999999997" y="582.0" type="curve"/>
      <point x="544.0" y="593.8"/>
      <point x="586.0" y="627.1500000000001"/>
      <point x="586.0" y="674.4499999999999" type="curve" smooth="yes"/>
      <point x="586.0" y="736.6500000000001"/>
      <point x="501.59999999999997" y="771.65"/>
      <point x="347.65000000000003" y="771.65" type="curve" smooth="yes"/>
      <point x="274.65" y="771.65"/>
      <point x="181.0" y="760.55"/>
      <point x="130.1" y="747.1" type="curve"/>
      <point x="132.35" y="676.65" type="line"/>
      <point x="195.45" y="689.5500000000001"/>
      <point x="272.9" y="696.8"/>
      <point x="327.5" y="696.8" type="curve" smooth="yes"/>
      <point x="416.20000000000005" y="696.8"/>
      <point x="471.1" y="682.1"/>
      <point x="471.1" y="654.0" type="curve" smooth="yes"/>
      <point x="471.1" y="621.3499999999999"/>
      <point x="421.6" y="603.5"/>
      <point x="335.34999999999997" y="603.5" type="curve" smooth="yes"/>
      <point x="205.79999999999998" y="603.5" type="line"/>
      <point x="195.0" y="540.2" type="line"/>
      <point x="309.29999999999995" y="540.2" type="line" smooth="yes"/>
      <point x="429.15" y="540.2"/>
      <point x="467.7" y="521.75"/>
      <point x="467.7" y="490.15000000000003" type="curve" smooth="yes"/>
      <point x="467.7" y="450.5"/>
      <point x="408.0" y="433.9"/>
      <point x="297.05" y="433.9" type="curve" smooth="yes"/>
      <point x="206.95000000000002" y="433.9"/>
      <point x="131.0" y="448.15"/>
      <point x="78.9" y="471.3" type="curve"/>
    </contour>
  </outline>
</glyph>
<glyph name="uni00B5" format="2">
  <advance width="836.25"/>
  <unicode hex="00B5"/>
  <outline>
    <contour>
      <point x="12.149999999999999" y="-210.0" type="line"/>
      <point x="176.35000000000002" y="-210.0" type="line"/>
      <point x="215.65" y="37.45" type="line"/>
      <point x="228.8" y="8.100000000000001"/>
      <point x="259.6" y="-10.0"/>
      <point x="308.85" y="-10.0" type="curve" smooth="yes"/>
      <point x="394.15" y="-10.0"/>
      <point x="473.85" y="21.6"/>
      <point x="559.45" y="77.45" type="curve"/>
      <point x="573.2" y="21.950000000000003"/>
      <point x="616.6999999999999" y="-10.0"/>
      <point x="679.9000000000001" y="-10.0" type="curve" smooth="yes"/>
      <point x="714.3000000000001" y="-10.0"/>
      <point x="756.3" y="0.1500000000000008"/>
      <point x="787.35" y="20.35" type="curve"/>
      <point x="784.9" y="112.7" type="line"/>
      <point x="771.45" y="108.25"/>
      <point x="760.5" y="106.9"/>
      <point x="755.6999999999999" y="106.9" type="curve" smooth="yes"/>
      <point x="733.1" y="106.9"/>
      <point x="718.1500000000001" y="118.75000000000001"/>
      <point x="718.1500000000001" y="154.20000000000002" type="curve" smooth="yes"/>
      <point x="718.1500000000001" y="162.7"/>
      <point x="719.15" y="180.60000000000002"/>
      <point x="777.65" y="541.0" type="curve"/>
      <point x="611.9" y="541.0" type="line"/>
      <point x="554.95" y="166.3" type="line"/>
      <point x="484.4" y="131.35"/>
      <point x="418.05" y="108.00000000000001"/>
      <point x="344.75" y="108.00000000000001" type="curve" smooth="yes"/>
      <point x="276.35" y="108.00000000000001"/>
      <point x="241.39999999999998" y="137.55"/>
      <point x="241.4" y="194.45" type="curve" smooth="yes"/>
      <point x="241.39999999999998" y="216.15000000000003"/>
      <point x="245.14999999999998" y="240.29999999999995"/>
      <point x="295.2" y="541.0" type="curve"/>
      <point x="129.89999999999998" y="541.0" type="line"/>
    </contour>
  </outline>
</glyph>
<glyph name="paragraph" format="2">
  <advance width="794.2"/>
  <unicode hex="00B6"/>
  <outline>
    <contour>
      <point x="497.7" y="-210.0" type="line"/>
      <point x="619.6500000000001" y="-210.0" type="line"/>
      <point x="770.2" y="740.0" type="line"/>
      <point x="648.25" y="740.0" type="line"/>
    </contour>
    <contour>
      <point x="314.7" y="277.15000000000003" type="line"/>
      <point x="254.5" y="285.5"/>
      <point x="211.85000000000002" y="330.04999999999995"/>
      <point x="211.85000000000002" y="399.20000000000005" type="curve" smooth="yes"/>
      <point x="211.85000000000002" y="512.25"/>
      <point x="272.35" y="619.15"/>
      <point x="419.45" y="620.5" type="curve"/>
      <point x="288.40000000000003" y="-210.0" type="line"/>
      <point x="410.34999999999997" y="-210.0" type="line"/>
      <point x="560.9" y="740.0" type="line"/>
      <point x="471.80000000000007" y="740.0" type="line" smooth="yes"/>
      <point x="219.45" y="740.0"/>
      <point x="81.3" y="628.0"/>
      <point x="81.3" y="399.79999999999995" type="curve" smooth="yes"/>
      <point x="81.3" y="275.35"/>
      <point x="157.55" y="202.05"/>
      <point x="288.8" y="191.5" type="curve"/>
    </contour>
  </outline>
</glyph>
<glyph name="periodcentered" format="2">
  <advance width="308.4"/>
  <unicode hex="00B7"/>
  <outline>
    <contour>
      <point x="66.7" y="289.90000000000003" type="curve" smooth="yes"/>
      <point x="65.8" y="252.3"/>
      <point x="91.69999999999999" y="232.60000000000002"/>
      <point x="145.8" y="232.60000000000002" type="curve" smooth="yes"/>
      <point x="209.89999999999998" y="232.60000000000002"/>
      <point x="248.3" y="255.6"/>
      <point x="249.20000000000002" y="315.9" type="curve" smooth="yes"/>
      <point x="250.10000000000002" y="354.6"/>
      <point x="224.20000000000002" y="374.3"/>
      <point x="170.20000000000002" y="374.3" type="curve" smooth="yes"/>
      <point x="107.1" y="374.3"/>
      <point x="67.6" y="348.0"/>
    </contour>
  </outline>
</glyph>
<glyph name="uni00B9" format="2">
  <advance width="534.85"/>
  <unicode hex="00B9"/>
  <outline>
    <contour>
      <point x="59.900000000000006" y="370.0" type="line"/>
      <point x="526.4" y="370.0" type="line"/>
      <point x="538.3" y="440.45" type="line"/>
      <point x="381.6" y="440.45" type="line"/>
      <point x="433.7" y="765.8" type="line"/>
      <point x="364.3" y="765.8" type="line"/>
      <point x="92.0" y="662.6500000000001" type="line"/>
      <point x="105.0" y="584.5" type="line"/>
      <point x="292.59999999999997" y="657.0" type="line"/>
      <point x="256.25" y="440.45" type="line"/>
      <point x="71.35000000000001" y="440.45" type="line"/>
    </contour>
  </outline>
</glyph>
<glyph name="ordmasculine" format="2">
  <advance width="539.75"/>
  <unicode hex="00BA"/>
  <outline>
    <contour>
      <point x="36.45" y="217.25" type="line"/>
      <point x="482.0" y="217.25" type="line"/>
      <point x="494.90000000000003" y="299.59999999999997" type="line"/>
      <point x="49.35" y="299.59999999999997" type="line"/>
    </contour>
    <component base="o.superior" xOffset="8.0"/>
  </outline>
</glyph>
<glyph name="AE" format="2">
  <advance width="1469.7"/>
  <unicode hex="00C6"/>
  <anchor x="693.4000000000001" y="0.0" name="bottom"/>
  <anchor x="815.4" y="700.0" name="top"/>
  <outline>
    <contour>
      <point x="612.9999999999999" y="0.0" type="line"/>
      <point x="1376.6" y="0.0" type="line"/>
      <point x="1398.9" y="133.0" type="line"/>
      <point x="801.5" y="133.0" type="line"/>
      <point x="827.6" y="298.8" type="line"/>
      <point x="1367.1000000000001" y="298.8" type="line"/>
      <point x="1388.1000000000001" y="425.7" type="line"/>
      <point x="847.6999999999999" y="425.7" type="line"/>
      <point x="870.2" y="566.9999999999999" type="line"/>
      <point x="1440.5" y="566.9999999999999" type="line"/>
      <point x="1462.8" y="700.0" type="line"/>
      <point x="631.4" y="700.0" type="line"/>
      <point x="-42.2" y="0.0" type="line"/>
      <point x="148.1" y="0.0" type="line"/>
      <point x="376.5" y="235.6" type="line"/>
      <point x="650.5000000000001" y="235.6" type="line"/>
    </contour>
    <contour>
      <point x="471.2" y="347.29999999999995" type="line"/>
      <point x="707.0" y="595.1" type="line"/>
      <point x="667.5999999999999" y="347.29999999999995" type="line"/>
    </contour>
  </outline>
</glyph>
<glyph name="multiply" format="2">
  <advance width="576.8000000000001"/>
  <unicode hex="00D7"/>
  <outline>
    <contour>
      <point x="103.05" y="71.5" type="line"/>
      <point x="282.20000000000005" y="226.79999999999998" type="line"/>
      <point x="416.34999999999997" y="65.39999999999999" type="line"/>
      <point x="500.85" y="159.14999999999998" type="line"/>
      <point x="380.45" y="304.59999999999997" type="line"/>
      <point x="550.6" y="452.2" type="line"/>
      <point x="485.15000000000003" y="540.35" type="line"/>
      <point x="304.55" y="383.95" type="line"/>
      <point x="167.6" y="546.95" type="line"/>
      <point x="84.75" y="458.15" type="line"/>
      <point x="208.5" y="306.70000000000005" type="line"/>
      <point x="37.05" y="156.89999999999998" type="line"/>
    </contour>
  </outline>
</glyph>
<glyph name="Oslash" format="2">
  <advance width="1111.5000000000002"/>
  <unicode hex="00D8"/>
  <anchor x="599.0" y="700.0" name="top"/>
  <outline>
    <contour>
      <point x="1142.5000000000002" y="711.0" type="line"/>
      <point x="966.2000000000002" y="711.0" type="line"/>
      <point x="829.6" y="612.5" type="line"/>
      <point x="831.4999999999999" y="610.6" type="line"/>
      <point x="198.6" y="159.70000000000002" type="line"/>
      <point x="199.6" y="157.7" type="line"/>
      <point x="-26.900000000000002" y="-6.500000000000001" type="line"/>
      <point x="148.3" y="-6.500000000000001" type="line"/>
      <point x="279.8" y="87.89999999999999" type="line"/>
      <point x="277.90000000000003" y="89.8" type="line"/>
      <point x="934.5" y="557.0999999999999" type="line"/>
      <point x="933.4999999999999" y="559.1" type="line"/>
    </contour>
    <contour>
      <point x="539.7" y="-10.0" type="curve" smooth="yes"/>
      <point x="867.6" y="-10.0"/>
      <point x="1055.0" y="131.2"/>
      <point x="1055.0" y="386.49999999999994" type="curve" smooth="yes"/>
      <point x="1055.0" y="596.0999999999999"/>
      <point x="904.2" y="710.9"/>
      <point x="575.0" y="710.9" type="curve" smooth="yes"/>
      <point x="247.1" y="710.9"/>
      <point x="59.7" y="569.7"/>
      <point x="59.7" y="314.4" type="curve" smooth="yes"/>
      <point x="59.7" y="104.8"/>
      <point x="210.50000000000003" y="-10.0"/>
    </contour>
    <contour>
      <point x="547.4" y="105.80000000000001" type="curve" smooth="yes"/>
      <point x="331.1" y="105.80000000000001"/>
      <point x="234.0" y="182.4"/>
      <point x="234.0" y="324.1" type="curve" smooth="yes"/>
      <point x="234.0" y="500.0"/>
      <point x="356.0" y="595.1000000000001"/>
      <point x="567.3000000000001" y="595.1000000000001" type="curve" smooth="yes"/>
      <point x="783.6" y="595.1000000000001"/>
      <point x="880.7" y="518.4999999999999"/>
      <point x="880.7" y="376.79999999999995" type="curve" smooth="yes"/>
      <point x="880.7" y="200.9"/>
      <point x="758.6999999999999" y="105.80000000000001"/>
    </contour>
  </outline>
</glyph>
<glyph name="Thorn" format="2">
  <advance width="1021.9000000000001"/>
  <unicode hex="00DE"/>
  <outline>
    <contour>
      <point x="57.7" y="0.0" type="line"/>
      <point x="231.25000000000003" y="0.0" type="line"/>
      <point x="252.2" y="128.2" type="line"/>
      <point x="366.90000000000003" y="124.19999999999999"/>
      <point x="418.5" y="123.19999999999999"/>
      <point x="499.69999999999993" y="123.19999999999999" type="curve" smooth="yes"/>
      <point x="863.1" y="123.19999999999999"/>
      <point x="998.8" y="201.55"/>
      <point x="998.8" y="407.65000000000003" type="curve" smooth="yes"/>
      <point x="998.8" y="567.3000000000001"/>
      <point x="889.0" y="633.85"/>
      <point x="568.1999999999999" y="633.85" type="curve" smooth="yes"/>
      <point x="526.05" y="633.85"/>
      <point x="460.59999999999997" y="632.4000000000001"/>
      <point x="332.65" y="628.25" type="curve"/>
      <point x="345.1" y="700.0" type="line"/>
      <point x="171.55" y="700.0" type="line"/>
    </contour>
    <contour>
      <point x="491.54999999999995" y="246.25" type="curve" smooth="yes"/>
      <point x="412.95" y="246.25"/>
      <point x="369.20000000000005" y="247.25"/>
      <point x="272.8" y="251.70000000000002" type="curve"/>
      <point x="313.05" y="505.84999999999997" type="line"/>
      <point x="456.3" y="511.65000000000003"/>
      <point x="494.3" y="512.5500000000001"/>
      <point x="561.9000000000001" y="512.5500000000001" type="curve" smooth="yes"/>
      <point x="754.1999999999999" y="512.5500000000001"/>
      <point x="818.1" y="480.84999999999997"/>
      <point x="818.1" y="402.0" type="curve" smooth="yes"/>
      <point x="818.1" y="289.0"/>
      <point x="747.5" y="246.25"/>
    </contour>
  </outline>
</glyph>
<glyph name="germandbls" format="2">
  <advance width="948.2"/>
  <unicode hex="00DF"/>
  <outline>
    <contour>
      <point x="88.6" y="-7.699999999999992" type="line" smooth="yes"/>
      <point x="80.0" y="-66.0"/>
      <point x="57.599999999999994" y="-99.6"/>
      <point x="15.399999999999999" y="-99.6" type="curve" smooth="yes"/>
      <point x="2.499999999999994" y="-99.6"/>
      <point x="-16.0" y="-97.6"/>
      <point x="-33.2" y="-90.99999999999999" type="curve"/>
      <point x="-59.199999999999996" y="-199.29999999999998" type="line"/>
      <point x="-24.8" y="-214.7"/>
      <point x="19.6" y="-220.0"/>
      <point x="61.50000000000001" y="-220.0" type="curve" smooth="yes"/>
      <point x="164.3" y="-220.0"/>
      <point x="225.8" y="-149.39999999999998"/>
      <point x="244.10000000000002" y="-32.4" type="curve" smooth="yes"/>
      <point x="324.2" y="472.99999999999994" type="line" smooth="yes"/>
      <point x="344.4" y="599.2"/>
      <point x="419.5" y="643.8"/>
      <point x="574.5" y="643.8" type="curve" smooth="yes"/>
      <point x="679.9000000000001" y="643.8"/>
      <point x="735.7" y="623.9999999999999"/>
      <point x="735.7" y="589.7" type="curve" smooth="yes"/>
      <point x="735.7" y="557.9"/>
      <point x="720.9" y="542.6999999999999"/>
      <point x="589.4" y="525.9" type="curve" smooth="yes"/>
      <point x="455.7" y="508.9"/>
      <point x="393.20000000000005" y="461.5"/>
      <point x="393.20000000000005" y="362.6" type="curve" smooth="yes"/>
      <point x="393.20000000000005" y="271.79999999999995"/>
      <point x="457.1" y="230.7"/>
      <point x="611.9000000000001" y="211.2" type="curve" smooth="yes"/>
      <point x="733.6000000000001" y="195.6"/>
      <point x="781.1999999999999" y="183.5"/>
      <point x="781.1999999999999" y="146.20000000000002" type="curve" smooth="yes"/>
      <point x="781.1999999999999" y="101.10000000000001"/>
      <point x="724.1" y="91.70000000000002"/>
      <point x="625.5" y="91.70000000000002" type="curve" smooth="yes"/>
      <point x="546.2" y="91.70000000000002"/>
      <point x="430.0" y="110.50000000000001"/>
      <point x="352.79999999999995" y="135.9" type="curve"/>
      <point x="323.1" y="34.2" type="line"/>
      <point x="411.09999999999997" y="6.6000000000000005"/>
      <point x="514.9" y="-10.899999999999999"/>
      <point x="605.1" y="-10.899999999999999" type="curve" smooth="yes"/>
      <point x="822.7" y="-10.899999999999999"/>
      <point x="928.1999999999999" y="38.9"/>
      <point x="928.1999999999999" y="161.40000000000003" type="curve" smooth="yes"/>
      <point x="928.1999999999999" y="244.40000000000003"/>
      <point x="857.9" y="297.3"/>
      <point x="716.5" y="313.6" type="curve" smooth="yes"/>
      <point x="575.1" y="329.8"/>
      <point x="533.0" y="337.4"/>
      <point x="533.0" y="376.59999999999997" type="curve" smooth="yes"/>
      <point x="533.0" y="412.79999999999995"/>
      <point x="577.3000000000001" y="422.19999999999993"/>
      <point x="693.7" y="437.6" type="curve" smooth="yes"/>
      <point x="823.1" y="454.4"/>
      <point x="866.8" y="509.40000000000003"/>
      <point x="866.8" y="596.1999999999999" type="curve" smooth="yes"/>
      <point x="866.8" y="695.7"/>
      <point x="774.8" y="750.0"/>
      <point x="571.9" y="750.0" type="curve" smooth="yes"/>
      <point x="327.9" y="750.0"/>
      <point x="200.70000000000002" y="680.4"/>
      <point x="170.8" y="497.3" type="curve" smooth="yes"/>
      <point x="168.8" y="484.0" type="line"/>
      <point x="45.4" y="469.4" type="line"/>
      <point x="29.3" y="376.99999999999994" type="line"/>
      <point x="149.50000000000003" y="376.99999999999994" type="line"/>
    </contour>
  </outline>
</glyph>
<glyph name="ae" format="2">
  <advance width="1298.5"/>
  <unicode hex="00E6"/>
  <anchor x="603.9" y="0.0" name="bottom"/>
  <anchor x="683.9000000000001" y="541.0" name="top"/>
  <outline>
    <contour>
      <point x="286.00000000000006" y="-10.0" type="curve" smooth="yes"/>
      <point x="374.90000000000003" y="-10.0"/>
      <point x="465.70000000000005" y="23.0"/>
      <point x="537.0" y="64.99999999999999" type="curve"/>
      <point x="527.0" y="-4.440892098500626e-16" type="line"/>
      <point x="672.6000000000001" y="-4.440892098500626e-16" type="line"/>
      <point x="684.3000000000002" y="74.9" type="line"/>
      <point x="727.2" y="27.4"/>
      <point x="809.2" y="-10.0"/>
      <point x="931.9" y="-10.0" type="curve" smooth="yes"/>
      <point x="1024.8" y="-10.0"/>
      <point x="1129.8" y="8.2"/>
      <point x="1212.9" y="35.400000000000006" type="curve"/>
      <point x="1199.1999999999998" y="142.40000000000003" type="line"/>
      <point x="1103.3" y="112.20000000000002"/>
      <point x="997.1" y="97.0"/>
      <point x="936.5" y="97.0" type="curve" smooth="yes"/>
      <point x="801.5" y="97.0"/>
      <point x="709.6" y="152.2"/>
      <point x="709.6" y="236.60000000000002" type="curve" smooth="yes"/>
      <point x="709.6" y="360.2"/>
      <point x="812.6999999999998" y="448.3"/>
      <point x="963.4999999999999" y="448.3" type="curve" smooth="yes"/>
      <point x="1049.9999999999998" y="448.3"/>
      <point x="1094.8" y="423.9"/>
      <point x="1094.8" y="378.9" type="curve" smooth="yes"/>
      <point x="1094.8" y="324.2"/>
      <point x="1008.5999999999999" y="295.3"/>
      <point x="854.4" y="294.1" type="curve" smooth="yes"/>
      <point x="791.3000000000001" y="293.09999999999997"/>
      <point x="732.9000000000001" y="297.5"/>
      <point x="686.5000000000001" y="306.7" type="curve"/>
      <point x="694.6" y="228.20000000000002" type="line"/>
      <point x="750.0999999999999" y="215.69999999999996"/>
      <point x="824.5999999999999" y="207.9"/>
      <point x="909.8999999999999" y="208.9" type="curve" smooth="yes"/>
      <point x="1143.5" y="210.10000000000002"/>
      <point x="1266.8" y="282.6"/>
      <point x="1266.8" y="390.70000000000005" type="curve" smooth="yes"/>
      <point x="1266.8" y="492.19999999999993"/>
      <point x="1173.3999999999999" y="551.0"/>
      <point x="1020.7000000000002" y="551.0" type="curve" smooth="yes"/>
      <point x="898.5" y="551.0"/>
      <point x="801.1" y="512.7"/>
      <point x="748.3" y="467.80000000000007" type="curve"/>
      <point x="758.7" y="541.0" type="line"/>
      <point x="612.2" y="541.0" type="line"/>
      <point x="605.0999999999999" y="495.4" type="line"/>
      <point x="556.6999999999999" y="532.7"/>
      <point x="494.3" y="551.0"/>
      <point x="419.4" y="551.0" type="curve" smooth="yes"/>
      <point x="193.7" y="551.0"/>
      <point x="38.599999999999994" y="415.59999999999997"/>
      <point x="38.599999999999994" y="218.39999999999998" type="curve" smooth="yes"/>
      <point x="38.599999999999994" y="66.39999999999999"/>
      <point x="133.2" y="-10.0"/>
    </contour>
    <contour>
      <point x="364.6" y="106.8" type="curve" smooth="yes"/>
      <point x="270.29999999999995" y="106.8"/>
      <point x="202.60000000000002" y="150.9"/>
      <point x="202.60000000000002" y="239.4" type="curve" smooth="yes"/>
      <point x="202.60000000000002" y="392.0999999999999"/>
      <point x="336.99999999999994" y="449.4"/>
      <point x="455.69999999999993" y="449.4" type="curve" smooth="yes"/>
      <point x="509.59999999999997" y="449.4"/>
      <point x="550.7" y="441.8"/>
      <point x="592.4" y="416.00000000000006" type="curve"/>
      <point x="551.8" y="159.79999999999998" type="line"/>
      <point x="496.3" y="128.3"/>
      <point x="427.4" y="106.8"/>
    </contour>
  </outline>
</glyph>
<glyph name="eth" format="2">
  <advance width="874.7"/>
  <unicode hex="00F0"/>
  <outline>
    <contour>
      <point x="699.8" y="361.29999999999995" type="curve"/>
      <point x="716.0" y="455.09999999999997" type="line"/>
      <point x="642.4" y="501.80000000000007"/>
      <point x="526.1999999999999" y="526.0999999999999"/>
      <point x="409.00000000000006" y="526.0999999999999" type="curve" smooth="yes"/>
      <point x="191.20000000000002" y="526.0999999999999"/>
      <point x="40.8" y="431.90000000000003"/>
      <point x="40.8" y="244.4" type="curve" smooth="yes"/>
      <point x="40.8" y="52.4"/>
      <point x="188.29999999999998" y="-8.8"/>
      <point x="389.8" y="-8.8" type="curve" smooth="yes"/>
      <point x="642.3999999999999" y="-8.8"/>
      <point x="799.2" y="97.3"/>
      <point x="837.5" y="322.3" type="curve" smooth="yes"/>
      <point x="842.6" y="348.7"/>
      <point x="843.7" y="375.0"/>
      <point x="843.7" y="399.20000000000005" type="curve" smooth="yes"/>
      <point x="843.7" y="655.9"/>
      <point x="630.7000000000002" y="741.8999999999999"/>
      <point x="309.9" y="741.8999999999999" type="curve" smooth="yes"/>
      <point x="235.20000000000002" y="741.8999999999999"/>
      <point x="177.2" y="735.0999999999999"/>
      <point x="115.09999999999998" y="724.4" type="curve"/>
      <point x="103.8" y="635.0" type="line"/>
      <point x="158.8" y="642.6000000000001"/>
      <point x="195.90000000000003" y="649.2"/>
      <point x="294.59999999999997" y="649.2" type="curve" smooth="yes"/>
      <point x="562.4000000000001" y="649.2"/>
      <point x="680.6" y="581.0"/>
      <point x="680.6" y="424.7" type="curve" smooth="yes"/>
      <point x="680.6" y="399.3"/>
      <point x="679.6" y="371.6"/>
      <point x="673.4999999999999" y="338.7" type="curve" smooth="yes"/>
      <point x="646.1" y="170.60000000000002"/>
      <point x="557.8000000000001" y="97.0"/>
      <point x="408.0" y="97.0" type="curve" smooth="yes"/>
      <point x="284.8" y="97.0"/>
      <point x="202.70000000000005" y="137.9"/>
      <point x="202.70000000000005" y="254.09999999999997" type="curve" smooth="yes"/>
      <point x="202.70000000000005" y="369.90000000000003"/>
      <point x="303.20000000000005" y="428.0"/>
      <point x="438.79999999999995" y="428.0" type="curve" smooth="yes"/>
      <point x="551.6" y="428.0"/>
      <point x="635.6" y="402.59999999999997"/>
    </contour>
    <contour>
      <point x="297.40000000000003" y="540.1" type="line"/>
      <point x="597.4000000000001" y="648.9" type="line"/>
      <point x="585.7" y="652.2000000000002" type="line"/>
      <point x="870.5000000000001" y="755.2999999999998" type="line"/>
      <point x="696.4999999999999" y="755.2999999999998" type="line"/>
      <point x="501.79999999999995" y="684.6" type="line"/>
      <point x="515.7" y="682.5" type="line"/>
      <point x="122.39999999999998" y="540.0999999999999" type="line"/>
    </contour>
  </outline>
</glyph>
<glyph name="divide" format="2">
  <advance width="639.5"/>
  <unicode hex="00F7"/>
  <outline>
    <contour>
      <point x="220.8" y="95.9" type="curve" smooth="yes"/>
      <point x="219.90000000000003" y="67.09999999999998"/>
      <point x="240.20000000000002" y="53.89999999999999"/>
      <point x="284.40000000000003" y="53.89999999999999" type="curve" smooth="yes"/>
      <point x="334.20000000000005" y="53.89999999999999"/>
      <point x="366.09999999999997" y="69.29999999999998"/>
      <point x="367.9" y="124.10000000000002" type="curve" smooth="yes"/>
      <point x="368.79999999999995" y="152.89999999999998"/>
      <point x="349.5" y="166.0"/>
      <point x="304.40000000000003" y="166.0" type="curve" smooth="yes"/>
      <point x="256.70000000000005" y="166.0"/>
      <point x="222.60000000000002" y="149.6"/>
    </contour>
    <contour>
      <point x="284.70000000000005" y="487.9" type="curve" smooth="yes"/>
      <point x="283.79999999999995" y="460.1"/>
      <point x="303.0" y="446.0"/>
      <point x="348.2" y="446.0" type="curve" smooth="yes"/>
      <point x="398.1000000000001" y="446.0"/>
      <point x="428.90000000000003" y="463.4"/>
      <point x="430.70000000000005" y="517.2" type="curve" smooth="yes"/>
      <point x="431.6" y="546.0"/>
      <point x="412.40000000000003" y="558.0999999999999"/>
      <point x="367.2" y="558.0999999999999" type="curve" smooth="yes"/>
      <point x="318.4" y="558.0999999999999"/>
      <point x="286.5" y="541.6999999999999"/>
    </contour>
    <contour>
      <point x="57.3" y="244.79999999999995" type="line"/>
      <point x="572.0" y="244.79999999999995" type="line"/>
      <point x="592.6" y="366.09999999999997" type="line"/>
      <point x="77.9" y="366.09999999999997" type="line"/>
    </contour>
  </outline>
</glyph>
<glyph name="oslash" format="2">
  <advance width="839.0999999999999"/>
  <unicode hex="00F8"/>
  <anchor x="446.6" y="541.0" name="top"/>
  <outline>
    <contour>
      <point x="716.7" y="553.0" type="line"/>
      <point x="613.3" y="466.99999999999994" type="line"/>
      <point x="613.3" y="467.00000000000006" type="line"/>
      <point x="192.9" y="118.0" type="line"/>
      <point x="192.9" y="118.00000000000001" type="line"/>
      <point x="39.6" y="-9.9" type="line"/>
      <point x="150.0" y="-9.9" type="line"/>
      <point x="245.4" y="69.90000000000002" type="line"/>
      <point x="245.40000000000003" y="69.90000000000002" type="line"/>
      <point x="679.3000000000001" y="429.3" type="line"/>
      <point x="679.3" y="429.30000000000007" type="line"/>
      <point x="827.4" y="553.0" type="line"/>
    </contour>
    <contour>
      <point x="412.99999999999994" y="-9.9" type="curve" smooth="yes"/>
      <point x="655.8" y="-9.9"/>
      <point x="793.0" y="96.3"/>
      <point x="791.2" y="292.9" type="curve" smooth="yes"/>
      <point x="789.4" y="458.7"/>
      <point x="658.9" y="552.9"/>
      <point x="424.30000000000007" y="552.9" type="curve" smooth="yes"/>
      <point x="181.5" y="552.9"/>
      <point x="44.3" y="446.7"/>
      <point x="46.099999999999994" y="250.09999999999997" type="curve" smooth="yes"/>
      <point x="47.9" y="84.3"/>
      <point x="178.4" y="-9.9"/>
    </contour>
    <contour>
      <point x="414.0" y="91.9" type="curve" smooth="yes"/>
      <point x="281.7" y="91.9"/>
      <point x="210.4" y="144.8"/>
      <point x="210.4" y="262.6" type="curve" smooth="yes"/>
      <point x="210.4" y="382.40000000000003"/>
      <point x="281.40000000000003" y="451.1"/>
      <point x="423.3" y="451.1" type="curve" smooth="yes"/>
      <point x="555.5000000000001" y="451.1"/>
      <point x="626.9" y="399.0"/>
      <point x="626.9" y="281.20000000000005" type="curve" smooth="yes"/>
      <point x="626.9" y="161.40000000000003"/>
      <point x="555.9" y="91.9"/>
    </contour>
  </outline>
</glyph>
<glyph name="thorn" format="2">
  <advance width="838.0500000000001"/>
  <unicode hex="00FE"/>
  <outline>
    <contour>
      <point x="11.149999999999991" y="-210.0" type="line"/>
      <point x="174.8" y="-210.0" type="line"/>
      <point x="210.25" y="7.75" type="line"/>
      <point x="251.60000000000002" y="-0.9500000000000002"/>
      <point x="309.05" y="-10.0"/>
      <point x="373.5" y="-10.0" type="curve" smooth="yes"/>
      <point x="647.75" y="-10.0"/>
      <point x="799.2" y="117.60000000000001"/>
      <point x="799.2" y="336.75" type="curve" smooth="yes"/>
      <point x="799.2" y="469.7"/>
      <point x="720.45" y="551.0"/>
      <point x="569.5999999999999" y="551.0" type="curve" smooth="yes"/>
      <point x="459.0" y="551.0"/>
      <point x="375.4" y="512.95"/>
      <point x="278.85" y="452.6" type="curve"/>
      <point x="324.25" y="740.0" type="line"/>
      <point x="161.7" y="740.0" type="line"/>
    </contour>
    <contour>
      <point x="380.55" y="98.10000000000001" type="curve" smooth="yes"/>
      <point x="320.15" y="98.10000000000001"/>
      <point x="268.2" y="109.05000000000001"/>
      <point x="227.55" y="118.95000000000002" type="curve"/>
      <point x="264.40000000000003" y="350.7" type="line"/>
      <point x="340.85" y="397.9"/>
      <point x="416.45" y="425.85"/>
      <point x="488.90000000000003" y="425.85" type="curve" smooth="yes"/>
      <point x="578.1" y="425.85"/>
      <point x="633.9000000000001" y="385.65"/>
      <point x="633.9000000000001" y="299.75" type="curve" smooth="yes"/>
      <point x="633.9000000000001" y="176.55"/>
      <point x="524.75" y="98.10000000000001"/>
    </contour>
  </outline>
</glyph>
<glyph name="Dcroat" format="2">
  <advance width="1083.8999999999999"/>
  <unicode hex="0110"/>
  <outline>
    <contour>
      <point x="22.7" y="303.5" type="line"/>
      <point x="489.29999999999995" y="303.5" type="line"/>
      <point x="508.8" y="412.90000000000003" type="line"/>
      <point x="41.0" y="412.90000000000003" type="line"/>
    </contour>
    <component base="D" xOffset="5.5"/>
  </outline>
</glyph>
<glyph name="dcroat" format="2">
  <advance width="860.0999999999999"/>
  <unicode hex="0111"/>
  <outline>
    <contour>
      <point x="432.09999999999997" y="603.6999999999999" type="line"/>
      <point x="899.8" y="603.6999999999999" type="line"/>
      <point x="914.0" y="679.1" type="line"/>
      <point x="446.3" y="679.1" type="line"/>
    </contour>
    <component base="d"/>
  </outline>
</glyph>
<glyph name="Hbar" format="2">
  <advance width="1092.6000000000001"/>
  <unicode hex="0126"/>
  <outline>
    <contour>
      <point x="68.5" y="492.85" type="line"/>
      <point x="1095.55" y="492.85" type="line"/>
      <point x="1111.75" y="595.9" type="line"/>
      <point x="84.7" y="595.9" type="line"/>
    </contour>
    <component base="H" xOffset="1.0"/>
  </outline>
</glyph>
<glyph name="hbar" format="2">
  <advance width="839.0"/>
  <unicode hex="0127"/>
  <outline>
    <contour>
      <point x="36.699999999999996" y="603.6999999999999" type="line"/>
      <point x="509.8" y="603.6999999999999" type="line"/>
      <point x="524.0" y="679.1" type="line"/>
      <point x="50.9" y="679.1" type="line"/>
    </contour>
    <component base="h" xOffset="-3.3000000000000007"/>
  </outline>
</glyph>
<glyph name="Idotaccent" format="2">
  <advance width="378.25"/>
  <unicode hex="0130"/>
  <outline>
    <contour>
      <point x="289.85" y="908.95" type="curve" smooth="yes"/>
      <point x="214.15" y="908.95"/>
      <point x="177.79999999999998" y="886.4"/>
      <point x="177.35" y="827.4" type="curve" smooth="yes"/>
      <point x="177.35" y="792.35"/>
      <point x="204.79999999999998" y="772.65"/>
      <point x="265.9" y="772.65" type="curve" smooth="yes"/>
      <point x="328.45" y="772.65"/>
      <point x="377.85" y="787.5"/>
      <point x="378.75" y="855.2" type="curve" smooth="yes"/>
      <point x="378.75" y="889.25"/>
      <point x="352.65" y="908.95"/>
    </contour>
    <component base="I"/>
  </outline>
</glyph>
<glyph name="dotlessi" format="2">
  <advance width="341.25"/>
  <unicode hex="0131"/>
  <anchor x="126.6442" y="0.0" name="bottom"/>
  <anchor x="209.55" y="0.0" name="ogonek"/>
  <anchor x="212.8058" y="541.0" name="top"/>
  <outline>
    <contour>
      <point x="209.55" y="0.0" type="line"/>
      <point x="294.65" y="541.0" type="line"/>
      <point x="130.45000000000002" y="541.0" type="line"/>
      <point x="44.24999999999999" y="0.55" type="line"/>
    </contour>
  </outline>
</glyph>
<glyph name="Ldot" format="2">
  <advance width="858.0500000000001"/>
  <unicode hex="013F"/>
  <outline>
    <contour>
      <point x="553.25" y="405.45" type="curve" smooth="yes"/>
      <point x="552.8000000000001" y="367.84999999999997"/>
      <point x="578.2499999999999" y="348.15000000000003"/>
      <point x="632.8000000000001" y="348.15000000000003" type="curve" smooth="yes"/>
      <point x="696.45" y="348.15000000000003"/>
      <point x="734.85" y="371.15"/>
      <point x="736.1999999999999" y="431.0" type="curve" smooth="yes"/>
      <point x="736.6500000000001" y="469.70000000000005"/>
      <point x="711.2" y="489.40000000000003"/>
      <point x="657.1999999999999" y="489.40000000000003" type="curve" smooth="yes"/>
      <point x="594.1" y="489.40000000000003"/>
      <point x="554.6" y="463.1"/>
    </contour>
    <component base="L"/>
  </outline>
</glyph>
<glyph name="ldot" format="2">
  <advance width="459.1"/>
  <unicode hex="0140"/>
  <outline>
    <contour>
      <point x="365.49555" y="385.5872" type="curve" smooth="yes"/>
      <point x="365.04555" y="358.8288"/>
      <point x="380.38214999999997" y="345.3493"/>
      <point x="413.52945" y="345.3493" type="curve" smooth="yes"/>
      <point x="453.4244" y="345.3493"/>
      <point x="475.59610000000004" y="361.06235"/>
      <point x="476.9461" y="404.9167" type="curve" smooth="yes"/>
      <point x="477.39610000000005" y="432.42035000000004"/>
      <point x="462.05949999999996" y="445.89985"/>
      <point x="429.22735000000006" y="445.89985" type="curve" smooth="yes"/>
      <point x="389.647" y="445.89985"/>
      <point x="366.84555" y="427.9527"/>
    </contour>
    <component base="l"/>
  </outline>
</glyph>
<glyph name="Lslash" format="2">
  <advance width="849.8000000000001"/>
  <unicode hex="0141"/>
  <outline>
    <contour>
      <point x="49.0" y="0.0" type="line"/>
      <point x="778.35" y="0.0" type="line"/>
      <point x="801.7" y="132.3" type="line"/>
      <point x="244.79999999999998" y="132.3" type="line"/>
      <point x="267.7" y="278.2" type="line"/>
      <point x="593.3" y="439.54999999999995" type="line"/>
      <point x="615.4499999999999" y="574.85" type="line"/>
      <point x="289.85" y="413.5" type="line"/>
      <point x="335.75" y="700.0" type="line"/>
      <point x="162.20000000000002" y="700.0" type="line"/>
      <point x="102.75" y="331.65000000000003" type="line"/>
      <point x="22.599999999999998" y="292.3" type="line"/>
      <point x="1.5500000000000007" y="159.75" type="line"/>
      <point x="80.6" y="198.55" type="line"/>
    </contour>
  </outline>
</glyph>
<glyph name="lslash" format="2">
  <advance width="431.6"/>
  <unicode hex="0142"/>
  <outline>
    <contour>
      <point x="3.099999999999998" y="165.95" type="line"/>
      <point x="393.35" y="399.55" type="line"/>
      <point x="411.65000000000003" y="514.45" type="line"/>
      <point x="20.849999999999998" y="280.85" type="line"/>
    </contour>
    <component base="l"/>
  </outline>
</glyph>
<glyph name="Eng" format="2">
  <advance width="1051.8"/>
  <unicode hex="014A"/>
  <outline>
    <contour>
      <point x="57.25" y="0.0" type="line"/>
      <point x="215.3" y="0.0" type="line"/>
      <point x="294.15" y="492.05" type="line"/>
      <point x="750.0" y="2.25" type="line"/>
      <point x="730.0999999999999" y="-84.1"/>
      <point x="657.6" y="-107.5"/>
      <point x="575.75" y="-107.5" type="curve" smooth="yes"/>
      <point x="531.5" y="-107.5"/>
      <point x="490.3" y="-99.6"/>
      <point x="451.95" y="-87.39999999999998" type="curve"/>
      <point x="427.6" y="-200.35000000000002" type="line"/>
      <point x="484.09999999999997" y="-215.29999999999998"/>
      <point x="555.6500000000001" y="-220.0"/>
      <point x="593.65" y="-220.0" type="curve" smooth="yes"/>
      <point x="766.25" y="-220.0"/>
      <point x="876.5" y="-167.20000000000002"/>
      <point x="905.5" y="11.249999999999998" type="curve" smooth="yes"/>
      <point x="1017.55" y="700.0" type="line"/>
      <point x="859.5" y="700.0" type="line"/>
      <point x="778.4499999999999" y="195.5" type="line"/>
      <point x="320.25" y="704.5" type="line"/>
      <point x="171.9" y="704.5" type="line"/>
    </contour>
  </outline>
</glyph>
<glyph name="eng" format="2">
  <advance width="834.7"/>
  <unicode hex="014B"/>
  <outline>
    <contour>
      <point x="703.3000000000001" y="6.6000000000000085" type="curve" smooth="yes"/>
      <point x="706.05" y="23.099999999999966"/>
      <point x="765.3000000000001" y="377.8"/>
      <point x="765.3000000000001" y="398.05" type="curve" smooth="yes"/>
      <point x="765.3000000000001" y="488.6"/>
      <point x="696.5999999999999" y="551.0"/>
      <point x="565.0999999999999" y="551.0" type="curve" smooth="yes"/>
      <point x="457.6" y="551.0"/>
      <point x="381.05" y="517.55"/>
      <point x="264.8" y="462.15000000000003" type="curve"/>
      <point x="277.05" y="541.0" type="line"/>
      <point x="129.9" y="541.0" type="line"/>
      <point x="44.7" y="0.0" type="line"/>
      <point x="206.15000000000003" y="0.0" type="line"/>
      <point x="266.20000000000005" y="370.85" type="line"/>
      <point x="348.85" y="407.25"/>
      <point x="409.5" y="432.45000000000005"/>
      <point x="485.65000000000003" y="432.45000000000005" type="curve" smooth="yes"/>
      <point x="560.55" y="432.45000000000005"/>
      <point x="597.45" y="398.45"/>
      <point x="593.05" y="333.1" type="curve" smooth="yes"/>
      <point x="586.45" y="276.40000000000003"/>
      <point x="548.3499999999999" y="52.29999999999998"/>
      <point x="541.75" y="12.700000000000003" type="curve" smooth="yes"/>
      <point x="528.85" y="-66.49999999999999"/>
      <point x="497.65" y="-99.0"/>
      <point x="436.65" y="-99.0" type="curve" smooth="yes"/>
      <point x="427.15000000000003" y="-99.0"/>
      <point x="414.5" y="-98.1"/>
      <point x="400.05000000000007" y="-93.14999999999999" type="curve"/>
      <point x="374.15" y="-214.10000000000002" type="line"/>
      <point x="398.1" y="-219.70000000000002"/>
      <point x="448.65" y="-222.7"/>
      <point x="479.45000000000005" y="-222.7" type="curve" smooth="yes"/>
      <point x="617.55" y="-222.7"/>
      <point x="679.5" y="-141.75"/>
    </contour>
  </outline>
</glyph>
<glyph name="OE" format="2">
  <advance width="1627.1000000000001"/>
  <unicode hex="0152"/>
  <outline>
    <contour>
      <point x="1533.9" y="0.0" type="line"/>
      <point x="1556.3" y="133.0" type="line"/>
      <point x="942.6" y="133.0" type="line"/>
      <point x="969.5999999999999" y="298.8" type="line"/>
      <point x="1526.2" y="298.8" type="line"/>
      <point x="1547.3999999999999" y="425.7" type="line"/>
      <point x="988.9000000000001" y="425.7" type="line"/>
      <point x="1010.4" y="566.9" type="line"/>
      <point x="1598.8" y="566.9" type="line"/>
      <point x="1620.1000000000001" y="700.0" type="line"/>
      <point x="1036.2" y="700.0" type="line"/>
      <point x="902.8" y="703.6"/>
      <point x="782.9000000000001" y="710.0"/>
      <point x="604.4" y="710.0" type="curve" smooth="yes"/>
      <point x="306.4" y="710.0"/>
      <point x="68.8" y="585.7"/>
      <point x="68.8" y="307.0" type="curve" smooth="yes"/>
      <point x="68.8" y="102.80000000000001"/>
      <point x="206.7" y="-10.0"/>
      <point x="540.6" y="-10.0" type="curve" smooth="yes"/>
      <point x="688.2" y="-10.0"/>
      <point x="794.6999999999999" y="-3.6000000000000005"/>
      <point x="923.0" y="0.0" type="curve"/>
    </contour>
    <contour>
      <point x="772.6999999999999" y="112.30000000000001" type="line"/>
      <point x="702.6" y="107.60000000000001"/>
      <point x="635.1999999999999" y="104.70000000000002"/>
      <point x="549.2" y="104.70000000000002" type="curve" smooth="yes"/>
      <point x="350.29999999999995" y="104.70000000000002"/>
      <point x="239.6" y="181.89999999999998"/>
      <point x="239.6" y="318.8" type="curve" smooth="yes"/>
      <point x="239.6" y="503.3"/>
      <point x="393.7" y="595.2"/>
      <point x="598.4" y="595.2" type="curve" smooth="yes"/>
      <point x="664.4" y="595.2"/>
      <point x="786.8" y="591.3"/>
      <point x="849.2" y="588.4000000000001" type="curve"/>
    </contour>
  </outline>
</glyph>
<glyph name="oe" format="2">
  <advance width="1370.6999999999998"/>
  <unicode hex="0153"/>
  <outline>
    <contour>
      <point x="404.80000000000007" y="-9.9" type="curve" smooth="yes"/>
      <point x="531.9999999999999" y="-9.9"/>
      <point x="631.7" y="13.100000000000003"/>
      <point x="691.1" y="81.5" type="curve"/>
      <point x="743.8999999999999" y="17.0"/>
      <point x="839.1" y="-10.0"/>
      <point x="965.5999999999999" y="-10.0" type="curve" smooth="yes"/>
      <point x="1071.7999999999997" y="-10.0"/>
      <point x="1189.0" y="8.2"/>
      <point x="1285.1000000000001" y="35.400000000000006" type="curve"/>
      <point x="1271.3999999999999" y="142.4" type="line"/>
      <point x="1168.3000000000002" y="112.19999999999999"/>
      <point x="1055.8" y="97.00000000000001"/>
      <point x="989.8000000000001" y="97.00000000000001" type="curve" smooth="yes"/>
      <point x="839.4999999999999" y="97.00000000000001"/>
      <point x="781.8" y="140.5"/>
      <point x="781.8" y="236.6" type="curve" smooth="yes"/>
      <point x="781.8" y="360.2"/>
      <point x="884.0" y="448.3"/>
      <point x="1034.8" y="448.3" type="curve" smooth="yes"/>
      <point x="1121.3" y="448.3"/>
      <point x="1166.1000000000001" y="423.9"/>
      <point x="1166.1000000000001" y="378.9" type="curve" smooth="yes"/>
      <point x="1166.1000000000001" y="324.20000000000005"/>
      <point x="1079.9" y="311.4"/>
      <point x="926.5999999999999" y="309.4" type="curve" smooth="yes"/>
      <point x="865.3000000000001" y="308.4"/>
      <point x="803.3" y="312.8"/>
      <point x="756.9000000000001" y="321.09999999999997" type="curve"/>
      <point x="765.0000000000001" y="236.29999999999998" type="line"/>
      <point x="821.4000000000001" y="224.70000000000002"/>
      <point x="897.7" y="216.9"/>
      <point x="981.1999999999999" y="217.9" type="curve" smooth="yes"/>
      <point x="1215.7" y="220.09999999999997"/>
      <point x="1339.0" y="282.59999999999997"/>
      <point x="1339.0" y="390.7" type="curve" smooth="yes"/>
      <point x="1339.0" y="492.2"/>
      <point x="1228.1" y="551.0"/>
      <point x="1048.9" y="551.0" type="curve" smooth="yes"/>
      <point x="896.3000000000001" y="551.0"/>
      <point x="782.9000000000001" y="510.5"/>
      <point x="719.8000000000001" y="442.50000000000006" type="curve"/>
      <point x="673.1" y="514.4"/>
      <point x="574.9000000000001" y="552.0"/>
      <point x="422.40000000000003" y="552.0" type="curve" smooth="yes"/>
      <point x="205.3" y="552.0"/>
      <point x="50.4" y="465.9"/>
      <point x="46.099999999999994" y="258.4" type="curve" smooth="yes"/>
      <point x="42.9" y="84.6"/>
      <point x="180.7" y="-9.9"/>
    </contour>
    <contour>
      <point x="411.3" y="92.5" type="curve" smooth="yes"/>
      <point x="280.5" y="92.5"/>
      <point x="212.3" y="152.5"/>
      <point x="212.3" y="258.09999999999997" type="curve" smooth="yes"/>
      <point x="212.3" y="384.5"/>
      <point x="284.59999999999997" y="450.49999999999994"/>
      <point x="426.90000000000003" y="450.49999999999994" type="curve" smooth="yes"/>
      <point x="559.4" y="450.49999999999994"/>
      <point x="626.8000000000001" y="392.19999999999993"/>
      <point x="626.8000000000001" y="283.90000000000003" type="curve" smooth="yes"/>
      <point x="626.8000000000001" y="151.20000000000002"/>
      <point x="546.4000000000001" y="92.5"/>
    </contour>
  </outline>
</glyph>
<glyph name="uni0162" format="2">
  <advance width="889.5"/>
  <unicode hex="0162"/>
  <anchor x="400.74999999999994" y="0.0" name="_bottom"/>
  <anchor x="324.90000000000003" y="-220.0" name="bottom"/>
  <outline>
    <contour>
      <point x="208.20000000000002" y="-195.39999999999998" type="line"/>
      <point x="249.54999999999998" y="-212.4"/>
      <point x="285.25" y="-220.0"/>
      <point x="328.95000000000005" y="-220.0" type="curve" smooth="yes"/>
      <point x="427.34999999999997" y="-220.0"/>
      <point x="508.79999999999995" y="-170.25"/>
      <point x="508.79999999999995" y="-72.64999999999999" type="curve" smooth="yes"/>
      <point x="508.79999999999995" y="-36.45"/>
      <point x="489.04999999999995" y="-8.350000000000001"/>
      <point x="459.65000000000003" y="7.75" type="curve"/>
      <point x="330.7" y="5.500000000000001" type="line"/>
      <point x="363.0" y="-9.350000000000001"/>
      <point x="378.25" y="-27.349999999999994"/>
      <point x="378.25" y="-57.05" type="curve" smooth="yes"/>
      <point x="378.25" y="-103.3"/>
      <point x="344.6" y="-122.80000000000001"/>
      <point x="297.35" y="-122.80000000000001" type="curve" smooth="yes"/>
      <point x="273.65" y="-122.80000000000001"/>
      <point x="249.3" y="-115.95"/>
      <point x="228.75" y="-104.14999999999999" type="curve"/>
    </contour>
    <component base="T"/>
  </outline>
</glyph>
<glyph name="Tbar" format="2">
  <advance width="900.5"/>
  <unicode hex="0166"/>
  <outline>
    <contour>
      <point x="927.9000000000001" y="575.95" type="line"/>
      <point x="950.6999999999999" y="700.0" type="line"/>
      <point x="87.65" y="700.0" type="line"/>
      <point x="64.3" y="575.95" type="line"/>
      <point x="410.09999999999997" y="575.95" type="line"/>
      <point x="378.40000000000003" y="377.35" type="line"/>
      <point x="155.45000000000002" y="377.35" type="line"/>
      <point x="137.6" y="266.95" type="line"/>
      <point x="361.09999999999997" y="266.95" type="line"/>
      <point x="319.15" y="0.0" type="line"/>
      <point x="492.7" y="0.0" type="line"/>
      <point x="534.65" y="266.95" type="line"/>
      <point x="761.2" y="266.95" type="line"/>
      <point x="779.05" y="377.35" type="line"/>
      <point x="551.95" y="377.35" type="line"/>
      <point x="583.1" y="575.95" type="line"/>
    </contour>
  </outline>
</glyph>
<glyph name="tbar" format="2">
  <advance width="581.3"/>
  <unicode hex="0167"/>
  <outline>
    <contour>
      <point x="26.8" y="275.4" type="line"/>
      <point x="505.7" y="275.4" type="line"/>
      <point x="521.1999999999999" y="355.8" type="line"/>
      <point x="42.199999999999996" y="355.8" type="line"/>
    </contour>
    <contour>
      <point x="519.6999999999999" y="144.6" type="line"/>
      <point x="460.9" y="128.3"/>
      <point x="412.8" y="116.8"/>
      <point x="367.7" y="116.8" type="curve" smooth="yes"/>
      <point x="303.29999999999995" y="116.8"/>
      <point x="279.2" y="144.79999999999998"/>
      <point x="279.2" y="189.60000000000002" type="curve" smooth="yes"/>
      <point x="279.2" y="199.10000000000002"/>
      <point x="280.1" y="209.5"/>
      <point x="282.0" y="219.99999999999997" type="curve" smooth="yes"/>
      <point x="317.09999999999997" y="438.9" type="line"/>
      <point x="559.9" y="438.9" type="line"/>
      <point x="577.5999999999999" y="541.0" type="line"/>
      <point x="333.59999999999997" y="541.0" type="line"/>
      <point x="353.5" y="665.0" type="line"/>
      <point x="210.5" y="665.0" type="line"/>
      <point x="171.60000000000002" y="541.0" type="line"/>
      <point x="39.3" y="527.3" type="line"/>
      <point x="22.8" y="438.9" type="line"/>
      <point x="151.8" y="438.9" type="line"/>
      <point x="116.8" y="214.6" type="line" smooth="yes"/>
      <point x="112.7" y="190.0"/>
      <point x="110.7" y="165.8"/>
      <point x="110.7" y="148.1" type="curve" smooth="yes"/>
      <point x="110.7" y="30.200000000000003"/>
      <point x="181.8" y="-10.0"/>
      <point x="292.5" y="-10.0" type="curve" smooth="yes"/>
      <point x="364.1" y="-10.0"/>
      <point x="435.6" y="2.1000000000000005"/>
      <point x="519.0" y="26.499999999999996" type="curve"/>
    </contour>
  </outline>
</glyph>
<glyph name="uogonek" format="2">
  <advance width="826.9499999999999"/>
  <unicode hex="0173"/>
  <outline>
    <contour>
      <point x="684.15" y="-205.7" type="curve" smooth="yes"/>
      <point x="711.5500000000001" y="-205.7"/>
      <point x="740.25" y="-202.14999999999998"/>
      <point x="765.95" y="-195.5" type="curve"/>
      <point x="775.0500000000001" y="-112.5" type="line"/>
      <point x="762.1" y="-115.3"/>
      <point x="751.05" y="-116.75"/>
      <point x="735.1" y="-116.75" type="curve" smooth="yes"/>
      <point x="700.4499999999999" y="-116.75"/>
      <point x="675.7" y="-103.24999999999999"/>
      <point x="675.7" y="-72.39999999999999" type="curve" smooth="yes"/>
      <point x="675.7" y="-38.19999999999999"/>
      <point x="703.9" y="-6.6999999999999975"/>
      <point x="781.6500000000001" y="20.35" type="curve"/>
      <point x="779.1999999999999" y="112.7" type="line"/>
      <point x="765.75" y="108.25"/>
      <point x="754.8" y="106.9"/>
      <point x="750.0" y="106.9" type="curve" smooth="yes"/>
      <point x="727.4" y="106.9"/>
      <point x="712.45" y="118.75000000000001"/>
      <point x="712.45" y="154.20000000000002" type="curve" smooth="yes"/>
      <point x="712.45" y="162.7"/>
      <point x="713.45" y="180.60000000000002"/>
      <point x="771.9499999999999" y="541.0" type="curve"/>
      <point x="606.1999999999999" y="541.0" type="line"/>
      <point x="549.25" y="166.3" type="line"/>
      <point x="478.7" y="131.35"/>
      <point x="412.35" y="108.00000000000001"/>
      <point x="339.05" y="108.00000000000001" type="curve" smooth="yes"/>
      <point x="270.65" y="108.00000000000001"/>
      <point x="235.7" y="137.55"/>
      <point x="235.70000000000002" y="194.45" type="curve" smooth="yes"/>
      <point x="235.7" y="216.15"/>
      <point x="239.45" y="240.30000000000004"/>
      <point x="289.5" y="541.0" type="curve"/>
      <point x="124.19999999999999" y="541.0" type="line"/>
      <point x="66.45" y="178.8"/>
      <point x="65.45" y="164.2"/>
      <point x="65.45" y="146.70000000000002" type="curve" smooth="yes"/>
      <point x="65.45" y="50.0"/>
      <point x="133.0" y="-10.0"/>
      <point x="264.1" y="-10.0" type="curve" smooth="yes"/>
      <point x="361.5" y="-10.0"/>
      <point x="456.04999999999995" y="21.6"/>
      <point x="553.75" y="77.44999999999999" type="curve"/>
      <point x="566.95" y="25.1"/>
      <point x="607.1" y="-8.9"/>
      <point x="672.3000000000001" y="-8.9" type="curve" smooth="yes"/>
      <point x="695.15" y="-8.9"/>
      <point x="721.95" y="22.300000000000004"/>
      <point x="663.0999999999999" y="25.450000000000003" type="curve"/>
      <point x="596.75" y="3.5000000000000036"/>
      <point x="551.1" y="-39.099999999999994"/>
      <point x="551.1" y="-97.7" type="curve" smooth="yes"/>
      <point x="551.1" y="-157.65"/>
      <point x="596.55" y="-205.7"/>
    </contour>
  </outline>
</glyph>
